<svg version="1.1" id="Layer_1" xmlns="http://www.w3.org/2000/svg" xmlns:xlink="http://www.w3.org/1999/xlink" x="0px" y="0px"
	 width="100%" viewBox="0 0 1018 1037" enable-background="new 0 0 1018 1037" xml:space="preserve">
<path fill="#000000" opacity="1.000000" stroke="none" 
	d="
M532.000000,1.000000 
	C694.261841,1.000000 856.523682,1.000000 1019.000000,1.000000 
	C1019.000000,160.358170 1019.000000,319.716431 1018.587158,479.502838 
	C1017.790222,479.261047 1017.145386,478.622498 1017.060486,477.916626 
	C1015.347473,463.670837 1014.616455,449.235138 1011.831726,435.206055 
	C1007.114929,411.442963 1002.166016,387.628448 995.409302,364.389526 
	C983.936035,324.928741 966.689026,287.823212 945.773071,252.426819 
	C927.523315,221.542435 906.221985,192.876144 881.879517,166.623459 
	C862.807373,146.054626 842.408630,126.781044 820.146362,109.537460 
	C795.874451,90.737274 770.313110,73.979752 743.187073,59.656933 
	C712.764526,43.593521 680.940796,30.885290 647.852356,21.476761 
	C611.204956,11.056242 573.938965,4.187738 535.752747,2.920384 
	C534.481995,2.878210 533.250061,1.666533 532.000000,1.000000 
z"/>
<path fill="#000000" opacity="1.000000" stroke="none" 
	d="
M873.000000,1038.000000 
	C769.978577,1038.000000 666.957092,1038.000000 563.499390,1037.591797 
	C563.729858,1036.796143 564.359802,1036.164062 565.068970,1036.057007 
	C578.590393,1034.015625 592.193420,1032.430908 605.636719,1029.970947 
	C648.842102,1022.064941 689.998108,1007.759094 729.467529,988.693970 
	C754.401306,976.650208 778.106262,962.428467 800.624878,946.225525 
	C828.520935,926.153503 855.038818,904.506714 877.756409,878.611023 
	C891.486938,862.959595 904.955078,847.034058 917.747009,830.613098 
	C937.340332,805.461243 953.033020,777.866211 966.996765,749.220337 
	C980.239807,722.052979 991.120544,694.002563 998.998596,664.872375 
	C1003.684631,647.545166 1007.689636,629.974976 1010.829041,612.305786 
	C1013.708618,596.098694 1014.992004,579.609192 1017.088135,563.258179 
	C1017.193420,562.437256 1018.338867,561.749695 1019.000000,561.000000 
	C1019.000000,719.885803 1019.000000,878.771545 1019.000000,1038.000000 
	C975.979187,1038.000000 932.957397,1038.000000 889.466431,1037.631836 
	C888.015564,1035.540161 887.034058,1033.816650 886.745605,1033.310181 
	C883.595032,1033.586060 881.289917,1034.512695 879.778015,1033.786865 
	C874.885132,1031.437866 874.138916,1034.833008 873.000000,1038.000000 
z"/>
<path fill="#000000" opacity="1.000000" stroke="none" 
	d="
M1.000003,451.000000 
	C1.000000,301.068756 1.000000,151.137512 1.000000,1.000000 
	C162.024017,1.000000 323.048126,1.000000 484.500427,1.414960 
	C484.090820,2.216615 483.274414,2.878187 482.411804,2.945229 
	C476.967499,3.368363 471.484863,3.415859 466.066986,4.039814 
	C449.353699,5.964626 432.515717,7.285938 415.997253,10.318479 
	C386.209930,15.786996 357.139801,24.115801 328.788239,34.904533 
	C296.136841,47.329491 265.157715,63.040211 235.746246,81.833916 
	C211.303741,97.452522 188.266129,115.032593 167.011017,134.715530 
	C146.782227,153.448044 127.449226,173.218948 110.660278,195.151947 
	C98.815742,210.625580 87.158073,226.418823 77.250969,243.154999 
	C64.350105,264.948608 52.002663,287.258270 41.764408,310.384979 
	C32.089291,332.239655 24.390913,355.134766 17.792021,378.137054 
	C11.807057,398.999298 8.515889,420.631500 3.929086,441.900940 
	C3.260685,445.000366 1.991300,447.970215 1.000003,451.000000 
z"/>
<path fill="#000000" opacity="1.000000" stroke="none" 
	d="
M137.000000,1038.000000 
	C91.700645,1038.000000 46.401283,1038.000000 1.000000,1038.000000 
	C1.000000,888.979126 1.000000,739.958191 1.405088,590.498291 
	C2.199464,590.724670 2.812348,591.348206 2.945405,592.061401 
	C6.481175,611.011841 8.956344,630.230774 13.731897,648.860535 
	C19.056036,669.630371 25.884920,690.072998 33.110928,710.281860 
	C42.163429,735.598999 53.862873,759.867859 67.752121,782.842834 
	C79.534912,802.333435 92.452576,821.225891 106.047630,839.505798 
	C117.372169,854.732788 129.571350,869.515137 142.903915,882.989624 
	C158.843277,899.098572 175.984192,914.102234 193.353729,928.692932 
	C220.067307,951.132568 249.597534,969.483337 280.678040,985.245728 
	C305.964386,998.069641 332.187622,1008.667908 359.327454,1017.002563 
	C389.385376,1026.233276 419.949951,1032.870850 451.248444,1036.077759 
	C452.221100,1036.177368 453.085266,1037.335449 454.000000,1038.000000 
	C353.979095,1038.000000 253.958206,1038.000000 153.467010,1037.623535 
	C150.440491,1032.289307 147.884262,1027.331665 145.031082,1021.798096 
	C142.217194,1027.474854 139.608597,1032.737427 137.000000,1038.000000 
z"/>
<path fill="#065B2B" opacity="1.000000" stroke="none" 
	d="
M454.468628,1038.000000 
	C453.085266,1037.335449 452.221100,1036.177368 451.248444,1036.077759 
	C419.949951,1032.870850 389.385376,1026.233276 359.327454,1017.002563 
	C332.187622,1008.667908 305.964386,998.069641 280.678040,985.245728 
	C249.597534,969.483337 220.067307,951.132568 193.353729,928.692932 
	C175.984192,914.102234 158.843277,899.098572 142.903915,882.989624 
	C129.571350,869.515137 117.372169,854.732788 106.047630,839.505798 
	C92.452576,821.225891 79.534912,802.333435 67.752121,782.842834 
	C53.862873,759.867859 42.163429,735.598999 33.110928,710.281860 
	C25.884920,690.072998 19.056036,669.630371 13.731897,648.860535 
	C8.956344,630.230774 6.481175,611.011841 2.945405,592.061401 
	C2.812348,591.348206 2.199464,590.724670 1.405088,590.029663 
	C1.000000,543.979126 1.000000,497.958221 1.000003,451.468658 
	C1.991300,447.970215 3.260685,445.000366 3.929086,441.900940 
	C8.515889,420.631500 11.807057,398.999298 17.792021,378.137054 
	C24.390913,355.134766 32.089291,332.239655 41.764408,310.384979 
	C52.002663,287.258270 64.350105,264.948608 77.250969,243.154999 
	C87.158073,226.418823 98.815742,210.625580 110.660278,195.151947 
	C127.449226,173.218948 146.782227,153.448044 167.011017,134.715530 
	C188.266129,115.032593 211.303741,97.452522 235.746246,81.833916 
	C265.157715,63.040211 296.136841,47.329491 328.788239,34.904533 
	C357.139801,24.115801 386.209930,15.786996 415.997253,10.318479 
	C432.515717,7.285938 449.353699,5.964626 466.066986,4.039814 
	C471.484863,3.415859 476.967499,3.368363 482.411804,2.945229 
	C483.274414,2.878187 484.090820,2.216615 484.964294,1.414960 
	C500.354218,1.000000 515.708435,1.000000 531.531372,1.000000 
	C533.250061,1.666533 534.481995,2.878210 535.752747,2.920384 
	C573.938965,4.187738 611.204956,11.056242 647.852356,21.476761 
	C680.940796,30.885290 712.764526,43.593521 743.187073,59.656933 
	C770.313110,73.979752 795.874451,90.737274 820.146362,109.537460 
	C842.408630,126.781044 862.807373,146.054626 881.879517,166.623459 
	C906.221985,192.876144 927.523315,221.542435 945.773071,252.426819 
	C966.689026,287.823212 983.936035,324.928741 995.409302,364.389526 
	C1002.166016,387.628448 1007.114929,411.442963 1011.831726,435.206055 
	C1014.616455,449.235138 1015.347473,463.670837 1017.060486,477.916626 
	C1017.145386,478.622498 1017.790222,479.261047 1018.587158,479.965485 
	C1019.000000,506.687561 1019.000000,533.375122 1019.000000,560.531372 
	C1018.338867,561.749695 1017.193420,562.437256 1017.088135,563.258179 
	C1014.992004,579.609192 1013.708618,596.098694 1010.829041,612.305786 
	C1007.689636,629.974976 1003.684631,647.545166 998.998596,664.872375 
	C991.120544,694.002563 980.239807,722.052979 966.996765,749.220337 
	C953.033020,777.866211 937.340332,805.461243 917.747009,830.613098 
	C904.955078,847.034058 891.486938,862.959595 877.756409,878.611023 
	C855.038818,904.506714 828.520935,926.153503 800.624878,946.225525 
	C778.106262,962.428467 754.401306,976.650208 729.467529,988.693970 
	C689.998108,1007.759094 648.842102,1022.064941 605.636719,1029.970947 
	C592.193420,1032.430908 578.590393,1034.015625 565.068970,1036.057007 
	C564.359802,1036.164062 563.729858,1036.796143 563.031494,1037.591797 
	C526.979126,1038.000000 490.958221,1038.000000 454.468628,1038.000000 
M412.526642,1021.001892 
	C414.973602,1021.374146 417.413910,1021.798523 419.868530,1022.110535 
	C440.640594,1024.750854 461.351532,1028.447510 482.207794,1029.682373 
	C501.570343,1030.828491 521.117126,1029.873779 540.529724,1028.843994 
	C555.995361,1028.023560 571.562622,1026.662964 586.759521,1023.809998 
	C609.108337,1019.614441 631.481506,1014.946899 653.280396,1008.556885 
	C690.772705,997.566528 726.268738,981.618347 759.917236,961.604004 
	C789.888733,943.776672 817.910400,923.300842 843.542603,899.723389 
	C856.134033,888.141174 868.252808,875.877747 879.322937,862.849915 
	C894.290466,845.235352 908.711914,827.065979 922.139099,808.257629 
	C937.063232,787.352539 949.892639,765.039429 960.200195,741.427429 
	C967.086060,725.653687 974.140991,709.908630 980.025391,693.751953 
	C993.125244,657.783813 1002.235962,620.774597 1005.987366,582.605835 
	C1007.717102,565.007507 1009.144104,547.352478 1009.842590,529.688904 
	C1010.327087,517.437195 1009.491211,505.120056 1008.950623,492.845123 
	C1008.506714,482.765839 1008.286865,472.607391 1006.802002,462.658051 
	C1004.005615,443.921570 1000.729553,425.238220 997.004761,406.662750 
	C989.747131,370.468475 977.302917,335.941986 961.731384,302.565582 
	C948.602295,274.424469 933.597107,247.226776 914.753357,222.501740 
	C899.832092,202.923325 884.074463,183.914505 867.687500,165.545532 
	C857.335938,153.942139 845.531433,143.527023 833.674927,133.402969 
	C820.365479,122.038193 806.647034,111.065842 792.421387,100.879532 
	C767.166748,82.795792 740.190491,67.604736 711.814392,54.842533 
	C687.747009,44.018139 663.021118,35.130569 637.624634,28.107927 
	C601.834656,18.211243 565.248169,12.743864 528.232422,11.265143 
	C508.221710,10.465746 488.038910,11.520817 468.055542,13.193804 
	C448.699982,14.814226 429.370331,17.591837 410.259552,21.111481 
	C371.017090,28.338791 333.475464,41.213108 297.513336,58.387524 
	C281.825439,65.879585 266.636780,74.499016 251.602448,83.260368 
	C221.450043,100.831886 194.040405,122.207436 168.678162,146.069534 
	C155.996307,158.001266 144.040482,170.814590 132.718933,184.052490 
	C120.488693,198.352921 108.825615,213.217789 97.906075,228.542526 
	C77.930069,256.577271 61.197021,286.592407 48.403172,318.546570 
	C39.745575,340.169952 31.866205,362.201996 25.300611,384.539703 
	C18.139547,408.903290 13.049934,433.871399 10.993670,459.295166 
	C9.487391,477.918823 7.388855,496.563049 7.253883,515.210388 
	C7.111444,534.889465 8.484622,554.625244 10.140622,574.256592 
	C11.413989,589.351929 13.458291,604.460571 16.389673,619.320740 
	C21.766043,646.575317 29.288170,673.267822 38.882778,699.408752 
	C52.136871,735.520142 69.496719,769.495361 90.261848,801.791809 
	C105.146507,824.942383 121.902756,846.735535 140.606964,866.856628 
	C159.377304,887.048889 178.788757,906.850281 201.080597,923.157654 
	C221.870178,938.366150 243.577499,952.393921 265.449432,966.029358 
	C290.006348,981.338867 316.472748,993.018372 343.960938,1001.901855 
	C366.254333,1009.106384 389.078186,1014.669617 412.526642,1021.001892 
z"/>
<path fill="#FFFFFF" opacity="1.000000" stroke="none" 
	d="
M137.466858,1038.000000 
	C139.608597,1032.737427 142.217194,1027.474854 145.031082,1021.798096 
	C147.884262,1027.331665 150.440491,1032.289307 152.998352,1037.623535 
	C147.977905,1038.000000 142.955811,1038.000000 137.466858,1038.000000 
z"/>
<path fill="#FFFFFF" opacity="1.000000" stroke="none" 
	d="
M873.466858,1038.000000 
	C874.138916,1034.833008 874.885132,1031.437866 879.778015,1033.786865 
	C881.289917,1034.512695 883.595032,1033.586060 886.745605,1033.310181 
	C887.034058,1033.816650 888.015564,1035.540161 888.998535,1037.631836 
	C883.977905,1038.000000 878.955811,1038.000000 873.466858,1038.000000 
z"/>
<path fill="#000000" opacity="1.000000" stroke="none" 
	d="
M412.096680,1020.981323 
	C389.078186,1014.669617 366.254333,1009.106384 343.960938,1001.901855 
	C316.472748,993.018372 290.006348,981.338867 265.449432,966.029358 
	C243.577499,952.393921 221.870178,938.366150 201.080597,923.157654 
	C178.788757,906.850281 159.377304,887.048889 140.606964,866.856628 
	C121.902756,846.735535 105.146507,824.942383 90.261848,801.791809 
	C69.496719,769.495361 52.136871,735.520142 38.882778,699.408752 
	C29.288170,673.267822 21.766043,646.575317 16.389673,619.320740 
	C13.458291,604.460571 11.413989,589.351929 10.140622,574.256592 
	C8.484622,554.625244 7.111444,534.889465 7.253883,515.210388 
	C7.388855,496.563049 9.487391,477.918823 10.993670,459.295166 
	C13.049934,433.871399 18.139547,408.903290 25.300611,384.539703 
	C31.866205,362.201996 39.745575,340.169952 48.403172,318.546570 
	C61.197021,286.592407 77.930069,256.577271 97.906075,228.542526 
	C108.825615,213.217789 120.488693,198.352921 132.718933,184.052490 
	C144.040482,170.814590 155.996307,158.001266 168.678162,146.069534 
	C194.040405,122.207436 221.450043,100.831886 251.602448,83.260368 
	C266.636780,74.499016 281.825439,65.879585 297.513336,58.387524 
	C333.475464,41.213108 371.017090,28.338791 410.259552,21.111481 
	C429.370331,17.591837 448.699982,14.814226 468.055542,13.193804 
	C488.038910,11.520817 508.221710,10.465746 528.232422,11.265143 
	C565.248169,12.743864 601.834656,18.211243 637.624634,28.107927 
	C663.021118,35.130569 687.747009,44.018139 711.814392,54.842533 
	C740.190491,67.604736 767.166748,82.795792 792.421387,100.879532 
	C806.647034,111.065842 820.365479,122.038193 833.674927,133.402969 
	C845.531433,143.527023 857.335938,153.942139 867.687500,165.545532 
	C884.074463,183.914505 899.832092,202.923325 914.753357,222.501740 
	C933.597107,247.226776 948.602295,274.424469 961.731384,302.565582 
	C977.302917,335.941986 989.747131,370.468475 997.004761,406.662750 
	C1000.729553,425.238220 1004.005615,443.921570 1006.802002,462.658051 
	C1008.286865,472.607391 1008.506714,482.765839 1008.950623,492.845123 
	C1009.491211,505.120056 1010.327087,517.437195 1009.842590,529.688904 
	C1009.144104,547.352478 1007.717102,565.007507 1005.987366,582.605835 
	C1002.235962,620.774597 993.125244,657.783813 980.025391,693.751953 
	C974.140991,709.908630 967.086060,725.653687 960.200195,741.427429 
	C949.892639,765.039429 937.063232,787.352539 922.139099,808.257629 
	C908.711914,827.065979 894.290466,845.235352 879.322937,862.849915 
	C868.252808,875.877747 856.134033,888.141174 843.542603,899.723389 
	C817.910400,923.300842 789.888733,943.776672 759.917236,961.604004 
	C726.268738,981.618347 690.772705,997.566528 653.280396,1008.556885 
	C631.481506,1014.946899 609.108337,1019.614441 586.759521,1023.809998 
	C571.562622,1026.662964 555.995361,1028.023560 540.529724,1028.843994 
	C521.117126,1029.873779 501.570343,1030.828491 482.207794,1029.682373 
	C461.351532,1028.447510 440.640594,1024.750854 419.868530,1022.110535 
	C417.413910,1021.798523 414.973602,1021.374146 412.096680,1020.981323 
M817.539673,175.015457 
	C813.619202,171.435974 809.876831,167.634628 805.744629,164.319031 
	C793.758850,154.701828 781.929504,144.845291 769.470459,135.871857 
	C744.114197,117.609535 717.043457,102.122383 688.143433,90.257591 
	C669.508301,82.607048 650.505310,75.446739 631.088196,70.215950 
	C609.810608,64.483978 587.959412,60.662540 566.181274,57.085621 
	C551.878906,54.736546 537.275146,53.421261 522.784546,53.221436 
	C504.559692,52.970119 486.280304,53.870041 468.085632,55.145550 
	C454.282715,56.113182 440.464874,57.834560 426.849152,60.299995 
	C400.637665,65.046173 374.965668,72.002403 350.027130,81.488823 
	C323.795288,91.467201 298.650940,103.651199 274.582184,118.120163 
	C245.080460,135.855194 217.928818,156.659042 193.169022,180.502274 
	C183.137863,190.162094 173.603424,200.423386 164.629822,211.073959 
	C153.563828,224.207901 142.824265,237.679199 132.825363,251.636383 
	C114.330658,277.452637 98.925232,305.138245 86.939919,334.544800 
	C79.891281,351.838928 73.698929,369.533905 68.115128,387.359863 
	C61.301105,409.113220 56.369450,431.382843 53.883121,454.096130 
	C52.069061,470.668060 49.637291,487.257050 49.257149,503.879059 
	C48.817772,523.091370 49.748978,542.390991 51.167133,561.572632 
	C52.369541,577.836121 54.382851,594.120239 57.340870,610.154724 
	C62.020763,635.522888 68.967712,660.344238 77.971535,684.580811 
	C89.909721,716.716125 104.947754,747.287720 123.529121,776.080994 
	C137.274658,797.380798 152.551086,817.498718 169.632904,836.308472 
	C186.197815,854.548950 203.585846,871.943604 222.949463,887.082397 
	C239.078156,899.692139 255.971802,911.451477 273.282745,922.391052 
	C299.561127,938.997559 327.664001,952.164124 357.018005,962.448792 
	C384.195862,971.971008 411.926819,979.478455 440.583649,983.050781 
	C455.153656,984.867004 469.733276,987.278870 484.363831,987.768372 
	C502.950592,988.390198 521.624756,987.886475 540.202515,986.832825 
	C555.836060,985.946228 571.531982,984.406616 586.939514,981.681580 
	C612.983582,977.075195 638.492737,970.234985 663.424988,961.139771 
	C687.665405,952.296875 711.014587,941.583313 733.279968,928.717346 
	C761.557556,912.377380 788.580444,894.049255 812.127014,871.221558 
	C828.208801,855.630615 844.521301,840.093262 858.927551,823.011292 
	C872.733704,806.640808 884.808899,788.698853 896.580750,770.749695 
	C916.028931,741.096191 930.680969,708.987061 942.234070,675.489319 
	C951.353516,649.047791 958.576721,622.098389 962.042542,594.287231 
	C964.307251,576.114685 966.746094,557.914673 967.768799,539.652100 
	C968.574646,525.263672 967.829224,510.728271 966.878540,496.317169 
	C965.770691,479.524292 964.669312,462.624756 961.784668,446.081940 
	C958.106262,424.986908 953.678955,403.903229 947.724731,383.350494 
	C937.223572,347.102173 922.089294,312.693756 902.668762,280.228607 
	C890.841064,260.456543 877.979065,241.429550 863.214844,223.726852 
	C855.797913,214.833755 848.537170,205.780609 840.647888,197.320038 
	C833.518005,189.673767 825.629028,182.735245 817.539673,175.015457 
z"/>
<path fill="#075B2B" opacity="1.000000" stroke="none" 
	d="
M817.807251,175.250061 
	C825.629028,182.735245 833.518005,189.673767 840.647888,197.320038 
	C848.537170,205.780609 855.797913,214.833755 863.214844,223.726852 
	C877.979065,241.429550 890.841064,260.456543 902.668762,280.228607 
	C922.089294,312.693756 937.223572,347.102173 947.724731,383.350494 
	C953.678955,403.903229 958.106262,424.986908 961.784668,446.081940 
	C964.669312,462.624756 965.770691,479.524292 966.878540,496.317169 
	C967.829224,510.728271 968.574646,525.263672 967.768799,539.652100 
	C966.746094,557.914673 964.307251,576.114685 962.042542,594.287231 
	C958.576721,622.098389 951.353516,649.047791 942.234070,675.489319 
	C930.680969,708.987061 916.028931,741.096191 896.580750,770.749695 
	C884.808899,788.698853 872.733704,806.640808 858.927551,823.011292 
	C844.521301,840.093262 828.208801,855.630615 812.127014,871.221558 
	C788.580444,894.049255 761.557556,912.377380 733.279968,928.717346 
	C711.014587,941.583313 687.665405,952.296875 663.424988,961.139771 
	C638.492737,970.234985 612.983582,977.075195 586.939514,981.681580 
	C571.531982,984.406616 555.836060,985.946228 540.202515,986.832825 
	C521.624756,987.886475 502.950592,988.390198 484.363831,987.768372 
	C469.733276,987.278870 455.153656,984.867004 440.583649,983.050781 
	C411.926819,979.478455 384.195862,971.971008 357.018005,962.448792 
	C327.664001,952.164124 299.561127,938.997559 273.282745,922.391052 
	C255.971802,911.451477 239.078156,899.692139 222.949463,887.082397 
	C203.585846,871.943604 186.197815,854.548950 169.632904,836.308472 
	C152.551086,817.498718 137.274658,797.380798 123.529121,776.080994 
	C104.947754,747.287720 89.909721,716.716125 77.971535,684.580811 
	C68.967712,660.344238 62.020763,635.522888 57.340870,610.154724 
	C54.382851,594.120239 52.369541,577.836121 51.167133,561.572632 
	C49.748978,542.390991 48.817772,523.091370 49.257149,503.879059 
	C49.637291,487.257050 52.069061,470.668060 53.883121,454.096130 
	C56.369450,431.382843 61.301105,409.113220 68.115128,387.359863 
	C73.698929,369.533905 79.891281,351.838928 86.939919,334.544800 
	C98.925232,305.138245 114.330658,277.452637 132.825363,251.636383 
	C142.824265,237.679199 153.563828,224.207901 164.629822,211.073959 
	C173.603424,200.423386 183.137863,190.162094 193.169022,180.502274 
	C217.928818,156.659042 245.080460,135.855194 274.582184,118.120163 
	C298.650940,103.651199 323.795288,91.467201 350.027130,81.488823 
	C374.965668,72.002403 400.637665,65.046173 426.849152,60.299995 
	C440.464874,57.834560 454.282715,56.113182 468.085632,55.145550 
	C486.280304,53.870041 504.559692,52.970119 522.784546,53.221436 
	C537.275146,53.421261 551.878906,54.736546 566.181274,57.085621 
	C587.959412,60.662540 609.810608,64.483978 631.088196,70.215950 
	C650.505310,75.446739 669.508301,82.607048 688.143433,90.257591 
	C717.043457,102.122383 744.114197,117.609535 769.470459,135.871857 
	C781.929504,144.845291 793.758850,154.701828 805.744629,164.319031 
	C809.876831,167.634628 813.619202,171.435974 817.807251,175.250061 
M349.509796,904.510071 
	C357.315826,900.452026 365.250092,896.616882 372.869019,892.233582 
	C376.235992,890.296570 378.776276,890.660522 381.915039,892.393494 
	C389.732056,896.709229 397.697571,900.755981 406.207153,905.228088 
	C404.931854,897.659729 404.398590,890.615356 402.459442,883.981873 
	C400.103729,875.923401 401.908295,870.366516 408.582733,865.152039 
	C414.030457,860.895874 418.305756,855.139099 423.078339,850.071655 
	C414.462097,848.774048 405.784088,847.105713 397.026733,846.305542 
	C392.852997,845.924194 390.957703,844.098450 389.347687,840.650330 
	C385.612488,832.650940 381.573669,824.793335 377.274597,816.103333 
	C372.895538,825.004517 368.826843,832.960022 365.073669,841.061768 
	C363.608276,844.224976 361.868378,845.808472 358.137604,846.200562 
	C349.127594,847.147461 340.188599,848.769836 331.396606,850.093384 
	C337.960693,856.888245 344.315277,863.639771 350.890228,870.169434 
	C352.937836,872.202759 353.822662,873.875854 353.224060,876.992615 
	C351.506042,885.937927 350.375183,894.995911 348.686829,904.125488 
	C348.835327,904.182434 348.983826,904.239380 349.132324,904.296326 
	C349.055573,904.178833 348.978821,904.061279 349.509796,904.510071 
M484.756958,195.432144 
	C489.239929,195.223190 493.722717,195.010117 498.205902,194.806152 
	C507.442780,194.385910 516.369568,192.907990 524.312256,187.674088 
	C540.438110,177.047653 543.346313,152.841904 529.733459,140.499313 
	C526.810364,137.848969 523.038940,136.134171 519.523926,133.903107 
	C520.038391,133.446976 520.485474,132.968048 521.009583,132.598251 
	C529.560547,126.564545 531.722961,118.068794 529.844666,108.371216 
	C528.022644,98.964211 522.384766,92.437202 513.113831,89.742760 
	C508.707306,88.462067 503.980286,87.630028 499.411957,87.686646 
	C487.279419,87.836990 475.151917,88.531525 463.026947,89.105690 
	C454.133423,89.526825 445.247070,90.099899 436.135010,90.617912 
	C437.982971,126.569244 439.797852,161.877762 441.633636,197.592072 
	C456.084656,196.856201 470.009094,196.147156 484.756958,195.432144 
M743.489746,334.978546 
	C731.492493,321.609100 720.520325,307.118134 707.326172,295.058105 
	C638.449768,232.102112 557.336853,206.109650 464.868225,219.381241 
	C397.042358,229.115936 339.572235,260.458923 293.608917,311.093567 
	C227.782928,383.609528 202.144638,469.455719 215.417068,566.168640 
	C224.833771,634.785767 255.048920,693.857056 305.047241,742.014221 
	C363.926880,798.725647 434.444366,826.850464 516.481140,825.177307 
	C558.910706,824.311951 599.074646,814.152466 637.020020,795.308960 
	C748.898804,739.750549 815.865479,618.105896 803.833679,492.444489 
	C798.299316,434.643982 778.525024,382.256226 743.489746,334.978546 
M322.072876,207.430649 
	C326.691681,218.034424 331.310516,228.638214 336.061310,239.544998 
	C346.392456,235.072647 356.245361,230.807327 366.508240,226.364532 
	C361.568054,214.897324 356.735809,203.680634 351.775146,192.165924 
	C355.047882,190.721283 358.052582,189.363937 361.081543,188.063095 
	C377.333069,181.083649 380.549133,182.254974 389.109100,197.767258 
	C391.890778,202.808182 395.046387,207.642776 398.099518,212.684921 
	C408.678986,208.106857 418.521790,203.847580 427.955811,199.765198 
	C424.427856,193.547668 420.896210,187.570145 417.602692,181.464157 
	C412.058228,171.185013 405.207306,162.560242 392.462463,160.915634 
	C405.991058,144.670105 395.148560,112.868652 370.218658,112.607162 
	C363.772278,112.539543 356.910431,113.960617 350.912689,116.372284 
	C332.744141,123.677811 314.903534,131.799286 296.944122,139.623520 
	C295.803131,140.120590 294.738953,140.793961 293.518494,141.450119 
	C303.068359,163.477798 312.441101,185.096939 322.072876,207.430649 
M804.068604,385.631348 
	C805.029175,384.458374 806.372559,383.433716 806.893066,382.090240 
	C814.931885,361.340973 823.012573,340.605164 830.712036,319.729187 
	C832.552368,314.739441 834.263123,311.750549 840.326782,313.795959 
	C844.049500,315.051727 848.183594,315.088501 852.133118,315.671448 
	C864.435120,317.487183 876.737305,319.302368 889.997070,321.259094 
	C883.891357,312.274597 877.969727,304.263550 872.837158,295.775421 
	C869.059631,289.528290 864.702942,286.039276 856.943115,286.687683 
	C851.539307,287.139252 846.003784,286.047455 840.529480,285.615356 
	C834.092651,285.107330 827.658386,284.567017 819.984009,283.939362 
	C830.880981,276.450134 840.543579,269.809235 850.294739,263.107452 
	C843.858887,253.715378 837.760559,244.815933 831.508728,235.692398 
	C801.836243,255.987778 772.412903,276.112732 742.914246,296.289215 
	C749.357849,305.679413 755.444946,314.550079 761.717041,323.690308 
	C768.660767,318.957764 775.670654,314.978119 781.703491,309.849182 
	C788.021606,304.477661 794.182068,306.559418 800.998962,307.952454 
	C794.971497,321.900574 789.179688,335.495972 783.189880,349.003571 
	C781.977722,351.737091 782.081360,353.751556 783.839539,356.236420 
	C790.565552,365.742462 797.064331,375.409271 804.068604,385.631348 
M737.965454,157.348419 
	C733.212952,156.630707 728.446960,155.220016 723.710205,155.312286 
	C700.116821,155.771927 684.123291,168.531387 673.595520,188.466034 
	C663.249329,208.057037 663.546143,227.864563 677.699463,245.553864 
	C692.027283,263.461273 710.849304,272.137238 734.121155,266.924042 
	C757.478394,261.691711 777.133484,237.140686 778.814880,212.106720 
	C780.416870,188.255249 763.680115,165.563812 737.965454,157.348419 
M657.075256,127.494675 
	C645.379822,106.797241 619.313110,95.402863 596.008850,100.512878 
	C568.483521,106.548462 552.779419,133.043472 553.355652,160.071655 
	C554.327942,205.677048 602.385742,219.755676 628.944946,208.523682 
	C657.833679,196.306503 671.800171,157.331253 657.075256,127.494675 
M839.169922,436.034393 
	C834.708679,422.963440 836.455322,418.149231 847.911194,412.444550 
	C845.031372,402.007050 842.139404,391.525513 839.188660,380.831055 
	C825.948608,384.807770 816.570190,392.426697 813.972900,405.707794 
	C812.409912,413.700012 812.063782,422.328217 813.232727,430.370972 
	C815.425476,445.457886 821.282471,459.268250 833.610474,469.200653 
	C843.786377,477.399109 855.224182,477.852081 867.048645,473.238586 
	C878.078674,468.935059 882.932983,460.023254 884.101379,448.891327 
	C884.793640,442.295380 884.631958,435.611786 884.911987,428.970032 
	C885.198242,422.182251 884.910339,415.283752 886.080688,408.646576 
	C887.050903,403.144653 892.054016,402.141724 895.807495,405.933136 
	C903.030823,413.229523 901.618774,424.842010 892.593872,430.109589 
	C895.241394,439.733398 897.911804,449.440491 900.695923,459.560822 
	C912.611572,455.909241 920.807556,449.046600 923.915344,437.270874 
	C927.463440,423.827026 924.866516,410.818146 919.619263,398.305023 
	C915.736755,389.046417 909.922852,381.253845 900.629333,376.627411 
	C881.517822,367.113464 860.968994,377.505463 857.749329,398.436005 
	C857.094666,402.691559 857.055115,407.050385 856.869446,411.367523 
	C856.519165,419.511017 856.359741,427.663513 855.933960,435.802490 
	C855.753540,439.251678 854.696533,442.478088 850.821472,443.544647 
	C846.748291,444.665710 843.688538,442.912476 841.309814,439.717743 
	C840.618713,438.789520 840.111938,437.724030 839.169922,436.034393 
M98.730156,477.965271 
	C113.411552,483.812195 123.475510,482.245178 132.307205,472.126831 
	C135.665939,468.278778 138.355652,463.789032 140.982941,459.373169 
	C145.398193,451.952209 149.406357,444.289093 153.817551,436.865601 
	C155.727158,433.652008 158.293060,430.730774 162.722031,432.207642 
	C167.079330,433.660522 168.743408,437.150208 168.978653,441.485321 
	C169.662415,454.085876 163.483627,460.668030 150.199707,461.128113 
	C147.905655,471.519318 145.591797,482.000214 143.206818,492.803345 
	C157.159164,495.937622 169.101517,492.768036 178.063232,481.943420 
	C192.017548,465.088379 195.886856,445.308533 191.608505,424.225037 
	C188.623505,409.515106 178.686646,400.991425 163.876129,398.455505 
	C150.208542,396.115265 140.666397,402.579895 133.859192,413.596985 
	C129.416687,420.786957 125.937675,428.565430 121.765991,435.932434 
	C119.572403,439.806183 117.205978,443.719940 114.213684,446.966949 
	C110.832916,450.635559 106.642952,449.366180 104.911858,444.732147 
	C101.358521,435.220093 108.651611,424.553375 118.890533,424.621643 
	C121.051125,414.696411 123.221062,404.728210 125.436554,394.550751 
	C111.044205,392.227051 99.498581,395.683167 91.369957,407.307312 
	C82.670013,419.748474 79.113716,433.837097 80.232346,448.890564 
	C81.160919,461.386475 86.489944,471.547089 98.730156,477.965271 
M221.397339,195.800980 
	C215.698502,201.164215 210.137604,206.686050 204.237534,211.817932 
	C201.631805,214.084381 201.449158,215.893433 202.775696,218.968826 
	C213.236710,243.221222 223.503021,267.557587 233.821655,291.871368 
	C237.748001,301.123016 241.654404,310.383118 245.783371,320.144073 
	C254.187775,312.252533 262.045105,304.874664 270.100159,297.311157 
	C268.284332,293.473083 266.691162,289.647552 264.692810,286.046875 
	C263.414764,283.744110 263.606171,282.281097 265.568726,280.495148 
	C272.339417,274.333679 278.873474,267.909393 285.731018,261.849304 
	C286.743500,260.954590 289.310394,260.852844 290.648376,261.476990 
	C294.379852,263.217590 297.843475,265.532410 301.588867,267.723480 
	C309.892975,259.917664 318.069336,252.231918 326.470978,244.334427 
	C325.458923,243.667297 324.949524,243.254715 324.377686,242.965530 
	C292.197205,226.690659 259.992401,210.463516 227.861328,194.091751 
	C225.195755,192.733582 223.588776,193.383972 221.397339,195.800980 
M226.637039,357.149445 
	C229.192719,352.688965 231.748413,348.228455 234.553391,343.332886 
	C211.580032,329.991943 188.789948,316.757416 165.795135,303.403992 
	C170.840729,294.643829 175.713501,286.183746 180.741119,277.454834 
	C172.626144,272.761841 164.793518,268.232178 156.769302,263.591705 
	C141.009323,290.782227 125.560509,317.435883 110.026894,344.235870 
	C118.340538,349.033813 126.037621,353.475891 133.988159,358.064270 
	C139.133713,349.266541 144.054337,340.853394 149.092438,332.239380 
	C172.252701,345.648041 195.006851,358.821594 217.931320,372.093719 
	C220.900406,366.951752 223.557190,362.350647 226.637039,357.149445 
M489.253357,883.875122 
	C482.385925,884.863098 475.518494,885.851013 469.706879,886.687073 
	C475.726379,893.238159 481.760834,900.107727 488.162750,906.615906 
	C490.549561,909.042480 491.224701,911.225952 490.577484,914.509216 
	C488.833282,923.357727 487.447937,932.276978 485.773132,942.023682 
	C494.454498,937.440125 502.304443,933.476440 509.961548,929.169861 
	C513.343384,927.267944 516.072327,927.244629 519.508179,929.206726 
	C527.175537,933.585510 535.115601,937.486694 543.611267,941.931335 
	C541.938416,931.923889 540.643066,922.877747 538.818726,913.939575 
	C538.148743,910.657288 539.196228,908.822937 541.342957,906.668091 
	C547.778259,900.208313 553.983521,893.519226 560.395264,886.797241 
	C551.948242,885.554138 543.150269,884.065186 534.298035,883.048584 
	C530.566101,882.619995 528.454895,881.196106 526.879089,877.720642 
	C523.147949,869.491882 518.947266,861.475952 514.688049,852.872375 
	C511.244751,859.845764 507.709839,865.924561 505.189423,872.398315 
	C502.401276,879.559937 498.446350,884.333618 489.253357,883.875122 
M673.170349,898.112610 
	C671.990784,891.060059 670.999512,883.968201 669.539856,876.974121 
	C668.947998,874.138367 669.641846,872.406799 671.588623,870.436829 
	C678.219299,863.726685 684.649658,856.818604 691.124756,850.019348 
	C682.288818,848.723938 672.942749,847.511047 663.673889,845.863586 
	C661.797424,845.530090 659.504211,843.934082 658.613098,842.271545 
	C654.102173,833.855286 649.990662,825.224915 645.469543,816.127258 
	C640.976074,825.218933 636.951294,833.787354 632.462036,842.105042 
	C631.505432,843.877502 629.000977,845.512939 626.966797,845.885376 
	C617.799866,847.563843 608.545532,848.765137 600.344604,849.986267 
	C605.073975,855.202820 609.403687,861.051147 614.801880,865.643372 
	C620.676819,870.641113 622.635803,875.690552 620.434021,883.261963 
	C618.454773,890.068115 617.943970,897.301270 616.644287,905.204224 
	C625.726868,900.428101 633.859314,896.288696 641.840820,891.876343 
	C644.455566,890.430908 646.470520,890.398254 649.119080,891.867188 
	C657.191223,896.344238 665.438599,900.505310 674.352905,905.174500 
	C673.903809,902.495422 673.605896,900.718018 673.170349,898.112610 
z"/>
<path fill="#FEFEFD" opacity="1.000000" stroke="none" 
	d="
M484.345245,195.435120 
	C470.009094,196.147156 456.084656,196.856201 441.633636,197.592072 
	C439.797852,161.877762 437.982971,126.569244 436.135010,90.617912 
	C445.247070,90.099899 454.133423,89.526825 463.026947,89.105690 
	C475.151917,88.531525 487.279419,87.836990 499.411957,87.686646 
	C503.980286,87.630028 508.707306,88.462067 513.113831,89.742760 
	C522.384766,92.437202 528.022644,98.964211 529.844666,108.371216 
	C531.722961,118.068794 529.560547,126.564545 521.009583,132.598251 
	C520.485474,132.968048 520.038391,133.446976 519.523926,133.903107 
	C523.038940,136.134171 526.810364,137.848969 529.733459,140.499313 
	C543.346313,152.841904 540.438110,177.047653 524.312256,187.674088 
	C516.369568,192.907990 507.442780,194.385910 498.205902,194.806152 
	C493.722717,195.010117 489.239929,195.223190 484.345245,195.435120 
M478.751129,150.132828 
	C476.699310,150.295761 474.647491,150.458694 472.472534,150.631424 
	C472.826935,157.549545 473.144196,163.742722 473.482971,170.355988 
	C481.396271,169.858826 488.691376,169.686340 495.913422,168.868591 
	C503.546936,168.004227 507.332397,160.684189 503.822113,154.189301 
	C501.380402,149.671585 496.973846,149.376419 492.589508,149.453613 
	C488.283386,149.529404 483.982361,149.892975 478.751129,150.132828 
M499.197449,122.251808 
	C498.988342,116.165291 497.653778,114.232048 491.806702,113.877785 
	C484.921295,113.460617 477.991272,113.779976 471.287231,113.779976 
	C471.287231,119.964775 471.287231,124.888466 471.287231,130.515701 
	C478.736267,129.997498 485.743652,129.985703 492.540894,128.784470 
	C494.988312,128.351959 496.930328,125.059662 499.197449,122.251808 
z"/>
<path fill="#F4F5ED" opacity="1.000000" stroke="none" 
	d="
M743.715088,335.255737 
	C778.525024,382.256226 798.299316,434.643982 803.833679,492.444489 
	C815.865479,618.105896 748.898804,739.750549 637.020020,795.308960 
	C599.074646,814.152466 558.910706,824.311951 516.481140,825.177307 
	C434.444366,826.850464 363.926880,798.725647 305.047241,742.014221 
	C255.048920,693.857056 224.833771,634.785767 215.417068,566.168640 
	C202.144638,469.455719 227.782928,383.609528 293.608917,311.093567 
	C339.572235,260.458923 397.042358,229.115936 464.868225,219.381241 
	C557.336853,206.109650 638.449768,232.102112 707.326172,295.058105 
	C720.520325,307.118134 731.492493,321.609100 743.715088,335.255737 
M352.710083,774.835327 
	C409.093567,810.913940 470.666168,826.407898 537.261047,819.663330 
	C604.612061,812.842163 662.996460,785.325806 710.485657,737.293152 
	C782.776611,664.174744 811.585999,575.611877 796.875427,473.942749 
	C785.756653,397.097107 748.944275,333.849884 688.892151,284.616608 
	C602.397400,213.704483 481.801941,200.151245 382.565552,249.598480 
	C265.414520,307.972168 199.198135,436.641602 219.960968,567.360657 
	C233.929855,655.306274 278.329010,724.376831 352.710083,774.835327 
z"/>
<path fill="#FDFEFD" opacity="1.000000" stroke="none" 
	d="
M321.943359,207.073364 
	C312.441101,185.096939 303.068359,163.477798 293.518494,141.450119 
	C294.738953,140.793961 295.803131,140.120590 296.944122,139.623520 
	C314.903534,131.799286 332.744141,123.677811 350.912689,116.372284 
	C356.910431,113.960617 363.772278,112.539543 370.218658,112.607162 
	C395.148560,112.868652 405.991058,144.670105 392.462463,160.915634 
	C405.207306,162.560242 412.058228,171.185013 417.602692,181.464157 
	C420.896210,187.570145 424.427856,193.547668 427.955811,199.765198 
	C418.521790,203.847580 408.678986,208.106857 398.099518,212.684921 
	C395.046387,207.642776 391.890778,202.808182 389.109100,197.767258 
	C380.549133,182.254974 377.333069,181.083649 361.081543,188.063095 
	C358.052582,189.363937 355.047882,190.721283 351.775146,192.165924 
	C356.735809,203.680634 361.568054,214.897324 366.508240,226.364532 
	C356.245361,230.807327 346.392456,235.072647 336.061310,239.544998 
	C331.310516,228.638214 326.691681,218.034424 321.943359,207.073364 
M366.277618,158.492584 
	C369.554596,154.210373 368.440643,150.065720 365.721558,146.107483 
	C362.857025,141.937561 358.438141,142.015778 354.484283,143.319000 
	C347.644165,145.573517 341.053955,148.586273 334.086151,151.390747 
	C337.032288,158.162781 339.717773,164.335693 342.808594,171.440308 
	C350.761169,167.165268 358.277130,163.124939 366.277618,158.492584 
z"/>
<path fill="#FDFEFD" opacity="1.000000" stroke="none" 
	d="
M803.858276,385.323700 
	C797.064331,375.409271 790.565552,365.742462 783.839539,356.236420 
	C782.081360,353.751556 781.977722,351.737091 783.189880,349.003571 
	C789.179688,335.495972 794.971497,321.900574 800.998962,307.952454 
	C794.182068,306.559418 788.021606,304.477661 781.703491,309.849182 
	C775.670654,314.978119 768.660767,318.957764 761.717041,323.690308 
	C755.444946,314.550079 749.357849,305.679413 742.914246,296.289215 
	C772.412903,276.112732 801.836243,255.987778 831.508728,235.692398 
	C837.760559,244.815933 843.858887,253.715378 850.294739,263.107452 
	C840.543579,269.809235 830.880981,276.450134 819.984009,283.939362 
	C827.658386,284.567017 834.092651,285.107330 840.529480,285.615356 
	C846.003784,286.047455 851.539307,287.139252 856.943115,286.687683 
	C864.702942,286.039276 869.059631,289.528290 872.837158,295.775421 
	C877.969727,304.263550 883.891357,312.274597 889.997070,321.259094 
	C876.737305,319.302368 864.435120,317.487183 852.133118,315.671448 
	C848.183594,315.088501 844.049500,315.051727 840.326782,313.795959 
	C834.263123,311.750549 832.552368,314.739441 830.712036,319.729187 
	C823.012573,340.605164 814.931885,361.340973 806.893066,382.090240 
	C806.372559,383.433716 805.029175,384.458374 803.858276,385.323700 
z"/>
<path fill="#FDFEFD" opacity="1.000000" stroke="none" 
	d="
M738.327271,157.526489 
	C763.680115,165.563812 780.416870,188.255249 778.814880,212.106720 
	C777.133484,237.140686 757.478394,261.691711 734.121155,266.924042 
	C710.849304,272.137238 692.027283,263.461273 677.699463,245.553864 
	C663.546143,227.864563 663.249329,208.057037 673.595520,188.466034 
	C684.123291,168.531387 700.116821,155.771927 723.710205,155.312286 
	C728.446960,155.220016 733.212952,156.630707 738.327271,157.526489 
M747.001709,210.255371 
	C749.357605,200.596832 746.707825,192.778046 739.420349,187.884720 
	C731.946533,182.866272 723.340149,183.274231 715.379211,189.351746 
	C707.805969,195.133255 702.407532,202.670532 699.177551,211.598526 
	C695.721375,221.151825 698.438721,230.373520 705.848877,235.652145 
	C713.115967,240.828888 722.319946,240.407104 730.338501,234.257812 
	C738.186951,228.238922 743.571167,220.376877 747.001709,210.255371 
z"/>
<path fill="#FEFEFD" opacity="1.000000" stroke="none" 
	d="
M657.235718,127.831970 
	C671.800171,157.331253 657.833679,196.306503 628.944946,208.523682 
	C602.385742,219.755676 554.327942,205.677048 553.355652,160.071655 
	C552.779419,133.043472 568.483521,106.548462 596.008850,100.512878 
	C619.313110,95.402863 645.379822,106.797241 657.235718,127.831970 
M589.855042,144.460541 
	C588.566772,151.253006 586.477722,158.011398 586.187012,164.846283 
	C585.798096,173.989929 591.548950,181.178940 599.621399,183.790100 
	C607.616089,186.376114 616.173645,183.530258 621.625732,176.155746 
	C627.747803,167.875092 630.655640,158.332825 630.646973,148.174774 
	C630.635376,134.591522 620.091858,124.995705 607.919556,127.183258 
	C598.605408,128.857132 593.663757,135.660828 589.855042,144.460541 
z"/>
<path fill="#FDFDFD" opacity="1.000000" stroke="none" 
	d="
M839.345337,436.377930 
	C840.111938,437.724030 840.618713,438.789520 841.309814,439.717743 
	C843.688538,442.912476 846.748291,444.665710 850.821472,443.544647 
	C854.696533,442.478088 855.753540,439.251678 855.933960,435.802490 
	C856.359741,427.663513 856.519165,419.511017 856.869446,411.367523 
	C857.055115,407.050385 857.094666,402.691559 857.749329,398.436005 
	C860.968994,377.505463 881.517822,367.113464 900.629333,376.627411 
	C909.922852,381.253845 915.736755,389.046417 919.619263,398.305023 
	C924.866516,410.818146 927.463440,423.827026 923.915344,437.270874 
	C920.807556,449.046600 912.611572,455.909241 900.695923,459.560822 
	C897.911804,449.440491 895.241394,439.733398 892.593872,430.109589 
	C901.618774,424.842010 903.030823,413.229523 895.807495,405.933136 
	C892.054016,402.141724 887.050903,403.144653 886.080688,408.646576 
	C884.910339,415.283752 885.198242,422.182251 884.911987,428.970032 
	C884.631958,435.611786 884.793640,442.295380 884.101379,448.891327 
	C882.932983,460.023254 878.078674,468.935059 867.048645,473.238586 
	C855.224182,477.852081 843.786377,477.399109 833.610474,469.200653 
	C821.282471,459.268250 815.425476,445.457886 813.232727,430.370972 
	C812.063782,422.328217 812.409912,413.700012 813.972900,405.707794 
	C816.570190,392.426697 825.948608,384.807770 839.188660,380.831055 
	C842.139404,391.525513 845.031372,402.007050 847.911194,412.444550 
	C836.455322,418.149231 834.708679,422.963440 839.345337,436.377930 
z"/>
<path fill="#FDFDFD" opacity="1.000000" stroke="none" 
	d="
M98.384064,477.813812 
	C86.489944,471.547089 81.160919,461.386475 80.232346,448.890564 
	C79.113716,433.837097 82.670013,419.748474 91.369957,407.307312 
	C99.498581,395.683167 111.044205,392.227051 125.436554,394.550751 
	C123.221062,404.728210 121.051125,414.696411 118.890533,424.621643 
	C108.651611,424.553375 101.358521,435.220093 104.911858,444.732147 
	C106.642952,449.366180 110.832916,450.635559 114.213684,446.966949 
	C117.205978,443.719940 119.572403,439.806183 121.765991,435.932434 
	C125.937675,428.565430 129.416687,420.786957 133.859192,413.596985 
	C140.666397,402.579895 150.208542,396.115265 163.876129,398.455505 
	C178.686646,400.991425 188.623505,409.515106 191.608505,424.225037 
	C195.886856,445.308533 192.017548,465.088379 178.063232,481.943420 
	C169.101517,492.768036 157.159164,495.937622 143.206818,492.803345 
	C145.591797,482.000214 147.905655,471.519318 150.199707,461.128113 
	C163.483627,460.668030 169.662415,454.085876 168.978653,441.485321 
	C168.743408,437.150208 167.079330,433.660522 162.722031,432.207642 
	C158.293060,430.730774 155.727158,433.652008 153.817551,436.865601 
	C149.406357,444.289093 145.398193,451.952209 140.982941,459.373169 
	C138.355652,463.789032 135.665939,468.278778 132.307205,472.126831 
	C123.475510,482.245178 113.411552,483.812195 98.384064,477.813812 
z"/>
<path fill="#FDFDFD" opacity="1.000000" stroke="none" 
	d="
M221.649780,195.540955 
	C223.588776,193.383972 225.195755,192.733582 227.861328,194.091751 
	C259.992401,210.463516 292.197205,226.690659 324.377686,242.965530 
	C324.949524,243.254715 325.458923,243.667297 326.470978,244.334427 
	C318.069336,252.231918 309.892975,259.917664 301.588867,267.723480 
	C297.843475,265.532410 294.379852,263.217590 290.648376,261.476990 
	C289.310394,260.852844 286.743500,260.954590 285.731018,261.849304 
	C278.873474,267.909393 272.339417,274.333679 265.568726,280.495148 
	C263.606171,282.281097 263.414764,283.744110 264.692810,286.046875 
	C266.691162,289.647552 268.284332,293.473083 270.100159,297.311157 
	C262.045105,304.874664 254.187775,312.252533 245.783371,320.144073 
	C241.654404,310.383118 237.748001,301.123016 233.821655,291.871368 
	C223.503021,267.557587 213.236710,243.221222 202.775696,218.968826 
	C201.449158,215.893433 201.631805,214.084381 204.237534,211.817932 
	C210.137604,206.686050 215.698502,201.164215 221.649780,195.540955 
M238.503891,231.831757 
	C243.113098,241.361526 247.722305,250.891312 252.525055,260.821259 
	C255.129578,258.425476 257.448914,256.314697 259.742279,254.176117 
	C262.103729,251.974060 264.439941,249.744934 266.999146,247.327454 
	C261.024261,243.775726 255.509384,240.382874 249.880264,237.191483 
	C246.120697,235.060013 242.198593,233.215225 238.503891,231.831757 
z"/>
<path fill="#FDFDFD" opacity="1.000000" stroke="none" 
	d="
M226.425507,357.449493 
	C223.557190,362.350647 220.900406,366.951752 217.931320,372.093719 
	C195.006851,358.821594 172.252701,345.648041 149.092438,332.239380 
	C144.054337,340.853394 139.133713,349.266541 133.988159,358.064270 
	C126.037621,353.475891 118.340538,349.033813 110.026894,344.235870 
	C125.560509,317.435883 141.009323,290.782227 156.769302,263.591705 
	C164.793518,268.232178 172.626144,272.761841 180.741119,277.454834 
	C175.713501,286.183746 170.840729,294.643829 165.795135,303.403992 
	C188.789948,316.757416 211.580032,329.991943 234.553391,343.332886 
	C231.748413,348.228455 229.192719,352.688965 226.425507,357.449493 
z"/>
<path fill="#FDFDFD" opacity="1.000000" stroke="none" 
	d="
M489.686768,883.809875 
	C498.446350,884.333618 502.401276,879.559937 505.189423,872.398315 
	C507.709839,865.924561 511.244751,859.845764 514.688049,852.872375 
	C518.947266,861.475952 523.147949,869.491882 526.879089,877.720642 
	C528.454895,881.196106 530.566101,882.619995 534.298035,883.048584 
	C543.150269,884.065186 551.948242,885.554138 560.395264,886.797241 
	C553.983521,893.519226 547.778259,900.208313 541.342957,906.668091 
	C539.196228,908.822937 538.148743,910.657288 538.818726,913.939575 
	C540.643066,922.877747 541.938416,931.923889 543.611267,941.931335 
	C535.115601,937.486694 527.175537,933.585510 519.508179,929.206726 
	C516.072327,927.244629 513.343384,927.267944 509.961548,929.169861 
	C502.304443,933.476440 494.454498,937.440125 485.773132,942.023682 
	C487.447937,932.276978 488.833282,923.357727 490.577484,914.509216 
	C491.224701,911.225952 490.549561,909.042480 488.162750,906.615906 
	C481.760834,900.107727 475.726379,893.238159 469.706879,886.687073 
	C475.518494,885.851013 482.385925,884.863098 489.686768,883.809875 
z"/>
<path fill="#FCFDFC" opacity="1.000000" stroke="none" 
	d="
M673.239136,898.526611 
	C673.605896,900.718018 673.903809,902.495422 674.352905,905.174500 
	C665.438599,900.505310 657.191223,896.344238 649.119080,891.867188 
	C646.470520,890.398254 644.455566,890.430908 641.840820,891.876343 
	C633.859314,896.288696 625.726868,900.428101 616.644287,905.204224 
	C617.943970,897.301270 618.454773,890.068115 620.434021,883.261963 
	C622.635803,875.690552 620.676819,870.641113 614.801880,865.643372 
	C609.403687,861.051147 605.073975,855.202820 600.344604,849.986267 
	C608.545532,848.765137 617.799866,847.563843 626.966797,845.885376 
	C629.000977,845.512939 631.505432,843.877502 632.462036,842.105042 
	C636.951294,833.787354 640.976074,825.218933 645.469543,816.127258 
	C649.990662,825.224915 654.102173,833.855286 658.613098,842.271545 
	C659.504211,843.934082 661.797424,845.530090 663.673889,845.863586 
	C672.942749,847.511047 682.288818,848.723938 691.124756,850.019348 
	C684.649658,856.818604 678.219299,863.726685 671.588623,870.436829 
	C669.641846,872.406799 668.947998,874.138367 669.539856,876.974121 
	C670.999512,883.968201 671.990784,891.060059 673.239136,898.526611 
z"/>
<path fill="#FDFDFD" opacity="1.000000" stroke="none" 
	d="
M349.013580,904.009644 
	C350.375183,894.995911 351.506042,885.937927 353.224060,876.992615 
	C353.822662,873.875854 352.937836,872.202759 350.890228,870.169434 
	C344.315277,863.639771 337.960693,856.888245 331.396606,850.093384 
	C340.188599,848.769836 349.127594,847.147461 358.137604,846.200562 
	C361.868378,845.808472 363.608276,844.224976 365.073669,841.061768 
	C368.826843,832.960022 372.895538,825.004517 377.274597,816.103333 
	C381.573669,824.793335 385.612488,832.650940 389.347687,840.650330 
	C390.957703,844.098450 392.852997,845.924194 397.026733,846.305542 
	C405.784088,847.105713 414.462097,848.774048 423.078339,850.071655 
	C418.305756,855.139099 414.030457,860.895874 408.582733,865.152039 
	C401.908295,870.366516 400.103729,875.923401 402.459442,883.981873 
	C404.398590,890.615356 404.931854,897.659729 406.207153,905.228088 
	C397.697571,900.755981 389.732056,896.709229 381.915039,892.393494 
	C378.776276,890.660522 376.235992,890.296570 372.869019,892.233582 
	C365.250092,896.616882 357.315826,900.452026 349.234985,904.241394 
	C348.960144,903.972717 349.013580,904.009644 349.013580,904.009644 
z"/>
<path fill="#FDFDFD" opacity="1.000000" stroke="none" 
	d="
M348.931091,903.958252 
	C348.978821,904.061279 349.055573,904.178833 349.132324,904.296326 
	C348.983826,904.239380 348.835327,904.182434 348.850220,904.067566 
	C349.013580,904.009644 348.960144,903.972717 348.931091,903.958252 
z"/>
<path fill="#0D5E2F" opacity="1.000000" stroke="none" 
	d="
M479.215088,150.131546 
	C483.982361,149.892975 488.283386,149.529404 492.589508,149.453613 
	C496.973846,149.376419 501.380402,149.671585 503.822113,154.189301 
	C507.332397,160.684189 503.546936,168.004227 495.913422,168.868591 
	C488.691376,169.686340 481.396271,169.858826 473.482971,170.355988 
	C473.144196,163.742722 472.826935,157.549545 472.472534,150.631424 
	C474.647491,150.458694 476.699310,150.295761 479.215088,150.131546 
z"/>
<path fill="#0D5E2F" opacity="1.000000" stroke="none" 
	d="
M499.150208,122.662125 
	C496.930328,125.059662 494.988312,128.351959 492.540894,128.784470 
	C485.743652,129.985703 478.736267,129.997498 471.287231,130.515701 
	C471.287231,124.888466 471.287231,119.964775 471.287231,113.779976 
	C477.991272,113.779976 484.921295,113.460617 491.806702,113.877785 
	C497.653778,114.232048 498.988342,116.165291 499.150208,122.662125 
z"/>
<path fill="#0A5C2D" opacity="1.000000" stroke="none" 
	d="
M352.416016,774.623291 
	C278.329010,724.376831 233.929855,655.306274 219.960968,567.360657 
	C199.198135,436.641602 265.414520,307.972168 382.565552,249.598480 
	C481.801941,200.151245 602.397400,213.704483 688.892151,284.616608 
	C748.944275,333.849884 785.756653,397.097107 796.875427,473.942749 
	C811.585999,575.611877 782.776611,664.174744 710.485657,737.293152 
	C662.996460,785.325806 604.612061,812.842163 537.261047,819.663330 
	C470.666168,826.407898 409.093567,810.913940 352.416016,774.623291 
M576.489258,791.031250 
	C626.734802,777.325195 669.846436,751.536926 704.683838,712.920105 
	C766.199280,644.731140 789.338501,564.472107 775.512512,474.080231 
	C766.002014,411.902435 737.786377,358.608795 691.863342,315.478729 
	C631.764832,259.035370 560.155762,234.555130 478.142029,243.362915 
	C416.748444,249.956223 363.730591,275.980194 320.545349,319.959534 
	C252.972519,388.774902 226.215088,472.191467 241.642059,566.922485 
	C257.102051,661.856018 309.308075,732.159241 396.186737,774.529480 
	C453.479187,802.470703 513.866150,807.006104 576.489258,791.031250 
z"/>
<path fill="#0A5C2D" opacity="1.000000" stroke="none" 
	d="
M366.035339,158.788605 
	C358.277130,163.124939 350.761169,167.165268 342.808594,171.440308 
	C339.717773,164.335693 337.032288,158.162781 334.086151,151.390747 
	C341.053955,148.586273 347.644165,145.573517 354.484283,143.319000 
	C358.438141,142.015778 362.857025,141.937561 365.721558,146.107483 
	C368.440643,150.065720 369.554596,154.210373 366.035339,158.788605 
z"/>
<path fill="#095C2C" opacity="1.000000" stroke="none" 
	d="
M746.922607,210.656265 
	C743.571167,220.376877 738.186951,228.238922 730.338501,234.257812 
	C722.319946,240.407104 713.115967,240.828888 705.848877,235.652145 
	C698.438721,230.373520 695.721375,221.151825 699.177551,211.598526 
	C702.407532,202.670532 707.805969,195.133255 715.379211,189.351746 
	C723.340149,183.274231 731.946533,182.866272 739.420349,187.884720 
	C746.707825,192.778046 749.357605,200.596832 746.922607,210.656265 
z"/>
<path fill="#095C2C" opacity="1.000000" stroke="none" 
	d="
M589.968628,144.095551 
	C593.663757,135.660828 598.605408,128.857132 607.919556,127.183258 
	C620.091858,124.995705 630.635376,134.591522 630.646973,148.174774 
	C630.655640,158.332825 627.747803,167.875092 621.625732,176.155746 
	C616.173645,183.530258 607.616089,186.376114 599.621399,183.790100 
	C591.548950,181.178940 585.798096,173.989929 586.187012,164.846283 
	C586.477722,158.011398 588.566772,151.253006 589.968628,144.095551 
z"/>
<path fill="#105F30" opacity="1.000000" stroke="none" 
	d="
M238.426559,231.536957 
	C242.198593,233.215225 246.120697,235.060013 249.880264,237.191483 
	C255.509384,240.382874 261.024261,243.775726 266.999146,247.327454 
	C264.439941,249.744934 262.103729,251.974060 259.742279,254.176117 
	C257.448914,256.314697 255.129578,258.425476 252.525055,260.821259 
	C247.722305,250.891312 243.113098,241.361526 238.426559,231.536957 
z"/>
<path fill="#FCFDFC" opacity="1.000000" stroke="none" 
	d="
M576.085876,791.101929 
	C513.866150,807.006104 453.479187,802.470703 396.186737,774.529480 
	C309.308075,732.159241 257.102051,661.856018 241.642059,566.922485 
	C226.215088,472.191467 252.972519,388.774902 320.545349,319.959534 
	C363.730591,275.980194 416.748444,249.956223 478.142029,243.362915 
	C560.155762,234.555130 631.764832,259.035370 691.863342,315.478729 
	C737.786377,358.608795 766.002014,411.902435 775.512512,474.080231 
	C789.338501,564.472107 766.199280,644.731140 704.683838,712.920105 
	C669.846436,751.536926 626.734802,777.325195 576.085876,791.101929 
M379.148529,376.999908 
	C390.609283,377.035370 402.070190,377.104706 413.530548,377.053436 
	C414.667694,377.048340 415.801575,376.307159 416.988953,374.983215 
	C416.988953,343.693390 416.988953,312.403595 416.988953,281.113770 
	C416.528503,280.709381 416.068054,280.304962 415.607574,279.900574 
	C403.676636,286.900146 391.745697,293.899719 379.249054,301.038849 
	C378.819122,301.407196 378.389221,301.775574 377.210114,302.147644 
	C374.579285,303.286560 373.912720,305.257355 373.930450,308.093506 
	C374.056702,328.257751 373.997589,348.423187 373.997498,368.588226 
	C373.997498,370.362152 373.997498,372.136078 373.997498,373.898865 
	C362.821686,373.898865 352.230164,373.898865 341.114380,373.898865 
	C341.114380,359.965851 341.114380,346.285400 341.114380,332.604919 
	C340.587280,332.469360 340.060150,332.333832 339.533051,332.198273 
	C338.687897,334.438873 337.149200,336.668030 337.112061,338.921967 
	C336.897797,351.916473 337.038544,364.916870 337.417236,378.705231 
	C350.442413,378.822784 363.467529,378.951996 376.493011,379.014709 
	C377.005035,379.017151 377.520172,378.384399 378.150543,377.587616 
	C378.150543,377.587616 378.250977,377.123779 379.148529,376.999908 
M377.498352,666.261353 
	C376.987000,666.846924 376.475616,667.432556 375.044403,667.851074 
	C363.150177,667.851074 351.255951,667.851074 339.005829,667.851074 
	C339.005829,678.103943 338.956177,687.867859 339.071625,697.629761 
	C339.085297,698.788086 339.685608,700.317627 340.547272,701.030701 
	C352.268127,710.730591 364.083160,720.316711 376.482086,730.059143 
	C376.893982,730.073425 377.305908,730.087769 377.877625,730.814514 
	C379.002716,731.840454 380.127808,732.866394 382.047852,734.617249 
	C382.047852,712.422485 382.047852,691.376038 382.047852,670.371460 
	C393.207916,670.371460 403.916351,670.371460 414.827484,670.371460 
	C414.827484,672.565430 414.827454,674.383423 414.827484,676.201416 
	C414.827942,700.034363 414.844910,723.867249 414.806946,747.700134 
	C414.802460,750.510986 414.681274,753.184082 418.718506,752.949890 
	C418.718506,723.971191 418.718506,695.044434 418.718506,666.015381 
	C404.975494,666.015381 391.507996,666.015381 377.498352,666.261353 
M576.797668,763.070129 
	C580.527527,763.127319 581.812988,761.543945 581.785767,757.604309 
	C581.599548,730.630127 581.688171,703.654114 581.688232,676.678650 
	C581.688232,674.904419 581.688232,673.130249 581.688232,671.281128 
	C587.445801,671.281128 592.654602,671.281128 598.275452,671.281128 
	C598.275452,699.652161 598.275452,727.672546 598.275452,755.711731 
	C602.425232,755.700562 602.734009,753.345520 602.726501,750.350464 
	C602.659607,723.708252 602.693726,697.065735 602.669739,670.423340 
	C602.668579,669.161865 602.400635,667.900635 602.251770,666.593506 
	C593.771484,666.593506 585.681519,666.593506 577.071960,666.593506 
	C577.071960,668.485474 577.072021,670.100708 577.072021,671.716003 
	C577.071838,686.868835 577.105164,702.021912 577.023926,717.174316 
	C577.014954,718.840881 576.348328,720.503845 575.068054,721.980042 
	C561.710754,721.989441 548.353394,721.998840 534.998413,721.069946 
	C534.998413,703.646667 534.998413,686.223389 534.998413,668.680054 
	C512.969421,668.680054 491.558167,668.680054 469.631226,668.680054 
	C466.526428,700.796326 463.347565,733.678772 460.127716,766.985046 
	C469.653992,768.482422 478.612091,769.890442 487.923431,771.354065 
	C491.055115,739.358154 494.114075,708.105774 497.173004,676.853333 
	C497.425079,676.867126 497.677185,676.880981 497.929260,676.894775 
	C497.929260,708.445068 497.929260,739.995361 497.929260,772.726929 
	C510.532074,772.045654 522.746582,771.385376 535.823669,770.836548 
	C538.795349,771.511780 540.037781,770.544067 539.953491,767.293152 
	C539.763855,759.975586 539.894104,752.649841 539.894104,745.327393 
	C539.894165,739.075500 539.894104,732.823608 539.894104,726.483154 
	C550.981506,726.483154 561.395264,726.483154 572.367126,726.483154 
	C572.367126,739.087830 572.367126,751.461670 572.367126,764.541260 
	C574.065186,763.774780 575.026855,763.340698 576.797668,763.070129 
M537.619507,377.126862 
	C537.619507,377.126862 538.037598,376.971100 538.955200,377.151031 
	C550.844055,377.151031 562.732971,377.151031 574.632935,377.151031 
	C574.632935,340.777618 574.632935,305.202789 574.632935,268.433044 
	C562.390076,266.584808 550.156677,264.738007 537.552368,262.742432 
	C537.552368,262.742432 537.160522,262.819519 536.537659,262.273010 
	C535.410950,262.273010 534.284241,262.273010 532.749695,262.273010 
	C532.749695,299.774048 532.749695,337.168365 532.749695,374.699738 
	C521.634094,374.699738 510.928802,374.699738 499.785095,374.699738 
	C499.785095,336.707336 499.785095,299.018799 499.785095,261.447815 
	C495.193054,260.764618 495.824829,263.672577 495.825134,266.149231 
	C495.829407,302.445282 495.824951,338.741364 495.841827,375.037415 
	C495.842407,376.291840 496.042145,377.546204 496.165497,378.993866 
	C509.143768,378.993866 521.779358,379.032654 534.413452,378.914032 
	C535.338928,378.905365 536.253784,377.758484 537.619507,377.126862 
M431.999207,487.500000 
	C431.999207,532.613892 431.999207,577.727783 431.999207,622.289368 
	C465.700165,623.339417 498.866791,624.372803 532.374084,625.416870 
	C537.971069,567.650879 543.551147,510.059265 549.131165,452.467651 
	C549.448792,452.483002 549.766357,452.498352 550.083984,452.513702 
	C550.083984,509.582886 550.083984,566.652039 550.083984,623.750610 
	C562.650574,623.750610 574.738403,623.750610 586.778687,623.750610 
	C586.778687,556.135498 586.778687,488.771301 586.778687,422.131287 
	C553.884216,420.295258 521.436890,418.484161 488.598785,416.651276 
	C482.339050,481.180389 476.131775,545.168579 469.924530,609.156799 
	C469.587280,609.135620 469.250031,609.114441 468.912781,609.093262 
	C468.912781,546.337524 468.912781,483.581818 468.912781,420.738953 
	C456.435577,420.738953 444.342865,420.738953 431.999207,420.738953 
	C431.999207,442.852875 431.999207,464.676453 431.999207,487.500000 
M712.165710,545.500000 
	C712.165710,571.590027 712.165710,597.679993 712.165710,623.999084 
	C719.322327,623.999084 725.819092,623.786560 732.291870,624.088013 
	C735.569519,624.240662 736.873413,622.899841 738.055298,620.102356 
	C757.871277,573.199951 763.546997,524.578491 755.749512,474.362518 
	C753.144531,457.585968 748.913025,441.189301 742.761841,425.418396 
	C732.561462,425.418396 722.620300,425.418396 712.166016,425.418396 
	C712.166016,465.279877 712.166016,504.889923 712.165710,545.500000 
M286.401520,477.499847 
	C286.401794,523.998108 286.402069,570.496399 286.402588,616.994629 
	C286.402588,618.161255 286.404144,619.327881 286.406708,620.494507 
	C286.415100,624.307129 287.862274,626.019226 292.129608,625.966064 
	C310.459442,625.737671 328.793701,625.868347 347.126373,625.868286 
	C349.755341,625.868225 352.384277,625.868286 355.182861,625.868286 
	C355.182861,559.408875 355.182861,493.384613 355.182861,427.380951 
	C332.157532,427.380951 309.550507,427.380951 286.401489,427.380951 
	C286.401489,443.916565 286.401489,460.208191 286.401520,477.499847 
M717.406982,644.994202 
	C720.389221,644.570801 724.616394,645.219666 726.095825,643.501953 
	C729.224792,639.868958 730.918640,634.999939 733.429749,630.200928 
	C585.383911,630.200928 438.053864,630.200928 290.104614,630.200928 
	C291.770477,633.517334 293.495178,636.348938 294.652252,639.396118 
	C296.367706,643.913696 299.206451,645.132141 304.081726,645.126343 
	C441.530823,644.962097 578.980164,644.994263 717.406982,644.994202 
M544.500000,383.161560 
	C537.167542,383.161591 529.835022,383.161621 522.502563,383.161591 
	C450.177185,383.161407 377.851837,383.155304 305.526489,383.196533 
	C303.786530,383.197510 301.140900,383.115265 300.464355,384.116699 
	C297.578094,388.389221 295.273773,393.054901 292.564362,397.923462 
	C439.082428,397.923462 584.647461,397.923462 730.818359,397.923462 
	C728.870911,394.285919 726.962463,391.184021 725.508850,387.881897 
	C723.904480,384.237335 721.573364,383.043457 717.480713,383.054657 
	C660.154114,383.211975 602.827026,383.161499 544.500000,383.161560 
M358.427765,441.547363 
	C358.427765,501.983063 358.427765,562.418762 358.427765,622.836792 
	C368.104218,622.836792 377.167023,622.836792 386.151306,622.836792 
	C386.151306,558.775085 386.151306,495.071960 386.151306,431.417969 
	C376.793335,431.417969 367.859894,431.417969 358.427826,431.417969 
	C358.427826,434.642487 358.427826,437.605865 358.427765,441.547363 
M626.831604,595.500000 
	C626.831604,556.075500 626.831604,516.651001 626.831604,477.141510 
	C614.216553,477.141510 602.161682,477.141510 590.076050,477.141510 
	C590.076050,526.179749 590.076050,574.900269 590.076050,623.693848 
	C602.386963,623.693848 614.442749,623.693848 626.831543,623.693848 
	C626.831543,614.428955 626.831543,605.464478 626.831604,595.500000 
M652.850037,479.500031 
	C652.850037,460.223755 652.850037,440.947479 652.850037,421.518250 
	C645.487976,421.518250 638.634766,421.518250 631.670532,421.518250 
	C631.670532,489.122681 631.670532,556.357605 631.670532,623.678711 
	C638.800964,623.678711 645.682312,623.678711 652.850220,623.678711 
	C652.850220,575.731567 652.850220,528.115845 652.850037,479.500031 
M604.991028,376.822968 
	C621.186035,376.822968 637.381104,376.822968 653.838745,376.822968 
	C653.838745,359.460236 653.878784,342.511658 653.817383,325.563507 
	C653.795227,319.455750 655.503418,312.219818 652.833313,307.551178 
	C650.021667,302.635071 643.117981,299.823700 637.649292,296.713074 
	C627.059448,290.689545 616.222046,285.101196 604.537598,278.822174 
	C604.537598,312.258331 604.537598,344.135376 604.991028,376.822968 
M326.500000,404.975891 
	C316.005646,404.975861 305.489807,405.378204 295.025391,404.818451 
	C289.146301,404.503937 287.198242,407.215729 286.333527,412.107117 
	C436.655945,412.107117 586.869385,412.107117 736.955261,412.107117 
	C736.463013,405.928741 733.143494,404.849396 727.786682,404.855560 
	C594.357910,405.008820 460.928925,404.975830 326.500000,404.975891 
M629.172729,741.667969 
	C632.876709,739.453979 636.412598,736.869873 640.316895,735.097168 
	C651.013855,730.240479 655.478088,722.874939 654.134338,710.590637 
	C652.790222,698.302856 653.839294,685.753296 653.839294,673.145752 
	C637.179871,673.145752 621.000305,673.145752 604.825684,673.145752 
	C604.825684,699.968750 604.825684,726.460571 604.825684,753.911255 
	C613.177979,749.708130 620.844910,745.849976 629.172729,741.667969 
M542.500000,652.129822 
	C462.616028,652.129822 382.732086,652.129822 302.463837,652.129822 
	C304.504211,657.774231 307.289642,660.041321 313.252899,660.031860 
	C445.752197,659.820618 578.251953,659.870056 710.751587,659.869873 
	C717.635315,659.869873 718.485596,659.205566 720.511658,652.129883 
	C661.478577,652.129883 602.489319,652.129883 542.500000,652.129822 
M461.800751,266.178955 
	C461.213989,268.514923 460.325409,270.820587 460.087280,273.191559 
	C457.795319,296.010040 455.601532,318.838379 453.404083,341.666290 
	C452.342133,352.698364 451.332245,363.735413 450.263947,375.142426 
	C459.679810,375.992554 468.716766,376.808502 478.236603,377.668060 
	C481.974182,338.990143 485.672516,300.718811 489.450104,261.627075 
	C479.919434,263.191864 471.275330,264.611084 461.800751,266.178955 
M453.857269,302.359528 
	C454.943237,290.802979 456.029175,279.246399 457.197479,266.813629 
	C447.704773,269.759644 438.953552,272.346069 430.330231,275.305176 
	C429.169220,275.703552 428.079285,277.918182 427.923737,279.393768 
	C425.883270,298.751953 423.999786,318.126801 422.113159,337.501038 
	C420.971680,349.223083 419.893097,360.951202 418.743805,373.126007 
	C428.213654,373.966766 437.236481,374.767822 446.657928,375.604279 
	C449.076080,351.198792 451.450287,327.236786 453.857269,302.359528 
M437.819336,670.434631 
	C434.975677,699.512878 432.132019,728.591187 429.255280,758.007629 
	C438.580750,760.786926 447.456573,763.432251 456.744263,766.200317 
	C459.945984,733.076233 463.086548,700.585022 466.248322,667.874146 
	C457.719818,667.143799 449.903473,666.729248 442.168976,665.699768 
	C438.551483,665.218262 437.671173,666.474548 437.819336,670.434631 
M389.080902,464.500000 
	C389.080902,517.912964 389.080902,571.325928 389.080902,625.009766 
	C403.018219,625.009766 416.591248,625.009766 430.332458,625.009766 
	C430.332458,556.135132 430.332458,487.481354 430.332458,418.699341 
	C416.441040,418.699341 402.896057,418.699341 389.080627,418.699341 
	C389.080627,433.881836 389.080627,448.690918 389.080902,464.500000 
M582.748596,271.740112 
	C581.665100,271.515747 580.581543,271.291382 579.536133,271.074890 
	C579.536133,306.561035 579.536133,341.759369 579.536133,376.879852 
	C586.679016,376.879852 593.429565,376.879852 600.069824,376.879852 
	C600.290283,376.261505 600.494934,375.955078 600.495300,375.648438 
	C600.529297,344.007416 600.582092,312.366241 600.444397,280.725922 
	C600.438782,279.441650 598.891296,277.538177 597.609314,276.998108 
	C593.027405,275.067780 588.250061,273.601227 582.748596,271.740112 
M282.181824,602.351807 
	C282.181824,545.410706 282.181824,488.469666 282.181824,431.528564 
	C281.653198,431.230103 281.124573,430.931641 280.595947,430.633179 
	C279.455994,432.073639 277.772552,433.342194 277.254639,434.979431 
	C259.141113,492.242096 259.844666,549.244263 279.890747,605.930420 
	C280.327637,607.165833 280.935974,608.340576 281.464355,609.543640 
	C281.703461,609.453674 281.942566,609.363647 282.181671,609.273682 
	C282.181671,607.281006 282.181671,605.288330 282.181824,602.351807 
M683.499939,377.173035 
	C690.584167,377.173035 697.668396,377.173035 704.995911,377.173035 
	C704.995911,371.890747 704.754089,367.232880 705.069885,362.613129 
	C705.338989,358.675446 704.307556,355.541199 701.528992,352.750763 
	C689.685913,340.857147 677.984497,328.821533 666.065613,317.004913 
	C663.234070,314.197632 659.761963,312.036377 656.294739,309.353729 
	C656.294739,332.418823 656.294739,354.670380 656.294739,377.172974 
	C665.222229,377.172974 673.861145,377.172974 683.499939,377.173035 
M697.467529,423.157288 
	C683.368652,423.157288 669.269714,423.157288 655.061707,423.157288 
	C655.061707,490.951385 655.061707,558.153564 655.061707,625.599854 
	C672.706421,625.599854 690.101685,625.599854 707.683594,625.599854 
	C707.683594,558.097229 707.683594,490.781433 707.683594,423.157196 
	C704.394348,423.157196 701.423584,423.157196 697.467529,423.157288 
M682.679810,701.180542 
	C689.464050,693.641846 696.301270,686.149597 702.982544,678.520813 
	C704.154297,677.182861 704.671936,675.272095 705.786255,673.034241 
	C688.651184,673.034241 672.572327,673.034241 656.437988,673.034241 
	C656.437988,689.957764 656.437988,706.718140 656.437988,724.735718 
	C665.597168,716.532532 673.888428,709.106689 682.679810,701.180542 
M333.025635,376.476624 
	C333.358917,376.145691 333.982147,375.816010 333.983551,375.483673 
	C334.033569,363.608063 334.025482,351.732208 334.025482,338.894501 
	C323.064911,350.702301 313.735565,362.497284 304.919220,376.556580 
	C314.964386,376.556580 323.529602,376.556580 333.025635,376.476624 
M326.933807,686.571960 
	C329.082977,688.971436 331.232178,691.370850 333.891174,694.339539 
	C333.891174,688.524841 333.891174,683.661011 333.891174,678.666626 
	C329.501465,678.666626 325.436981,678.666626 320.374420,678.666626 
	C322.760040,681.543579 324.618805,683.785095 326.933807,686.571960 
M708.060669,376.273193 
	C711.412537,376.653503 714.764343,377.033813 719.482605,377.569153 
	C715.306824,371.539307 712.091125,366.895782 708.001099,360.989716 
	C708.001099,366.821014 708.001099,371.070312 708.060669,376.273193 
z"/>
<path fill="#046735" opacity="1.000000" stroke="none" 
	d="
M431.999207,487.000000 
	C431.999207,464.676453 431.999207,442.852875 431.999207,420.738953 
	C444.342865,420.738953 456.435577,420.738953 468.912781,420.738953 
	C468.912781,483.581818 468.912781,546.337524 468.912781,609.093262 
	C469.250031,609.114441 469.587280,609.135620 469.924530,609.156799 
	C476.131775,545.168579 482.339050,481.180389 488.598785,416.651276 
	C521.436890,418.484161 553.884216,420.295258 586.778687,422.131287 
	C586.778687,488.771301 586.778687,556.135498 586.778687,623.750610 
	C574.738403,623.750610 562.650574,623.750610 550.083984,623.750610 
	C550.083984,566.652039 550.083984,509.582886 550.083984,452.513702 
	C549.766357,452.498352 549.448792,452.483002 549.131165,452.467651 
	C543.551147,510.059265 537.971069,567.650879 532.374084,625.416870 
	C498.866791,624.372803 465.700165,623.339417 431.999207,622.289368 
	C431.999207,577.727783 431.999207,532.613892 431.999207,487.000000 
M515.829895,508.354065 
	C512.196228,545.502686 508.562561,582.651306 504.912994,619.962341 
	C513.050415,620.705322 520.469055,621.382629 528.381897,622.105103 
	C534.757446,556.164062 541.099365,490.570526 547.467896,424.701447 
	C539.256592,423.978363 531.859985,423.327026 524.044373,422.638794 
	C521.286865,451.204926 518.572754,479.321808 515.829895,508.354065 
M486.400940,619.127258 
	C489.813660,619.424377 493.226379,619.721558 496.858276,620.037842 
	C503.244690,554.045532 509.583801,488.541931 515.959900,422.655792 
	C507.987305,421.974792 500.446136,421.330627 492.510040,420.652740 
	C486.127991,486.708191 479.803833,552.164246 473.451935,617.907593 
	C477.911896,618.315857 481.702240,618.662903 486.400940,619.127258 
z"/>
<path fill="#036634" opacity="1.000000" stroke="none" 
	d="
M712.165894,545.000000 
	C712.166016,504.889923 712.166016,465.279877 712.166016,425.418396 
	C722.620300,425.418396 732.561462,425.418396 742.761841,425.418396 
	C748.913025,441.189301 753.144531,457.585968 755.749512,474.362518 
	C763.546997,524.578491 757.871277,573.199951 738.055298,620.102356 
	C736.873413,622.899841 735.569519,624.240662 732.291870,624.088013 
	C725.819092,623.786560 719.322327,623.999084 712.165710,623.999084 
	C712.165710,597.679993 712.165710,571.590027 712.165894,545.000000 
z"/>
<path fill="#136D3C" opacity="1.000000" stroke="none" 
	d="
M286.401489,476.999847 
	C286.401489,460.208191 286.401489,443.916565 286.401489,427.380951 
	C309.550507,427.380951 332.157532,427.380951 355.182861,427.380951 
	C355.182861,493.384613 355.182861,559.408875 355.182861,625.868286 
	C352.384277,625.868286 349.755341,625.868225 347.126373,625.868286 
	C328.793701,625.868347 310.459442,625.737671 292.129608,625.966064 
	C287.862274,626.019226 286.415100,624.307129 286.406708,620.494507 
	C286.404144,619.327881 286.402588,618.161255 286.402588,616.994629 
	C286.402069,570.496399 286.401794,523.998108 286.401489,476.999847 
M347.123260,442.533173 
	C347.123260,440.281769 347.123260,438.030334 347.123260,435.966980 
	C340.297028,435.966980 334.227875,435.966980 328.070312,435.966980 
	C328.070312,497.048431 328.070312,557.771729 328.070312,618.660767 
	C334.481110,618.660767 340.695007,618.660767 347.122986,618.660767 
	C347.122986,560.077942 347.122986,501.803986 347.123260,442.533173 
M294.876923,595.500000 
	C294.876923,603.248047 294.876923,610.996094 294.876923,618.706116 
	C301.628448,618.706116 307.715332,618.706116 313.801147,618.706116 
	C313.801147,557.581970 313.801147,496.722290 313.801147,435.912415 
	C307.397980,435.912415 301.321777,435.912415 294.876740,435.912415 
	C294.876740,488.976227 294.876740,541.738098 294.876923,595.500000 
z"/>
<path fill="#036634" opacity="1.000000" stroke="none" 
	d="
M534.961060,770.725098 
	C522.746582,771.385376 510.532074,772.045654 497.929260,772.726929 
	C497.929260,739.995361 497.929260,708.445068 497.929260,676.894775 
	C497.677185,676.880981 497.425079,676.867126 497.173004,676.853333 
	C494.114075,708.105774 491.055115,739.358154 487.923431,771.354065 
	C478.612091,769.890442 469.653992,768.482422 460.127716,766.985046 
	C463.347565,733.678772 466.526428,700.796326 469.631226,668.680054 
	C491.558167,668.680054 512.969421,668.680054 534.998413,668.680054 
	C534.998413,686.223389 534.998413,703.646667 534.960938,722.006165 
	C534.936035,738.869934 534.948547,754.797546 534.961060,770.725098 
z"/>
<path fill="#006533" opacity="1.000000" stroke="none" 
	d="
M716.918213,644.994202 
	C578.980164,644.994263 441.530823,644.962097 304.081726,645.126343 
	C299.206451,645.132141 296.367706,643.913696 294.652252,639.396118 
	C293.495178,636.348938 291.770477,633.517334 290.104614,630.200928 
	C438.053864,630.200928 585.383911,630.200928 733.429749,630.200928 
	C730.918640,634.999939 729.224792,639.868958 726.095825,643.501953 
	C724.616394,645.219666 720.389221,644.570801 716.918213,644.994202 
z"/>
<path fill="#066735" opacity="1.000000" stroke="none" 
	d="
M545.000000,383.161560 
	C602.827026,383.161499 660.154114,383.211975 717.480713,383.054657 
	C721.573364,383.043457 723.904480,384.237335 725.508850,387.881897 
	C726.962463,391.184021 728.870911,394.285919 730.818359,397.923462 
	C584.647461,397.923462 439.082428,397.923462 292.564362,397.923462 
	C295.273773,393.054901 297.578094,388.389221 300.464355,384.116699 
	C301.140900,383.115265 303.786530,383.197510 305.526489,383.196533 
	C377.851837,383.155304 450.177185,383.161407 522.502563,383.161591 
	C529.835022,383.161621 537.167542,383.161591 545.000000,383.161560 
z"/>
<path fill="#0A6A39" opacity="1.000000" stroke="none" 
	d="
M358.427795,441.058289 
	C358.427826,437.605865 358.427826,434.642487 358.427826,431.417969 
	C367.859894,431.417969 376.793335,431.417969 386.151306,431.417969 
	C386.151306,495.071960 386.151306,558.775085 386.151306,622.836792 
	C377.167023,622.836792 368.104218,622.836792 358.427765,622.836792 
	C358.427765,562.418762 358.427765,501.983063 358.427795,441.058289 
z"/>
<path fill="#026634" opacity="1.000000" stroke="none" 
	d="
M626.831543,596.000000 
	C626.831543,605.464478 626.831543,614.428955 626.831543,623.693848 
	C614.442749,623.693848 602.386963,623.693848 590.076050,623.693848 
	C590.076050,574.900269 590.076050,526.179749 590.076050,477.141510 
	C602.161682,477.141510 614.216553,477.141510 626.831604,477.141510 
	C626.831604,516.651001 626.831604,556.075500 626.831543,596.000000 
z"/>
<path fill="#0A6A38" opacity="1.000000" stroke="none" 
	d="
M652.850098,480.000061 
	C652.850220,528.115845 652.850220,575.731567 652.850220,623.678711 
	C645.682312,623.678711 638.800964,623.678711 631.670532,623.678711 
	C631.670532,556.357605 631.670532,489.122681 631.670532,421.518250 
	C638.634766,421.518250 645.487976,421.518250 652.850037,421.518250 
	C652.850037,440.947479 652.850037,460.223755 652.850098,480.000061 
z"/>
<path fill="#056736" opacity="1.000000" stroke="none" 
	d="
M604.764282,376.417725 
	C604.537598,344.135376 604.537598,312.258331 604.537598,278.822174 
	C616.222046,285.101196 627.059448,290.689545 637.649292,296.713074 
	C643.117981,299.823700 650.021667,302.635071 652.833313,307.551178 
	C655.503418,312.219818 653.795227,319.455750 653.817383,325.563507 
	C653.878784,342.511658 653.838745,359.460236 653.838745,376.822968 
	C637.381104,376.822968 621.186035,376.822968 604.764282,376.417725 
z"/>
<path fill="#026634" opacity="1.000000" stroke="none" 
	d="
M537.923218,262.891174 
	C550.156677,264.738007 562.390076,266.584808 574.632935,268.433044 
	C574.632935,305.202789 574.632935,340.777618 574.632935,377.151031 
	C562.732971,377.151031 550.844055,377.151031 538.479126,376.594360 
	C537.976440,338.322205 537.949829,300.606720 537.923218,262.891174 
z"/>
<path fill="#126D3D" opacity="1.000000" stroke="none" 
	d="
M327.000000,404.975861 
	C460.928925,404.975830 594.357910,405.008820 727.786682,404.855560 
	C733.143494,404.849396 736.463013,405.928741 736.955261,412.107117 
	C586.869385,412.107117 436.655945,412.107117 286.333527,412.107117 
	C287.198242,407.215729 289.146301,404.503937 295.025391,404.818451 
	C305.489807,405.378204 316.005646,404.975861 327.000000,404.975861 
z"/>
<path fill="#056736" opacity="1.000000" stroke="none" 
	d="
M628.842285,741.829895 
	C620.844910,745.849976 613.177979,749.708130 604.825684,753.911255 
	C604.825684,726.460571 604.825684,699.968750 604.825684,673.145752 
	C621.000305,673.145752 637.179871,673.145752 653.839294,673.145752 
	C653.839294,685.753296 652.790222,698.302856 654.134338,710.590637 
	C655.478088,722.874939 651.013855,730.240479 640.316895,735.097168 
	C636.412598,736.869873 632.876709,739.453979 628.842285,741.829895 
z"/>
<path fill="#156C3C" opacity="1.000000" stroke="none" 
	d="
M543.000000,652.129883 
	C602.489319,652.129883 661.478577,652.129883 720.511658,652.129883 
	C718.485596,659.205566 717.635315,659.869873 710.751587,659.869873 
	C578.251953,659.870056 445.752197,659.820618 313.252899,660.031860 
	C307.289642,660.041321 304.504211,657.774231 302.463837,652.129822 
	C382.732086,652.129822 462.616028,652.129822 543.000000,652.129883 
z"/>
<path fill="#056735" opacity="1.000000" stroke="none" 
	d="
M462.216003,266.104614 
	C471.275330,264.611084 479.919434,263.191864 489.450104,261.627075 
	C485.672516,300.718811 481.974182,338.990143 478.236603,377.668060 
	C468.716766,376.808502 459.679810,375.992554 450.263947,375.142426 
	C451.332245,363.735413 452.342133,352.698364 453.404083,341.666290 
	C455.601532,318.838379 457.795319,296.010040 460.087280,273.191559 
	C460.325409,270.820587 461.213989,268.514923 462.216003,266.104614 
z"/>
<path fill="#016533" opacity="1.000000" stroke="none" 
	d="
M379.814758,300.899323 
	C391.745697,293.899719 403.676636,286.900146 415.607574,279.900574 
	C416.068054,280.304962 416.528503,280.709381 416.988953,281.113770 
	C416.988953,312.403595 416.988953,343.693390 416.507629,375.545380 
	C404.149231,376.107544 392.272156,376.107544 380.052032,376.107544 
	C380.052032,373.522308 380.057800,371.558136 380.051147,369.594025 
	C379.973419,346.695801 379.893860,323.797546 379.814758,300.899323 
z"/>
<path fill="#046735" opacity="1.000000" stroke="none" 
	d="
M453.840881,302.817139 
	C451.450287,327.236786 449.076080,351.198792 446.657928,375.604279 
	C437.236481,374.767822 428.213654,373.966766 418.743805,373.126007 
	C419.893097,360.951202 420.971680,349.223083 422.113159,337.501038 
	C423.999786,318.126801 425.883270,298.751953 427.923737,279.393768 
	C428.079285,277.918182 429.169220,275.703552 430.330231,275.305176 
	C438.953552,272.346069 447.704773,269.759644 457.197479,266.813629 
	C456.029175,279.246399 454.943237,290.802979 453.840881,302.817139 
z"/>
<path fill="#056735" opacity="1.000000" stroke="none" 
	d="
M437.847778,670.008240 
	C437.671173,666.474548 438.551483,665.218262 442.168976,665.699768 
	C449.903473,666.729248 457.719818,667.143799 466.248322,667.874146 
	C463.086548,700.585022 459.945984,733.076233 456.744263,766.200317 
	C447.456573,763.432251 438.580750,760.786926 429.255280,758.007629 
	C432.132019,728.591187 434.975677,699.512878 437.847778,670.008240 
z"/>
<path fill="#2A7749" opacity="1.000000" stroke="none" 
	d="
M389.080750,464.000000 
	C389.080627,448.690918 389.080627,433.881836 389.080627,418.699341 
	C402.896057,418.699341 416.441040,418.699341 430.332458,418.699341 
	C430.332458,487.481354 430.332458,556.135132 430.332458,625.009766 
	C416.591248,625.009766 403.018219,625.009766 389.080902,625.009766 
	C389.080902,571.325928 389.080902,517.912964 389.080750,464.000000 
M393.684906,462.499908 
	C393.684906,515.215027 393.684906,567.930115 393.684906,620.707642 
	C404.795685,620.707642 415.221588,620.707642 425.840607,620.707642 
	C425.840607,554.782593 425.840607,489.082184 425.840607,423.249878 
	C415.055237,423.249878 404.504913,423.249878 393.684265,423.249878 
	C393.684265,436.213959 393.684265,448.856934 393.684906,462.499908 
z"/>
<path fill="#0A6A38" opacity="1.000000" stroke="none" 
	d="
M583.147644,271.849670 
	C588.250061,273.601227 593.027405,275.067780 597.609314,276.998108 
	C598.891296,277.538177 600.438782,279.441650 600.444397,280.725922 
	C600.582092,312.366241 600.529297,344.007416 600.495300,375.648438 
	C600.494934,375.955078 600.290283,376.261505 600.069824,376.879852 
	C593.429565,376.879852 586.679016,376.879852 579.536133,376.879852 
	C579.536133,341.759369 579.536133,306.561035 579.536133,271.074890 
	C580.581543,271.291382 581.665100,271.515747 583.147644,271.849670 
z"/>
<path fill="#056735" opacity="1.000000" stroke="none" 
	d="
M282.181763,602.823730 
	C282.181671,605.288330 282.181671,607.281006 282.181671,609.273682 
	C281.942566,609.363647 281.703461,609.453674 281.464355,609.543640 
	C280.935974,608.340576 280.327637,607.165833 279.890747,605.930420 
	C259.844666,549.244263 259.141113,492.242096 277.254639,434.979431 
	C277.772552,433.342194 279.455994,432.073639 280.595947,430.633179 
	C281.124573,430.931641 281.653198,431.230103 282.181824,431.528564 
	C282.181824,488.469666 282.181824,545.410706 282.181763,602.823730 
z"/>
<path fill="#016633" opacity="1.000000" stroke="none" 
	d="
M683.000000,377.173004 
	C673.861145,377.172974 665.222229,377.172974 656.294739,377.172974 
	C656.294739,354.670380 656.294739,332.418823 656.294739,309.353729 
	C659.761963,312.036377 663.234070,314.197632 666.065613,317.004913 
	C677.984497,328.821533 689.685913,340.857147 701.528992,352.750763 
	C704.307556,355.541199 705.338989,358.675446 705.069885,362.613129 
	C704.754089,367.232880 704.995911,371.890747 704.995911,377.173035 
	C697.668396,377.173035 690.584167,377.173035 683.000000,377.173004 
z"/>
<path fill="#076836" opacity="1.000000" stroke="none" 
	d="
M697.960205,423.157227 
	C701.423584,423.157196 704.394348,423.157196 707.683594,423.157196 
	C707.683594,490.781433 707.683594,558.097229 707.683594,625.599854 
	C690.101685,625.599854 672.706421,625.599854 655.061707,625.599854 
	C655.061707,558.153564 655.061707,490.951385 655.061707,423.157288 
	C669.269714,423.157288 683.368652,423.157288 697.960205,423.157227 
M703.810913,461.500031 
	C703.810913,450.375885 703.810913,439.251709 703.810913,427.909546 
	C688.644531,427.909546 673.964661,427.909546 659.288574,427.909546 
	C659.288574,492.645844 659.288574,557.036499 659.288574,621.544495 
	C674.142334,621.544495 688.713989,621.544495 703.810852,621.544495 
	C703.810852,568.353699 703.810852,515.426880 703.810913,461.500031 
z"/>
<path fill="#016633" opacity="1.000000" stroke="none" 
	d="
M375.874939,729.930908 
	C364.083160,720.316711 352.268127,710.730591 340.547272,701.030701 
	C339.685608,700.317627 339.085297,698.788086 339.071625,697.629761 
	C338.956177,687.867859 339.005829,678.103943 339.005829,667.851074 
	C351.255951,667.851074 363.150177,667.851074 375.521027,668.401978 
	C375.956757,689.278931 375.915833,709.604919 375.874939,729.930908 
z"/>
<path fill="#016633" opacity="1.000000" stroke="none" 
	d="
M682.429749,701.430664 
	C673.888428,709.106689 665.597168,716.532532 656.437988,724.735718 
	C656.437988,706.718140 656.437988,689.957764 656.437988,673.034241 
	C672.572327,673.034241 688.651184,673.034241 705.786255,673.034241 
	C704.671936,675.272095 704.154297,677.182861 702.982544,678.520813 
	C696.301270,686.149597 689.464050,693.641846 682.429749,701.430664 
z"/>
<path fill="#016533" opacity="1.000000" stroke="none" 
	d="
M537.173584,377.140808 
	C536.253784,377.758484 535.338928,378.905365 534.413452,378.914032 
	C521.779358,379.032654 509.143768,378.993866 496.165497,378.993866 
	C496.042145,377.546204 495.842407,376.291840 495.841827,375.037415 
	C495.824951,338.741364 495.829407,302.445282 495.825134,266.149231 
	C495.824829,263.672577 495.193054,260.764618 499.785095,261.447815 
	C499.785095,299.018799 499.785095,336.707336 499.785095,374.699738 
	C510.928802,374.699738 521.634094,374.699738 532.749695,374.699738 
	C532.749695,337.168365 532.749695,299.774048 532.749695,262.273010 
	C534.284241,262.273010 535.410950,262.273010 536.790649,263.025299 
	C537.086975,301.565308 537.130249,339.353058 537.173584,377.140808 
z"/>
<path fill="#2E784B" opacity="1.000000" stroke="none" 
	d="
M575.986755,722.168518 
	C576.348328,720.503845 577.014954,718.840881 577.023926,717.174316 
	C577.105164,702.021912 577.071838,686.868835 577.072021,671.716003 
	C577.072021,670.100708 577.071960,668.485474 577.071960,666.593506 
	C585.681519,666.593506 593.771484,666.593506 602.251770,666.593506 
	C602.400635,667.900635 602.668579,669.161865 602.669739,670.423340 
	C602.693726,697.065735 602.659607,723.708252 602.726501,750.350464 
	C602.734009,753.345520 602.425232,755.700562 598.275452,755.711731 
	C598.275452,727.672546 598.275452,699.652161 598.275452,671.281128 
	C592.654602,671.281128 587.445801,671.281128 581.688232,671.281128 
	C581.688232,673.130249 581.688232,674.904419 581.688232,676.678650 
	C581.688171,703.654114 581.599548,730.630127 581.785767,757.604309 
	C581.812988,761.543945 580.527527,763.127319 576.396667,762.525879 
	C575.992737,748.710571 575.989746,735.439514 575.986755,722.168518 
z"/>
<path fill="#006533" opacity="1.000000" stroke="none" 
	d="
M378.040497,666.015381 
	C391.507996,666.015381 404.975494,666.015381 418.718506,666.015381 
	C418.718506,695.044434 418.718506,723.971191 418.718506,752.949890 
	C414.681274,753.184082 414.802460,750.510986 414.806946,747.700134 
	C414.844910,723.867249 414.827942,700.034363 414.827484,676.201416 
	C414.827454,674.383423 414.827484,672.565430 414.827484,670.371460 
	C403.916351,670.371460 393.207916,670.371460 382.047852,670.371460 
	C382.047852,691.376038 382.047852,712.422485 382.047852,734.617249 
	C380.127808,732.866394 379.002716,731.840454 377.915375,729.995117 
	C377.982239,708.122253 378.011383,687.068848 378.040497,666.015381 
z"/>
<path fill="#066735" opacity="1.000000" stroke="none" 
	d="
M337.059021,377.915253 
	C337.038544,364.916870 336.897797,351.916473 337.112061,338.921967 
	C337.149200,336.668030 338.687897,334.438873 339.533051,332.198273 
	C340.060150,332.333832 340.587280,332.469360 341.114380,332.604919 
	C341.114380,346.285400 341.114380,359.965851 341.114380,373.898865 
	C352.230164,373.898865 362.821686,373.898865 373.997498,373.898865 
	C373.997498,372.136078 373.997498,370.362152 373.997498,368.588226 
	C373.997589,348.423187 374.056702,328.257751 373.930450,308.093506 
	C373.912720,305.257355 374.579285,303.286560 377.574890,302.605408 
	C377.945923,310.024902 377.929688,316.986694 377.962769,323.948242 
	C378.047058,341.673462 378.153412,359.398621 378.250977,377.123779 
	C378.250977,377.123779 378.150543,377.587616 377.623199,377.868225 
	C363.750244,378.071014 350.404663,377.993134 337.059021,377.915253 
z"/>
<path fill="#0A6A39" opacity="1.000000" stroke="none" 
	d="
M332.560242,376.516602 
	C323.529602,376.556580 314.964386,376.556580 304.919220,376.556580 
	C313.735565,362.497284 323.064911,350.702301 334.025482,338.894501 
	C334.025482,351.732208 334.033569,363.608063 333.983551,375.483673 
	C333.982147,375.816010 333.358917,376.145691 332.560242,376.516602 
z"/>
<path fill="#1E7243" opacity="1.000000" stroke="none" 
	d="
M575.527405,722.074280 
	C575.989746,735.439514 575.992737,748.710571 575.992065,762.444092 
	C575.026855,763.340698 574.065186,763.774780 572.367126,764.541260 
	C572.367126,751.461670 572.367126,739.087830 572.367126,726.483154 
	C561.395264,726.483154 550.981506,726.483154 539.894104,726.483154 
	C539.894104,732.823608 539.894165,739.075500 539.894104,745.327393 
	C539.894104,752.649841 539.763855,759.975586 539.953491,767.293152 
	C540.037781,770.544067 538.795349,771.511780 535.392334,770.780823 
	C534.948547,754.797546 534.936035,738.869934 534.959839,722.475342 
	C548.353394,721.998840 561.710754,721.989441 575.527405,722.074280 
z"/>
<path fill="#B3C2AE" opacity="1.000000" stroke="none" 
	d="
M378.699738,377.061829 
	C378.153412,359.398621 378.047058,341.673462 377.962769,323.948242 
	C377.929688,316.986694 377.945923,310.024902 377.949524,302.603577 
	C378.389221,301.775574 378.819122,301.407196 379.531921,300.969086 
	C379.893860,323.797546 379.973419,346.695801 380.051147,369.594025 
	C380.057800,371.558136 380.052032,373.522308 380.052032,376.107544 
	C392.272156,376.107544 404.149231,376.107544 416.481628,376.007599 
	C415.801575,376.307159 414.667694,377.048340 413.530548,377.053436 
	C402.070190,377.104706 390.609283,377.035370 378.699738,377.061829 
z"/>
<path fill="#C6D1C1" opacity="1.000000" stroke="none" 
	d="
M377.769409,666.138367 
	C378.011383,687.068848 377.982239,708.122253 377.835449,729.638916 
	C377.305908,730.087769 376.893982,730.073425 376.178528,729.994995 
	C375.915833,709.604919 375.956757,689.278931 375.980957,668.485596 
	C376.475616,667.432556 376.987000,666.846924 377.769409,666.138367 
z"/>
<path fill="#156C3C" opacity="1.000000" stroke="none" 
	d="
M326.705688,686.299316 
	C324.618805,683.785095 322.760040,681.543579 320.374420,678.666626 
	C325.436981,678.666626 329.501465,678.666626 333.891174,678.666626 
	C333.891174,683.661011 333.891174,688.524841 333.891174,694.339539 
	C331.232178,691.370850 329.082977,688.971436 326.705688,686.299316 
z"/>
<path fill="#8CA587" opacity="1.000000" stroke="none" 
	d="
M537.396484,377.133820 
	C537.130249,339.353058 537.086975,301.565308 537.102051,263.298553 
	C537.160522,262.819519 537.552368,262.742432 537.737793,262.816833 
	C537.949829,300.606720 537.976440,338.322205 538.020264,376.504395 
	C538.037598,376.971100 537.619507,377.126862 537.396484,377.133820 
z"/>
<path fill="#076836" opacity="1.000000" stroke="none" 
	d="
M708.030884,375.796387 
	C708.001099,371.070312 708.001099,366.821014 708.001099,360.989716 
	C712.091125,366.895782 715.306824,371.539307 719.482605,377.569153 
	C714.764343,377.033813 711.412537,376.653503 708.030884,375.796387 
z"/>
<path fill="#B3C2AE" opacity="1.000000" stroke="none" 
	d="
M337.238159,378.310242 
	C350.404663,377.993134 363.750244,378.071014 377.564880,378.098236 
	C377.520172,378.384399 377.005035,379.017151 376.493011,379.014709 
	C363.467529,378.951996 350.442413,378.822784 337.238159,378.310242 
z"/>
<path fill="#FDFEFD" opacity="1.000000" stroke="none" 
	d="
M515.844238,507.896362 
	C518.572754,479.321808 521.286865,451.204926 524.044373,422.638794 
	C531.859985,423.327026 539.256592,423.978363 547.467896,424.701447 
	C541.099365,490.570526 534.757446,556.164062 528.381897,622.105103 
	C520.469055,621.382629 513.050415,620.705322 504.912994,619.962341 
	C508.562561,582.651306 512.196228,545.502686 515.844238,507.896362 
z"/>
<path fill="#FDFEFD" opacity="1.000000" stroke="none" 
	d="
M485.946777,619.068604 
	C481.702240,618.662903 477.911896,618.315857 473.451935,617.907593 
	C479.803833,552.164246 486.127991,486.708191 492.510040,420.652740 
	C500.446136,421.330627 507.987305,421.974792 515.959900,422.655792 
	C509.583801,488.541931 503.244690,554.045532 496.858276,620.037842 
	C493.226379,619.721558 489.813660,619.424377 485.946777,619.068604 
z"/>
<path fill="#FFFFFF" opacity="1.000000" stroke="none" 
	d="
M347.123108,443.031586 
	C347.122986,501.803986 347.122986,560.077942 347.122986,618.660767 
	C340.695007,618.660767 334.481110,618.660767 328.070312,618.660767 
	C328.070312,557.771729 328.070312,497.048431 328.070312,435.966980 
	C334.227875,435.966980 340.297028,435.966980 347.123260,435.966980 
	C347.123260,438.030334 347.123260,440.281769 347.123108,443.031586 
z"/>
<path fill="#FFFFFF" opacity="1.000000" stroke="none" 
	d="
M294.876831,595.000000 
	C294.876740,541.738098 294.876740,488.976227 294.876740,435.912415 
	C301.321777,435.912415 307.397980,435.912415 313.801147,435.912415 
	C313.801147,496.722290 313.801147,557.581970 313.801147,618.706116 
	C307.715332,618.706116 301.628448,618.706116 294.876923,618.706116 
	C294.876923,610.996094 294.876923,603.248047 294.876831,595.000000 
z"/>
<path fill="#FFFFFF" opacity="1.000000" stroke="none" 
	d="
M393.684570,461.999908 
	C393.684265,448.856934 393.684265,436.213959 393.684265,423.249878 
	C404.504913,423.249878 415.055237,423.249878 425.840607,423.249878 
	C425.840607,489.082184 425.840607,554.782593 425.840607,620.707642 
	C415.221588,620.707642 404.795685,620.707642 393.684906,620.707642 
	C393.684906,567.930115 393.684906,515.215027 393.684570,461.999908 
z"/>
<path fill="#FDFEFD" opacity="1.000000" stroke="none" 
	d="
M703.810913,462.000061 
	C703.810852,515.426880 703.810852,568.353699 703.810852,621.544495 
	C688.713989,621.544495 674.142334,621.544495 659.288574,621.544495 
	C659.288574,557.036499 659.288574,492.645844 659.288574,427.909546 
	C673.964661,427.909546 688.644531,427.909546 703.810913,427.909546 
	C703.810913,439.251709 703.810913,450.375885 703.810913,462.000061 
z"/>
</svg>