<?xml version="1.0" encoding="UTF-8"?>
<svg version="1.1" xmlns="http://www.w3.org/2000/svg" width="1018" height="1037">
<path d="M0 0 C2.13696679 1.10836992 4.28423922 2.19518763 6.43212891 3.28222656 C28.89791523 14.75740469 50.00508083 28.63467632 69.97509766 44.02441406 C70.51312012 44.43626953 71.05114258 44.848125 71.60546875 45.27246094 C93.57403069 62.11776931 115.37726839 80.93910554 133.31884766 102.09082031 C135.23495343 104.32778342 137.23022622 106.48244984 139.22509766 108.64941406 C144.28688297 114.26791011 148.94060804 120.16327511 153.54248047 126.15917969 C154.48363326 127.38453882 155.42819748 128.60728673 156.37646484 129.82714844 C217.9715046 209.12486837 253.30337082 309.07786026 254.22509766 417.77441406 C254.22610977 419.20605896 254.22610977 419.20605896 254.22714233 420.66662598 C254.1486135 491.38954414 237.87071354 559.94622499 207.97509766 624.02441406 C207.56324219 624.9114502 207.15138672 625.79848633 206.72705078 626.71240234 C188.8314021 664.8783719 164.10523433 701.55246513 135.38916016 732.39941406 C133.53093433 734.42000914 131.74459229 736.46531748 129.96337891 738.55175781 C125.28810292 743.91235532 120.24182368 748.90733619 115.20532227 753.92456055 C113.54083488 755.58368726 111.88176319 757.24809458 110.22314453 758.91308594 C104.64656902 764.49341258 99.00557837 769.93133179 92.97509766 775.02441406 C92.01087891 775.87003906 91.04666016 776.71566406 90.05322266 777.58691406 C17.38860181 840.21498507 -74.71518266 877.71125537 -189.67333984 886.22753906 C-190.83658279 886.23455338 -191.99982574 886.24156769 -193.19831848 886.24879456 C-196.93221965 886.26619843 -200.6659621 886.27264708 -204.39990234 886.27441406 C-205.6770108 886.27508881 -206.95411926 886.27576355 -208.26992798 886.27645874 C-227.37938385 886.26041361 -246.09079819 885.80087426 -265.02490234 883.02441406 C-266.23887695 882.85280762 -267.45285156 882.68120117 -268.70361328 882.50439453 C-314.30175722 875.91721107 -358.42093863 862.84259849 -400.02490234 843.02441406 C-400.94416504 842.58935547 -401.86342773 842.15429688 -402.81054688 841.70605469 C-438.37963181 824.75530274 -471.28947752 802.84509108 -501.02490234 777.02441406 C-501.75966797 776.39019531 -502.49443359 775.75597656 -503.25146484 775.10253906 C-505.18677653 773.42167075 -507.10634578 771.72437503 -509.02490234 770.02441406 C-509.72824707 769.40590576 -510.4315918 768.78739746 -511.15625 768.15014648 C-517.53726006 762.48323031 -523.62901554 756.57523817 -529.64868164 750.53100586 C-531.21762595 748.95667252 -532.79188793 747.38779817 -534.36669922 745.81933594 C-539.79627639 740.39360279 -545.06294883 734.8858103 -550.02490234 729.02441406 C-550.87052734 728.06019531 -551.71615234 727.09597656 -552.58740234 726.10253906 C-560.90447082 716.45260705 -568.48706308 706.28888096 -576.02490234 696.02441406 C-576.80003174 694.98124023 -576.80003174 694.98124023 -577.59082031 693.91699219 C-632.74096169 619.54814133 -663.42148347 525.09530377 -660.11938477 347.03027344 C-658.02927737 333.22752754 -655.30476606 319.59507782 -652.02490234 306.02441406 C-651.77015137 304.96561035 -651.51540039 303.90680664 -651.25292969 302.81591797 C-644.44478336 275.03270517 -634.79454668 248.07915925 -623.02490234 222.02441406 C-622.58178711 221.04182617 -622.13867188 220.05923828 -621.68212891 219.046875 C-606.70000688 186.13873699 -587.49017831 155.3353708 -565.02490234 127.02441406 C-564.52877441 126.39680176 -564.03264648 125.76918945 -563.52148438 125.12255859 C-556.93578905 116.81797449 -550.15723059 108.79076887 -542.87646484 101.08691406 C-540.75422329 98.83731567 -538.71954176 96.52729716 -536.70068359 94.18457031 C-532.84571358 89.75588139 -528.74904598 85.60108258 -524.58740234 81.46191406 C-523.87519531 80.74583984 -523.16298828 80.02976563 -522.42919922 79.29199219 C-517.79126259 74.66248051 -512.99480621 70.29287704 -508.02490234 66.02441406 C-506.82181236 64.96726055 -505.61996092 63.90869564 -504.41943359 62.84863281 C-496.51638463 55.91096664 -488.48552718 49.27811763 -480.02490234 43.02441406 C-479.35088379 42.52441895 -478.67686523 42.02442383 -477.98242188 41.50927734 C-459.7400825 28.02331326 -440.73009723 16.25460576 -421.02490234 5.02441406 C-420.34282715 4.63157227 -419.66075195 4.23873047 -418.95800781 3.83398438 C-343.4594096 -39.43228112 -249.23567668 -55.83319376 0 0 Z " fill="#065A2B" transform="translate(713.02490234375,100.9755859375)"/>
<path d="M0 0 C0.99174728 -0.01243744 1.98349457 -0.02487488 3.0052948 -0.03768921 C46.84935282 -0.48043988 88.87172853 5.6256622 128.72265625 25.2734375 C129.38313965 25.59747559 130.04362305 25.92151367 130.72412109 26.25537109 C146.98080342 34.33201256 162.51322945 43.96767617 176.72265625 55.2734375 C177.65335938 56.01207031 178.5840625 56.75070312 179.54296875 57.51171875 C195.60857589 70.46713175 211.20585171 84.80395784 223.72265625 101.2734375 C224.63745168 102.43664575 225.55285831 103.59937349 226.46875 104.76171875 C245.22204813 128.84926087 259.1929552 155.6983762 269.72265625 184.2734375 C270.02010742 185.07362305 270.31755859 185.87380859 270.62402344 186.69824219 C274.56165931 197.51367872 277.05244349 208.66609922 279.47265625 219.8984375 C279.62181488 220.58373535 279.77097351 221.2690332 279.9246521 221.97509766 C283.76438854 239.77385097 285.07445853 256.99118169 285.03833008 275.19189453 C285.03517423 278.50456836 285.05870699 281.81634221 285.08398438 285.12890625 C285.12229631 298.01424596 284.28675988 310.39760146 282.09683228 323.09783936 C281.76708341 325.01512152 281.4656687 326.93723084 281.16870117 328.85986328 C273.14286116 380.51679193 248.17183403 430.3106249 212.98828125 468.78515625 C211.52165237 470.39591934 210.07237534 472.02272735 208.64453125 473.66796875 C188.75811816 496.46369042 163.29444732 514.12150835 136.72265625 528.2734375 C136.1080957 528.60794922 135.49353516 528.94246094 134.86035156 529.28710938 C102.68018195 546.72865931 63.34321855 557.4086809 26.72265625 558.2734375 C25.85801758 558.29390137 24.99337891 558.31436523 24.10253906 558.33544922 C-0.28664178 558.82647932 -23.48995429 556.7052036 -47.27734375 551.2734375 C-48.11040039 551.08942383 -48.94345703 550.90541016 -49.80175781 550.71582031 C-70.18458135 546.14973024 -89.94150686 538.22387019 -108.27734375 528.2734375 C-109.74608789 527.49608267 -111.21483815 526.71873942 -112.68359375 525.94140625 C-131.2684895 515.98067947 -148.42256439 503.73040482 -163.9296875 489.43359375 C-165.4850187 488.00248201 -167.06061287 486.59306087 -168.65625 485.20703125 C-204.85005031 453.66090995 -229.36447672 409.33469164 -244.27734375 364.2734375 C-244.67542236 363.07895996 -244.67542236 363.07895996 -245.08154297 361.86035156 C-253.4829136 336.25347307 -256.82596267 308.93831922 -256.66845703 282.08764648 C-256.65236986 278.84120591 -256.66841934 275.59601282 -256.6875 272.34960938 C-256.71019775 252.24092227 -254.36266924 232.79786632 -249.58984375 213.2734375 C-249.41715973 212.55496643 -249.24447571 211.83649536 -249.06655884 211.09625244 C-239.26323115 170.48206765 -220.64306059 132.71808597 -194.27734375 100.2734375 C-193.85614258 99.74927246 -193.43494141 99.22510742 -193.00097656 98.68505859 C-179.9146942 82.51017938 -165.07094886 67.57062281 -148.27734375 55.2734375 C-147.33503906 54.53609375 -146.39273438 53.79875 -145.421875 53.0390625 C-121.55159394 34.46963006 -93.99498092 20.5915634 -65.27734375 11.2734375 C-64.35526123 10.97058838 -64.35526123 10.97058838 -63.41455078 10.66162109 C-48.40910868 5.83050887 -32.82396246 3.62316962 -17.27734375 1.2734375 C-16.19791504 1.09312988 -15.11848633 0.91282227 -14.00634766 0.72705078 C-9.32646639 0.15776838 -4.7105455 0.0541836 0 0 Z " fill="#EAF1ED" transform="translate(493.27734375,240.7265625)"/>
<path d="M0 0 C1.45768799 0.19335938 1.45768799 0.19335938 2.94482422 0.390625 C74.76822979 9.93027487 145.51281076 47.93654784 190 106 C191.02545416 107.30905419 192.05154538 108.61760947 193.078125 109.92578125 C220.02245943 144.46898791 239.88890112 184.27746371 250 227 C250.22671387 227.95390625 250.45342773 228.9078125 250.68701172 229.890625 C258.63388213 264.19660091 260.46346246 300.06764353 256 335 C255.90348145 335.82516113 255.80696289 336.65032227 255.70751953 337.50048828 C249.84515504 387.4701666 230.86788433 436.45938505 201 477 C200.58153809 477.5686377 200.16307617 478.13727539 199.73193359 478.72314453 C191.2428047 490.166742 182.01434781 500.94626826 172.3125 511.375 C171.70704346 512.02895752 171.10158691 512.68291504 170.4777832 513.35668945 C166.22613319 517.87907182 161.71565664 521.96932925 157 526 C155.92790375 526.94850848 154.8574823 527.8989147 153.7890625 528.8515625 C112.16631502 565.53635047 59.04598076 589.9420376 4 597 C2.76733398 597.17442627 1.53466797 597.34885254 0.26464844 597.52856445 C-11.16556674 599.08147736 -22.47546088 599.35998513 -34 599.3125 C-34.94465118 599.31034485 -35.88930237 599.3081897 -36.86257935 599.30596924 C-51.75721051 599.25157886 -66.31210648 598.65750882 -81 596 C-82.07572266 595.81195801 -83.15144531 595.62391602 -84.25976562 595.43017578 C-109.34291855 590.9182234 -134.13178033 583.34106997 -157 572 C-157.87108398 571.57525391 -158.74216797 571.15050781 -159.63964844 570.71289062 C-179.09551636 561.16341997 -197.18480711 549.68316885 -214 536 C-214.76304443 535.38125 -214.76304443 535.38125 -215.54150391 534.75 C-222.37434654 529.18014008 -228.92143536 523.31625036 -235.375 517.3125 C-236.02895752 516.70704346 -236.68291504 516.10158691 -237.35668945 515.4777832 C-241.87907182 511.22613319 -245.96932925 506.71565664 -250 502 C-250.94850848 500.92790375 -251.8989147 499.8574823 -252.8515625 498.7890625 C-265.0572306 484.9385664 -275.62203949 469.89032724 -285 454 C-285.40814941 453.3100293 -285.81629883 452.62005859 -286.23681641 451.90917969 C-318.95521268 396.0721663 -331.92292413 330.74493796 -325.6875 266.5 C-325.51105957 264.65257202 -325.51105957 264.65257202 -325.33105469 262.76782227 C-324.40947171 254.05108506 -322.83031489 245.56297096 -321 237 C-320.68057835 235.43367756 -320.36149267 233.8672865 -320.04296875 232.30078125 C-306.30028979 167.21767795 -268.55333317 102.45336398 -215 62 C-214.03835938 61.23300781 -213.07671875 60.46601563 -212.0859375 59.67578125 C-153.27048086 12.92360825 -74.79226379 -10.77032012 0 0 Z M-86 24 C-86.75748535 24.16016602 -87.5149707 24.32033203 -88.29541016 24.48535156 C-92.21114373 25.33078384 -96.06975319 26.30806934 -99.92285156 27.40966797 C-102.34647512 28.09846931 -104.77841575 28.75348958 -107.2109375 29.41015625 C-116.77791619 32.02580262 -125.96645373 34.8646924 -135 39 C-136.51083326 39.65568996 -138.02264155 40.30913559 -139.53515625 40.9609375 C-164.72865138 51.91302774 -187.09767615 66.17840621 -208 84 C-209.29550781 85.09828125 -209.29550781 85.09828125 -210.6171875 86.21875 C-222.66536753 96.76597831 -234.30769541 108.23495392 -244 121 C-244.92670476 122.1864937 -245.85381655 123.37266956 -246.78125 124.55859375 C-271.69962145 156.74804113 -289.75975828 194.2295406 -298.625 234 C-299.05425781 235.82724609 -299.05425781 235.82724609 -299.4921875 237.69140625 C-303.80058437 256.78543783 -305.50606399 275.75832984 -305.39111328 295.31616211 C-305.374989 298.56471594 -305.3911005 301.81202949 -305.41015625 305.06054688 C-305.4240493 318.94579874 -304.2506339 332.30626106 -302 346 C-301.82259277 347.16426514 -301.64518555 348.32853027 -301.46240234 349.52807617 C-297.1415208 376.89746155 -287.3777905 403.30814624 -275 428 C-274.64341309 428.72268066 -274.28682617 429.44536133 -273.91943359 430.18994141 C-263.38835836 451.40099542 -249.21627523 471.06908594 -233.265625 488.51171875 C-231.79899612 490.12248184 -230.34971909 491.74928985 -228.921875 493.39453125 C-217.67921849 506.28194677 -204.77623354 516.93992495 -191 527 C-190.4239502 527.42265137 -189.84790039 527.84530273 -189.25439453 528.28076172 C-180.86549527 534.39163006 -172.06369449 539.71216787 -163.04638672 544.83300781 C-161.21027714 545.88008533 -159.3874121 546.95030777 -157.56640625 548.0234375 C-139.78385392 558.09679084 -119.87278397 565.33089662 -100 570 C-98.915979 570.26369385 -98.915979 570.26369385 -97.81005859 570.53271484 C-65.97463638 578.24301911 -33.52727825 580.25072386 -1 576 C0.485 575.80664062 0.485 575.80664062 2 575.609375 C30.41324571 571.77358683 58.9216031 563.69098653 84.21435547 549.95751953 C85.9810121 549.01018192 87.77380737 548.1121249 89.56640625 547.21484375 C109.22958959 537.3180011 127.48888379 524.06207787 143.65234375 509.16015625 C145.20767495 507.72904451 146.78326912 506.31962337 148.37890625 504.93359375 C184.58304152 473.37846462 209.06298112 429.06329127 224 384 C224.39807861 382.81349854 224.39807861 382.81349854 224.80419922 381.60302734 C228.76203979 369.64398848 231.03755656 357.42526295 233 345 C233.18209015 343.94181061 233.18209015 343.94181061 233.36785889 342.86224365 C235.7174732 329.15977678 236.47230586 315.7839888 236.39111328 301.88964844 C236.37504609 298.63433739 236.39105943 295.38027362 236.41015625 292.125 C236.43128393 272.63324647 234.27170578 253.68090733 229.875 234.6875 C229.72760376 234.04489227 229.58020752 233.40228455 229.42834473 232.74020386 C219.89408652 191.50875191 200.67462931 152.82478441 174 120 C173.57879883 119.47583496 173.15759766 118.95166992 172.72363281 118.41162109 C159.63568897 102.23468827 144.79038458 87.30456398 128 75 C127.08089844 74.27425781 126.16179687 73.54851562 125.21484375 72.80078125 C101.81337254 54.46798313 75.21053217 41.70225398 47.1875 32.25 C46.38924805 31.9804248 45.59099609 31.71084961 44.76855469 31.43310547 C3.52193213 17.88732068 -43.4533632 14.64023339 -86 24 Z " fill="#095C2C" transform="translate(542,221)"/>
<path d="M0 0 C1.53627045 -0.00101212 1.53627045 -0.00101212 3.10357666 -0.00204468 C88.32513106 0.08627551 172.2231058 21.98097781 298.70410156 96.68408203 C300.79300711 98.23552253 302.8916738 99.77291993 304.9921875 101.30859375 C312.66202947 106.94861332 320.0335222 112.82943918 327.1940918 119.1027832 C329.4312593 121.05830226 331.6840477 122.98963267 333.96850586 124.88964844 C342.82147872 132.28079267 351.04058112 140.19891833 359.15600586 148.38769531 C361.26680246 150.51694939 363.38569401 152.63789081 365.50585938 154.7578125 C366.87807941 156.13494328 368.2498409 157.51253116 369.62109375 158.890625 C370.24100693 159.511651 370.8609201 160.132677 371.49961853 160.77252197 C375.79140546 165.11033138 379.83608991 169.62263665 383.8125 174.25 C384.26182388 174.76640549 384.71114777 175.28281097 385.17408752 175.81486511 C392.51975318 184.26567383 399.39213977 193.03472358 406.11230469 201.98779297 C407.24702676 203.49760554 408.3857152 205.00444516 409.52832031 206.50830078 C472.05332381 288.82170883 509.54081908 394.349506 509.8125 571.25 C509.68891113 572.4477002 509.56532227 573.64540039 509.43798828 574.87939453 C499.69947674 665.52427957 466.8978918 752.65245772 411.8125 828.25 C411.34054199 828.89614258 410.86858398 829.54228516 410.38232422 830.20800781 C403.973058 838.94964639 397.33596283 847.40927688 390.23632812 855.59960938 C388.71390227 857.36428681 387.20740853 859.14171295 385.703125 860.921875 C381.09192215 866.36699598 376.50899092 871.7419298 371.3671875 876.69921875 C369.68821816 878.37396958 368.16212709 880.13192726 366.625 881.9375 C359.98076942 889.62924441 352.66483879 896.83255954 344.92578125 903.41796875 C342.75629896 905.29872142 340.6482322 907.23870865 338.54443359 909.19238281 C332.49706088 914.80192804 326.28029545 920.12703158 319.8125 925.25 C318.86576416 926.00555176 318.86576416 926.00555176 317.89990234 926.77636719 C273.33296469 962.27475602 223.5157842 990.18741769 169.8125 1009.25 C168.37753174 1009.76191895 168.37753174 1009.76191895 166.91357422 1010.28417969 C130.89812193 1023.01845397 93.71523775 1030.82955367 55.8125 1035.25 C55.17390549 1035.33621109 54.53531097 1035.42242218 53.87736511 1035.51124573 C44.79945365 1036.6070352 35.65675437 1036.45417068 26.52734375 1036.48828125 C25.13003619 1036.49439454 25.13003619 1036.49439454 23.7045002 1036.50063133 C18.75165157 1036.52143299 13.79882997 1036.53574728 8.84594727 1036.54516602 C4.82300219 1036.55393078 0.80041331 1036.5745841 -3.22241211 1036.60668945 C-27.88409432 1036.79914788 -51.7933518 1036.10187614 -76.1875 1032.25 C-77.43549881 1032.05543716 -78.68349762 1031.86087433 -79.96931458 1031.66041565 C-168.88674626 1017.63487821 -254.9251144 978.60998209 -323.1953125 919.8046875 C-326.06668941 917.35314638 -328.99028357 914.98440595 -331.9375 912.625 C-336.26781021 909.10544453 -340.1984199 905.34593407 -344.08984375 901.3515625 C-345.97453065 899.46336594 -347.90367096 897.7238718 -349.9375 896 C-357.99812581 889.0701233 -365.5787711 881.36278071 -372.45703125 873.26171875 C-374.60283274 870.76716397 -376.83335677 868.35781018 -379.0625 865.9375 C-383.98263443 860.53499945 -388.63007746 854.96013746 -393.1875 849.25 C-393.8074585 848.47946289 -393.8074585 848.47946289 -394.43994141 847.69335938 C-431.63138733 801.42434729 -460.60988901 749.25959861 -480.1875 693.25 C-480.53474121 692.28175293 -480.88198242 691.31350586 -481.23974609 690.31591797 C-490.13181523 665.50904187 -496.37272215 639.95719114 -501.125 614.0625 C-501.26865997 613.28179138 -501.41231995 612.50108276 -501.56033325 611.69671631 C-502.49702957 606.55716054 -503.4056148 601.41557502 -504.1875 596.25 C-504.4446302 594.69475616 -504.4446302 594.69475616 -504.70695496 593.10809326 C-506.67570113 579.77663789 -506.53475992 566.42775227 -506.55859375 552.9765625 C-506.56530616 550.99648199 -506.57202171 549.01640148 -506.57902867 547.036322 C-506.60037012 540.81066599 -506.60981204 534.58506406 -506.61303711 528.359375 C-506.61624588 522.73517757 -506.63729846 517.11137753 -506.67456055 511.48730469 C-507.06226506 451.63641619 -507.06226506 451.63641619 -501.1875 423.25 C-500.84071821 421.42223894 -500.49648369 419.59399161 -500.15551758 417.76513672 C-499.32599587 413.44366098 -498.37875203 409.15890945 -497.375 404.875 C-497.03172017 403.37362068 -496.68845899 401.87223709 -496.34521484 400.37084961 C-478.66075479 323.88172876 -444.15549917 250.99333937 -394.1875 190.25 C-393.48496094 189.37472656 -392.78242188 188.49945313 -392.05859375 187.59765625 C-387.46742552 181.90460764 -382.70496824 176.42294963 -377.7421875 171.05078125 C-376.41818886 169.59924146 -375.09735136 168.14376493 -373.82617188 166.64575195 C-368.18591224 160.01489955 -362.02531073 153.9017287 -355.87353516 147.75073242 C-353.95053818 145.82555298 -352.03569426 143.89250969 -350.12109375 141.95898438 C-343.84768998 135.65756575 -337.55327817 129.63560735 -330.55126953 124.14013672 C-328.03659499 122.12933211 -325.67467571 119.9995037 -323.3125 117.8125 C-255.96585597 56.69383716 -163.5881436 18.79050765 0 0 Z M-301.1875 112.25 C-301.81462891 112.73001465 -302.44175781 113.2100293 -303.08789062 113.70458984 C-310.75282707 119.58973607 -318.06929932 125.7062506 -325.1875 132.25 C-326.5167238 133.42134665 -327.84988407 134.58824593 -329.1875 135.75 C-337.69398442 143.17521875 -345.90702078 150.80975142 -353.875 158.8125 C-354.77283203 159.70646484 -355.67066406 160.60042969 -356.59570312 161.52148438 C-361.67012213 166.60333843 -366.5221675 171.79253669 -371.1875 177.25 C-372.2088583 178.40678703 -373.23225922 179.56177416 -374.2578125 180.71484375 C-381.74374324 189.19736102 -388.75387096 197.9542758 -395.51953125 207.02001953 C-397.2105505 209.28081723 -398.91712966 211.52925822 -400.625 213.77734375 C-419.12311476 238.30002638 -434.35791788 264.87026909 -448.1875 292.25 C-448.62449219 293.11318848 -449.06148438 293.97637695 -449.51171875 294.86572266 C-483.95054199 363.46520942 -500.46934187 441.48148543 -500.375 518 C-500.37406342 518.9885498 -500.37312683 519.97709961 -500.37216187 520.99560547 C-500.29261264 559.92534954 -496.04458237 598.3216876 -487.1875 636.25 C-486.81334961 637.87397705 -486.81334961 637.87397705 -486.43164062 639.53076172 C-471.42828037 703.64216423 -443.33524061 766.27241423 -404.1875 819.25 C-403.41148437 820.30832031 -402.63546875 821.36664062 -401.8359375 822.45703125 C-399.64602183 825.40916139 -397.42673976 828.33512755 -395.1875 831.25 C-394.56391602 832.06283447 -394.56391602 832.06283447 -393.92773438 832.89208984 C-388.85011998 839.49110795 -383.65486948 845.97809654 -378.25 852.3125 C-377.82098389 852.81700684 -377.39196777 853.32151367 -376.94995117 853.84130859 C-367.72338493 864.5453914 -357.91312971 874.71103308 -347.92358398 884.69921875 C-346.11737805 886.50763126 -344.31937658 888.32395139 -342.52148438 890.140625 C-336.4432423 896.24745506 -330.31726206 902.03066885 -323.53710938 907.36181641 C-321.16550339 909.26767682 -318.95721209 911.28229584 -316.75 913.375 C-308.75852679 920.64343516 -299.90152547 926.88646824 -291.1875 933.25 C-290.43984375 933.79624023 -289.6921875 934.34248047 -288.921875 934.90527344 C-210.68678814 991.76133793 -112.30316747 1028.07026279 -15.0390625 1028.453125 C-13.83557663 1028.46013931 -12.63209076 1028.46715363 -11.39213562 1028.47438049 C-7.53221847 1028.49177304 -3.67245489 1028.49823247 0.1875 1028.5 C0.84612156 1028.50044186 1.50474312 1028.50088371 2.18332291 1028.50133896 C22.58771886 1028.5085128 42.58568531 1028.08618127 62.8125 1025.25 C64.74174316 1024.99259033 64.74174316 1024.99259033 66.70996094 1024.72998047 C159.50105791 1012.25524281 249.42523169 973.47730527 320.46240234 912.12915039 C322.59029665 910.29279007 324.73280282 908.47746916 326.89599609 906.68286133 C335.9303736 899.14256106 344.30165527 891.03901236 352.58325195 882.68505859 C354.76647978 880.48338095 356.95779844 878.29000468 359.15039062 876.09765625 C360.56818346 874.6749525 361.98551784 873.25179168 363.40234375 871.828125 C364.36502419 870.86377533 364.36502419 870.86377533 365.34715271 869.87994385 C369.69066849 865.49136724 373.7926544 860.93576562 377.8125 856.25 C378.50983246 855.44412193 378.50983246 855.44412193 379.22125244 854.6219635 C440.93859392 783.13759703 481.7269631 694.37281151 500.8125 569.25 C500.93109375 568.12722656 501.0496875 567.00445313 501.171875 565.84765625 C504.41293159 533.70717837 504.2326588 500.36279774 500.8125 468.25 C500.68891113 467.0650293 500.56532227 465.88005859 500.43798828 464.65917969 C493.51610638 400.57513856 474.6138819 339.79124116 445.8125 282.25 C445.37083496 281.35877441 444.92916992 280.46754883 444.47412109 279.54931641 C428.31449097 247.08036969 407.11902581 216.97124315 383.8125 189.25 C383.15846191 188.46858643 383.15846191 188.46858643 382.49121094 187.67138672 C371.55345467 174.63196985 359.94565173 162.30716936 347.9375 150.25 C346.76078735 149.06627808 346.76078735 149.06627808 345.56030273 147.85864258 C340.80556216 143.11701019 335.9161692 138.61201938 330.8125 134.25 C329.69473755 133.27670157 328.57752527 132.30277083 327.4609375 131.328125 C319.43772427 124.3776635 311.25932559 117.67926501 302.8125 111.25 C302.10496582 110.71117188 301.39743164 110.17234375 300.66845703 109.6171875 C218.03997665 47.0160642 114.93190402 9.92890999 2.5625 9 C1.58406128 8.99932526 0.60562256 8.99865051 -0.40246582 8.99795532 C-99.43622655 9.10529975 -197.96306994 39.66756298 -301.1875 112.25 Z " fill="#055A2A" transform="translate(506.1875,0.75)"/>
<path d="M0 0 C10.72196045 -0.11811217 21.30285472 0.14866001 32 1 C54.35059983 2.67516747 76.55694411 3.39343092 99 4 C99 70.99 99 137.98 99 207 C86.79 207 74.58 207 62 207 C61.67 152.88 61.34 98.76 61 43 C57.24332789 79.39239529 57.24332789 79.39239529 53.77111816 115.80892944 C53.27520802 121.30284794 52.76998832 126.79591466 52.265625 132.2890625 C52.16312439 133.40707748 52.06062378 134.52509247 51.95501709 135.67698669 C50.55665433 150.88612803 49.08210665 166.08800717 47.61132812 181.2902832 C47.51064026 182.33161407 47.40995239 183.37294495 47.30621338 184.4458313 C47.12049995 186.36527965 46.93445678 188.28469614 46.74798584 190.20407104 C46.14129193 196.46725932 45.56363369 202.73279366 45 209 C34.27532368 209.23258334 23.6943445 208.93691486 13 208.0625 C11.87650146 207.97129883 10.75300293 207.88009766 9.59545898 207.78613281 C7.39122252 207.6059596 5.1870377 207.42515317 2.98291016 207.24365234 C-16.70069024 205.63584147 -36.16655819 206 -56 206 C-56 139.34 -56 72.68 -56 4 C-43.79 4 -31.58 4 -19 4 C-18.67 64.72 -18.34 125.44 -18 188 C-16.35 170.18 -14.7 152.36 -13 134 C-11.93661946 123.21920467 -10.86813518 112.43975564 -9.76976395 101.66260529 C-9.10101623 95.08816773 -8.44059421 88.5128863 -7.78125 81.9375 C-7.67070376 80.83533079 -7.67070376 80.83533079 -7.55792427 79.71089554 C-5.81960764 62.35585285 -4.1812047 44.99155436 -2.5625 27.625 C-2.49641163 26.91601814 -2.43032326 26.20703629 -2.36223221 25.47657013 C-1.57098662 16.98473474 -0.78341272 8.49256169 0 0 Z " fill="#036634" transform="translate(487,416)"/>
<path d="M0 0 C15.86357573 -0.80622059 32.22371591 4.98427924 43.98828125 15.4921875 C48.96725714 20.18286091 52.74871202 25.01981196 55.61328125 31.2421875 C56.02320313 32.1084375 56.433125 32.9746875 56.85546875 33.8671875 C63.14595597 49.48494887 59.88943091 67.18776872 53.61328125 82.2421875 C46.61685175 98.22755716 35.3181235 106.05582724 19.76171875 112.40625 C4.81194656 116.37554435 -12.20260854 112.79217115 -25.30859375 105.2578125 C-38.80678436 96.4188958 -45.22549346 85.40206247 -50.01171875 70.265625 C-53.11822493 53.50343543 -47.71063007 35.61889305 -38.3046875 21.80078125 C-30.26052303 11.06976755 -18.07145204 2.51099262 -4.4921875 0.421875 C-2.99365027 0.293985 -1.4963008 0.15183412 0 0 Z " fill="#FDFDFD" transform="translate(602.38671875,97.7578125)"/>
<path d="M0 0 C6.25630567 5.02372007 11.54718642 10.32077963 16 17 C16.556875 17.78375 17.11375 18.5675 17.6875 19.375 C19.70098324 23.40196647 20.82953355 27.66363335 22 32 C22.2784375 32.94939453 22.2784375 32.94939453 22.5625 33.91796875 C25.49976195 47.89618856 20.76836122 62.451337 13.7265625 74.4765625 C5.41226239 86.6282319 -6.40309554 97.56271626 -20.87890625 101.4921875 C-35.93955925 103.94260664 -50.6155105 102.14310361 -63.59375 93.7578125 C-76.19824615 84.54998252 -85.62679537 73.49805688 -89 58 C-91.27048234 41.04636764 -86.9077373 26.85672867 -77 13 C-57.86159185 -11.74673289 -25.96798641 -19.45398304 0 0 Z " fill="#FDFDFD" transform="translate(755,165)"/>
<path d="M0 0 C1.57048844 -0.02348965 3.14086056 -0.05741976 4.71087646 -0.10253906 C15.35139975 -0.39288193 24.64737195 0.64382793 33.05160522 7.97412109 C39.04701422 14.68405445 39.85953493 21.14330609 39.67221069 29.81982422 C39.06838419 36.07949227 37.19897306 39.67547464 32.69564819 43.96435547 C30.32064819 45.46435547 30.32064819 45.46435547 28.32064819 45.46435547 C28.32064819 46.12435547 28.32064819 46.78435547 28.32064819 47.46435547 C28.98064819 47.50560547 29.64064819 47.54685547 30.32064819 47.58935547 C37.32093002 49.63110433 41.82643801 54.47261118 45.41049194 60.63232422 C48.73885098 67.3318967 48.36158605 77.01215139 46.67221069 84.23779297 C43.13171781 92.8620705 36.55205879 99.30935725 28.32064819 103.46435547 C22.13738006 106.00165322 16.20707497 107.0635984 9.57064819 107.52685547 C8.59998413 107.60210449 7.62932007 107.67735352 6.62924194 107.75488281 C-12.10944036 109.10248971 -30.9097153 109.70428295 -49.67935181 110.46435547 C-49.7272435 109.45561371 -49.77513519 108.44687195 -49.82447815 107.40756226 C-50.27863158 97.84634407 -50.73455022 88.28521143 -51.19214535 78.72415733 C-51.42727712 73.81012374 -51.66181221 68.89606327 -51.89492798 63.98193359 C-52.12041356 59.22913329 -52.34753922 54.47641381 -52.57574654 49.72374344 C-52.66202357 47.92113591 -52.74773466 46.11850118 -52.83283806 44.31583786 C-53.27203997 35.02055078 -53.75207295 25.74031826 -54.48869324 16.46304321 C-54.78541719 11.79615362 -54.76519619 7.13810508 -54.67935181 2.46435547 C-36.47434466 1.27463049 -18.24570715 0.23096702 0 0 Z " fill="#FCFDFC" transform="translate(489.6793518066406,86.53564453125)"/>
<path d="M0 0 C1.16692383 -0.0309375 1.16692383 -0.0309375 2.35742188 -0.0625 C10.90761634 -0.11954884 17.20393031 2.33778986 23.484375 8.1484375 C30.29026162 15.97229861 31.70066613 24.58158988 31.6796875 34.609375 C31.14763745 39.88459469 29.15729232 43.8405719 26.3125 48.25 C27.05757813 48.38148438 27.80265625 48.51296875 28.5703125 48.6484375 C35.94241621 50.26567962 41.78116451 54.26557802 46.3125 60.25 C48.76353887 64.18624908 50.95577942 68.26615246 53.16015625 72.34375 C55.29149287 76.27213296 57.66828779 79.97860577 60.21875 83.6484375 C61.3125 85.25 61.3125 85.25 62.3125 87.25 C58.7038678 88.80441135 55.09257525 90.35245143 51.47875977 91.89477539 C49.64913006 92.67718124 47.82161885 93.46453513 45.99414062 94.25195312 C44.83720703 94.74501953 43.68027344 95.23808594 42.48828125 95.74609375 C41.42520752 96.20169678 40.36213379 96.6572998 39.2668457 97.12670898 C36.59752438 98.14162903 34.12422097 98.79312375 31.3125 99.25 C27.46581523 93.96519297 23.92463547 88.65609559 20.75 82.9375 C18.02877687 78.24927301 16.08036682 74.92000542 11.3125 72.25 C2.24023163 70.49407709 -5.69286497 75.40472769 -13.6875 79.25 C-11.09351647 87.54040584 -7.65283838 95.3342609 -4.09570312 103.25 C-3.65806641 104.23742187 -3.22042969 105.22484375 -2.76953125 106.2421875 C-2.36968018 107.13276855 -1.9698291 108.02334961 -1.55786133 108.94091797 C-0.6875 111.25 -0.6875 111.25 -0.6875 114.25 C-4.6148898 115.98963642 -8.54754674 117.71656198 -12.4855957 119.43188477 C-13.82468418 120.01727952 -15.16226714 120.60613072 -16.49829102 121.19848633 C-18.41818775 122.0490013 -20.34314313 122.88696767 -22.26953125 123.72265625 C-23.42686768 124.23062744 -24.5842041 124.73859863 -25.77661133 125.26196289 C-28.6875 126.25 -28.6875 126.25 -31.6875 125.25 C-33.01178753 122.73591394 -34.14808725 120.28925342 -35.2421875 117.67578125 C-35.58000244 116.89294266 -35.91781738 116.11010406 -36.26586914 115.30354309 C-37.37481919 112.72738896 -38.46855902 110.14505894 -39.5625 107.5625 C-40.3285307 105.77607541 -41.09562899 103.99010824 -41.86376953 102.20458984 C-43.41451514 98.59616878 -44.95971774 94.98545817 -46.5 91.37255859 C-48.9680317 85.58642826 -51.46554565 79.81334297 -53.97070312 74.04321289 C-55.02430741 71.61523676 -56.07513109 69.18605194 -57.12304688 66.75561523 C-59.68958512 60.80884804 -62.2940342 54.88336223 -64.96875 48.984375 C-65.48969238 47.8279248 -66.01063477 46.67147461 -66.54736328 45.47998047 C-67.53066457 43.30264785 -68.52329856 41.12949688 -69.52685547 38.96142578 C-69.95885254 38.00220215 -70.39084961 37.04297852 -70.8359375 36.0546875 C-71.41093994 34.80147705 -71.41093994 34.80147705 -71.99755859 33.52294922 C-72.79751451 30.88756719 -72.88307295 29.73298645 -71.6875 27.25 C-69.83447266 26.02416992 -69.83447266 26.02416992 -67.3515625 24.98046875 C-66.40555176 24.5736084 -65.45954102 24.16674805 -64.48486328 23.74755859 C-63.4379834 23.31523926 -62.39110352 22.88291992 -61.3125 22.4375 C-60.23081543 21.97682129 -59.14913086 21.51614258 -58.03466797 21.04150391 C-55.61527263 20.01203855 -53.19408687 18.98830285 -50.76953125 17.97119141 C-46.28246595 16.08493459 -41.81294962 14.15859423 -37.34375 12.23046875 C-31.15106315 9.56156654 -24.95761995 6.89451509 -18.7578125 4.2421875 C-18.08697632 3.95413742 -17.41614014 3.66608734 -16.72497559 3.36930847 C-10.92248994 0.89067318 -6.28397041 0.04064007 0 0 Z " fill="#FDFDFD" transform="translate(365.6875,111.75)"/>
<path d="M0 0 C14.85 0 29.7 0 45 0 C45 64.35 45 128.7 45 195 C30.15 195 15.3 195 0 195 C0 130.65 0 66.3 0 0 Z " fill="#FCFDFC" transform="translate(658,426)"/>
<path d="M0 0 C8.58 0 17.16 0 26 0 C26 29.37 26 58.74 26 89 C23.525 89.495 23.525 89.495 21 90 C21 61.95 21 33.9 21 5 C15.72 5 10.44 5 5 5 C5 35.03 5 65.06 5 96 C0.545 96.99 0.545 96.99 -4 98 C-4 85.46 -4 72.92 -4 60 C-14.89 60 -25.78 60 -37 60 C-37 74.85 -37 89.7 -37 105 C-50.94645629 106.26785966 -64.99603231 106 -79 106 C-79.33 76.96 -79.66 47.92 -80 18 C-81.134375 29.281875 -82.26875 40.56375 -83.4375 52.1875 C-83.79384521 55.72364014 -84.15019043 59.25978027 -84.51733398 62.90307617 C-84.84084401 66.12813098 -84.84084401 66.12813098 -85.16395569 69.35322571 C-85.30585883 70.76771 -85.44834383 72.182136 -85.59132385 73.59651184 C-86.42427067 81.84072403 -87.19655219 90.07889132 -87.74085999 98.34858704 C-87.96782764 100.67082581 -88.35817775 102.76223698 -89 105 C-94.58339141 105.17168182 -99.75689112 104.53054788 -105.25 103.5625 C-106.45269531 103.36043945 -106.45269531 103.36043945 -107.6796875 103.15429688 C-110.90288543 102.60182566 -113.88945882 102.03684706 -117 101 C-116.09498236 88.04387201 -114.8311023 75.11817982 -113.625 62.1875 C-113.40006943 59.76807357 -113.17521631 57.34863994 -112.95043945 54.92919922 C-111.3102503 37.28520542 -109.66234017 19.64192148 -108 2 C-100.44951144 1.90410387 -93.09873741 1.87188869 -85.625 3 C-84.35914063 3.185625 -83.09328125 3.37125 -81.7890625 3.5625 C-80.40847656 3.7790625 -80.40847656 3.7790625 -79 4 C-79 3.34 -79 2.68 -79 2 C-66.79 2 -54.58 2 -42 2 C-42 19.82 -42 37.64 -42 56 C-28.14 56 -14.28 56 0 56 C0 37.52 0 19.04 0 0 Z " fill="#026634" transform="translate(576,665)"/>
<path d="M0 0 C10.23 0 20.46 0 31 0 C35.50507393 11.26268484 35.50507393 11.26268484 36.5625 15.33984375 C36.91876465 16.7009729 36.91876465 16.7009729 37.28222656 18.08959961 C37.5190918 19.02940674 37.75595703 19.96921387 38 20.9375 C38.38236816 22.44292358 38.38236816 22.44292358 38.77246094 23.97875977 C39.52691868 26.98303331 40.26596938 29.99067779 41 33 C41.20689453 33.83273437 41.41378906 34.66546875 41.62695312 35.5234375 C53.91124229 85.65999396 48.03046885 141.49036797 29 189 C27.68 192.3 26.36 195.6 25 199 C16.75 199 8.5 199 0 199 C0 133.33 0 67.66 0 0 Z " fill="#036634" transform="translate(711,424)"/>
<path d="M0 0 C0.94174072 0.40758545 1.88348145 0.8151709 2.85375977 1.23510742 C28.58515341 12.4880135 52.12929541 26.38885945 74 44 C74.51643066 44.4120166 75.03286133 44.8240332 75.56494141 45.24853516 C83.9663186 52.00859229 91.6713622 59.46543429 99.3125 67.0625 C100.231521 67.97225586 101.15054199 68.88201172 102.09741211 69.81933594 C108.15609593 75.90592483 113.68090371 82.26102175 119 89 C119.56968506 89.710354 120.13937012 90.42070801 120.72631836 91.15258789 C142.68801204 118.66515158 159.25322407 149.87705893 171 183 C171.24202148 183.680625 171.48404297 184.36125 171.73339844 185.0625 C177.76181506 202.34219052 181.47061265 220.51805039 184.3125 238.5625 C184.47177979 239.55878418 184.63105957 240.55506836 184.79516602 241.58154297 C186.96692656 256.21071346 187.21057774 270.98656053 187.1875 285.75 C187.18656342 286.53536133 187.18562683 287.32072266 187.18466187 288.12988281 C187.1528029 300.51941086 186.82289527 312.72509297 185 325 C184.77401123 326.54300781 184.77401123 326.54300781 184.54345703 328.1171875 C175.41803399 388.28712386 149.87164214 444.72264659 109 490 C108.45375977 490.6079541 107.90751953 491.2159082 107.34472656 491.84228516 C94.96806542 505.54980804 81.7899668 517.93167779 67 529 C66.18958252 529.61174072 66.18958252 529.61174072 65.36279297 530.23583984 C4.32607512 576.04563865 -72.52225963 595.79929352 -148.18212891 586.62158203 C-176.7717416 582.52973537 -204.95274834 574.45555168 -231 562 C-231.68400879 561.67386719 -232.36801758 561.34773437 -233.07275391 561.01171875 C-237.76021895 558.75940245 -242.39483779 556.41589823 -247 554 C-247.64114746 553.66419922 -248.28229492 553.32839844 -248.94287109 552.98242188 C-269.46089068 542.11781869 -288.3881757 528.36269726 -305.31640625 512.5 C-307.60958458 510.36370577 -309.93663261 508.29297234 -312.3125 506.25 C-318.75903867 500.6425769 -324.45153329 494.48409051 -330 488 C-330.80179687 487.08734375 -331.60359375 486.1746875 -332.4296875 485.234375 C-356.35552645 457.7957557 -374.80879611 425.59908696 -387.1105957 391.39306641 C-388.01981668 388.94668045 -389.00737085 386.54317444 -390.0078125 384.1328125 C-397.5402669 365.41701552 -401.03445509 344.86118562 -404 325 C-404.13277344 324.11135254 -404.26554688 323.22270508 -404.40234375 322.30712891 C-409.34008318 287.15347556 -406.77335801 248.9145369 -398.58789062 214.52197266 C-398.06155859 212.26407818 -397.58787714 210.00508076 -397.140625 207.73046875 C-388.52518818 165.27384435 -365.84028682 122.82175544 -338.32568359 89.60205078 C-337.44961759 88.54335002 -336.5799998 87.47927649 -335.71728516 86.40966797 C-328.95431534 78.02563091 -321.52705384 70.32105171 -313.9375 62.6875 C-313.02766357 61.76839844 -312.11782715 60.84929687 -311.18041992 59.90234375 C-305.09489965 53.84472616 -298.74691477 48.3077987 -292 43 C-291.3205835 42.46125244 -290.64116699 41.92250488 -289.94116211 41.36743164 C-220.43857947 -13.16366828 -130.9702683 -33.02782861 0 0 Z M-243 16 C-243.83547363 16.42539063 -244.67094727 16.85078125 -245.53173828 17.2890625 C-279.01786384 34.56503325 -310.95106511 61.17196662 -334 91 C-335.07519598 92.33724725 -336.15216704 93.67306832 -337.23046875 95.0078125 C-356.80076816 119.41519698 -371.49567078 146.94801001 -383 176 C-383.71542969 177.79824219 -383.71542969 177.79824219 -384.4453125 179.6328125 C-404.36126348 232.61675756 -406.03599058 289.8377671 -396 345 C-395.83693359 345.90266602 -395.67386719 346.80533203 -395.50585938 347.73535156 C-387.85391917 388.57110417 -369.56418639 428.65826038 -345 462 C-344.58153809 462.5686377 -344.16307617 463.13727539 -343.73193359 463.72314453 C-335.2428047 475.166742 -326.01434781 485.94626826 -316.3125 496.375 C-315.70704346 497.02895752 -315.10158691 497.68291504 -314.4777832 498.35668945 C-310.22613319 502.87907182 -305.71565664 506.96932925 -301 511 C-299.92790375 511.94850848 -298.8574823 512.8989147 -297.7890625 513.8515625 C-257.88996135 549.01719078 -208.2626521 571.87994028 -156 581 C-155.07719238 581.16516113 -154.15438477 581.33032227 -153.20361328 581.50048828 C-122.11816951 586.81419239 -88.9379399 585.59131329 -58 580 C-57.10039551 579.84515137 -56.20079102 579.69030273 -55.27392578 579.53076172 C-34.03089306 575.8139513 -13.67175308 568.7169486 6 560 C6.94375488 559.58234375 7.88750977 559.1646875 8.85986328 558.734375 C39.91059235 544.81996022 66.60288482 525.30641199 91.4375 502.25 C92.08807373 501.64808838 92.73864746 501.04617676 93.40893555 500.42602539 C97.91386633 496.19205048 101.98498948 491.69642164 106 487 C106.94851871 485.9279128 107.89892482 484.85749132 108.8515625 483.7890625 C121.0572306 469.9385664 131.62203949 454.89032724 141 439 C141.40814941 438.3100293 141.81629883 437.62005859 142.23681641 436.90917969 C174.95521268 381.0721663 187.92292413 315.74493796 181.6875 251.5 C181.56987305 250.26838135 181.45224609 249.0367627 181.33105469 247.76782227 C180.40947171 239.05108506 178.83031489 230.56297096 177 222 C176.68057835 220.43367756 176.36149267 218.8672865 176.04296875 217.30078125 C166.61648581 172.65848372 146.5514701 130.54937944 118 95 C117.19820312 93.98550781 116.39640625 92.97101563 115.5703125 91.92578125 C102.46692273 75.5815175 87.63911273 59.77516783 71 47 C69.49759766 45.80697266 69.49759766 45.80697266 67.96484375 44.58984375 C59.94956132 38.25687225 51.62647882 32.46845615 43 27 C42.05012207 26.39720215 42.05012207 26.39720215 41.08105469 25.78222656 C-45.39397075 -28.44491168 -152.97722008 -29.92466454 -243 16 Z " fill="#F2F4EC" transform="translate(617,236)"/>
<path d="M0 0 C3.9457148 1.31523827 4.69537877 3.07262633 7.01171875 6.49609375 C7.38480667 7.04483658 7.75789459 7.59357941 8.14228821 8.15895081 C8.92848402 9.31898294 9.71080172 10.48165154 10.48950195 11.64672852 C11.68464631 13.43323429 12.89297483 15.21022897 14.10351562 16.98632812 C20 25.7143398 20 25.7143398 20 28 C17.9375 29.55859375 17.9375 29.55859375 15 31.4375 C13.38351562 32.48744141 13.38351562 32.48744141 11.734375 33.55859375 C10.84395508 34.13649658 10.84395508 34.13649658 9.93554688 34.72607422 C6.33594027 37.09524012 2.79608005 39.55176159 -0.75 42 C-1.46542969 42.49298584 -2.18085937 42.98597168 -2.91796875 43.49389648 C-4.61253054 44.66179805 -6.30634854 45.83077869 -8 47 C-6.18897186 47.20510439 -4.37771463 47.40829175 -2.56567383 47.60424805 C-0.90521343 47.78844837 0.75383629 47.98573219 2.41137695 48.19458008 C7.50573516 48.79426937 12.36042295 49.00437758 17.48828125 48.76953125 C33.85342179 48.36153937 33.85342179 48.36153937 39.62158203 53.19824219 C44.39436528 58.67045975 48.00655297 64.75725011 51.42382812 71.14111328 C53.37301255 74.67657635 55.60242011 77.9572708 57.92480469 81.25561523 C59 83 59 83 59 85 C48.98635038 84.40431623 39.13074726 82.92955298 29.22460938 81.41601562 C26.47853693 80.99672284 23.73155327 80.58385411 20.984375 80.171875 C19.22911048 79.90662152 17.47390008 79.64100963 15.71875 79.375 C14.90208862 79.25205566 14.08542725 79.12911133 13.24401855 79.00244141 C9.78199319 78.47154015 6.38771719 77.88742206 3 77 C2.74150269 77.91531494 2.74150269 77.91531494 2.4777832 78.84912109 C0.71222654 84.93559936 -1.39850393 90.76910523 -3.8125 96.625 C-4.53128242 98.39529208 -5.24871739 100.16613182 -5.96484375 101.9375 C-6.31401855 102.80117188 -6.66319336 103.66484375 -7.02294922 104.5546875 C-8.59952575 108.50046226 -10.07965154 112.47918349 -11.55639648 116.46337891 C-15.60093746 127.34781218 -19.8209445 138.16669766 -24 149 C-24.99 149 -25.98 149 -27 149 C-28.65625 146.9375 -28.65625 146.9375 -30.5 144 C-31.19351563 142.91847656 -31.88703125 141.83695313 -32.6015625 140.72265625 C-32.98086914 140.12855957 -33.36017578 139.53446289 -33.75097656 138.92236328 C-36.05357292 135.37845324 -38.47053659 131.91272577 -40.875 128.4375 C-41.81016023 127.08221365 -42.74507188 125.72675572 -43.6796875 124.37109375 C-44.07913574 123.79286865 -44.47858398 123.21464355 -44.89013672 122.61889648 C-48.00722406 118.07217274 -48.00722406 118.07217274 -47.76611328 115.66333008 C-46.94091093 112.79458169 -45.91604797 110.13178525 -44.7421875 107.38671875 C-44.28432861 106.31019043 -43.82646973 105.23366211 -43.35473633 104.12451172 C-42.62226685 102.42319092 -42.62226685 102.42319092 -41.875 100.6875 C-41.38088623 99.53008301 -40.88677246 98.37266602 -40.37768555 97.18017578 C-36.63584257 88.43112642 -32.84387231 79.70466134 -29 71 C-40.43964619 69.76071389 -46.63961516 72.21187645 -55.6875 79.0625 C-57.76873514 80.58247466 -59.85569711 82.09464933 -61.94921875 83.59765625 C-62.84987061 84.27320557 -63.75052246 84.94875488 -64.6784668 85.64477539 C-65.44457275 86.09199951 -66.21067871 86.53922363 -67 87 C-70.96589479 85.67803507 -71.7034139 83.88737319 -74.01171875 80.43359375 C-74.38480667 79.88010757 -74.75789459 79.3266214 -75.14228821 78.75636292 C-76.33156728 76.98833367 -77.50959365 75.21312121 -78.6875 73.4375 C-79.49210824 72.23714036 -80.29743832 71.03726424 -81.10351562 69.83789062 C-83.07741565 66.89749048 -85.0412914 63.95054781 -87 61 C-84.22894102 58.14471612 -81.58399261 55.51188689 -78.2421875 53.34375 C-77.54424072 52.88556885 -76.84629395 52.4273877 -76.12719727 51.95532227 C-75.38397217 51.47506592 -74.64074707 50.99480957 -73.875 50.5 C-72.25580885 49.43726607 -70.63734235 48.37342738 -69.01953125 47.30859375 C-68.1888916 46.76315918 -67.35825195 46.21772461 -66.50244141 45.65576172 C-62.49207715 43.00226997 -58.52644926 40.28465588 -54.5625 37.5625 C-53.37950317 36.75111572 -53.37950317 36.75111572 -52.17260742 35.92333984 C-50.57414264 34.82668272 -48.97591636 33.72967789 -47.37792969 32.63232422 C-43.4838425 29.95923726 -39.58566085 27.29214123 -35.6875 24.625 C-34.92244141 24.10123779 -34.15738281 23.57747559 -33.36914062 23.0378418 C-28.93515431 20.00345848 -24.49683118 16.97555556 -20.0546875 13.953125 C-18.55869019 12.93484619 -18.55869019 12.93484619 -17.0324707 11.89599609 C-15.09146227 10.57518493 -13.14991586 9.25516393 -11.20776367 7.93603516 C-9.884823 7.03570557 -9.884823 7.03570557 -8.53515625 6.1171875 C-7.36545288 5.32223877 -7.36545288 5.32223877 -6.17211914 4.51123047 C-3.96374554 3.02300145 -3.96374554 3.02300145 -1.90405273 1.24267578 C-1.27571533 0.83259277 -0.64737793 0.42250977 0 0 Z " fill="#FDFDFD" transform="translate(829,235)"/>
<path d="M0 0 C0.74056641 0.00902344 1.48113281 0.01804687 2.24414062 0.02734375 C4.05873467 0.05075787 5.87316071 0.08662385 7.6875 0.125 C7.16839929 7.37270968 5.89021888 14.20890284 4.125 21.25 C3.89103516 22.20648438 3.65707031 23.16296875 3.41601562 24.1484375 C2.84588044 26.47551988 2.26964777 28.80089932 1.6875 31.125 C1.06681641 31.23529541 0.44613281 31.34559082 -0.19335938 31.45922852 C-1.00611328 31.61834717 -1.81886719 31.77746582 -2.65625 31.94140625 C-3.46255859 32.09295166 -4.26886719 32.24449707 -5.09960938 32.40063477 C-7.67196889 33.02946736 -7.67196889 33.02946736 -9.8125 36.0625 C-12.64913158 41.85395614 -13.37713452 47.93109644 -11.3125 54.125 C-7.68212799 54.54713628 -5.88782033 54.5380505 -2.875 52.375 C2.53227541 46.19279659 6.09177113 38.42413817 9.6237793 31.07470703 C14.6705957 20.61680755 19.97579442 11.52585996 30.6875 6.125 C31.60595703 5.57972656 31.60595703 5.57972656 32.54296875 5.0234375 C38.89304349 2.36311475 47.07322238 3.59599551 53.4375 5.6875 C62.48242054 9.47925708 67.9563081 14.50497218 72.49609375 23.18359375 C75.22155115 29.91234595 76.05093037 36.06291346 76 43.25 C75.99262817 44.49342163 75.99262817 44.49342163 75.98510742 45.76196289 C75.66349845 62.86001538 70.27124134 79.88198273 57.74609375 92.00390625 C50.03066371 98.22301047 42.18623618 100.59068254 32.3515625 100.4609375 C29.66406421 100.12204475 28.04759982 99.38518646 25.6875 98.125 C26.66579949 93.70814079 27.64528897 89.29154631 28.625 84.875 C28.90279297 83.62074219 29.18058594 82.36648438 29.46679688 81.07421875 C29.73427734 79.86894531 30.00175781 78.66367187 30.27734375 77.421875 C30.52347412 76.31166992 30.76960449 75.20146484 31.02319336 74.05761719 C31.54872622 71.73762426 32.09678353 69.42903934 32.6875 67.125 C33.35136719 67.11082031 34.01523438 67.09664063 34.69921875 67.08203125 C39.16349187 66.84089533 41.93591488 66.66869988 45.625 64 C50.15356347 57.68745697 51.84293733 51.81060563 50.6875 44.125 C49.29058883 40.91631449 49.29058883 40.91631449 46.6875 39.125 C43.7757504 38.12423003 43.7757504 38.12423003 40.6875 39.125 C35.14533569 44.69041815 31.82229862 51.06075645 28.25 58 C22.60616303 68.96088965 16.41509574 80.65971846 5 86.5 C-4.9802783 88.38307138 -13.55193821 87.23570337 -22.4375 82.4375 C-30.34241028 76.0792026 -34.89814441 69.07214504 -37.3125 59.125 C-39.13996585 41.73796776 -34.86418064 23.62922165 -23.8046875 9.828125 C-21.68846186 7.53278308 -19.97390532 5.94179507 -17.3125 4.375 C-16.673125 3.98828125 -16.03375 3.6015625 -15.375 3.203125 C-10.13006636 0.46145514 -5.901164 -0.13711373 0 0 Z " fill="#FDFDFC" transform="translate(116.3125,392.875)"/>
<path d="M0 0 C8.88747158 5.75389497 15.1699053 13.82446355 19 23.625 C19.5878125 25.09453125 19.5878125 25.09453125 20.1875 26.59375 C22.75297702 34.07639131 23.40724933 41.06750665 23.5 48.9375 C23.51844971 49.8562793 23.53689941 50.77505859 23.5559082 51.72167969 C23.47547002 60.54280139 20.29921346 69.24970908 14 75.625 C9.26114823 79.08921012 4.85235703 81.72624517 -1 82.625 C-3.21283826 76.94040669 -5.06591691 71.25385106 -6.6875 65.375 C-7.02491211 64.19164062 -7.02491211 64.19164062 -7.36914062 62.984375 C-7.58119141 62.22125 -7.79324219 61.458125 -8.01171875 60.671875 C-8.20209717 59.98963867 -8.39247559 59.30740234 -8.58862305 58.60449219 C-9 56.625 -9 56.625 -9 52.625 C-6.5625 51 -6.5625 51 -4 49.625 C-1.9127009 45.45040181 -2.54958468 40.17063881 -3 35.625 C-4.17516755 32.76720617 -5.80763109 30.81736891 -8 28.625 C-10.41537838 28.20782721 -10.41537838 28.20782721 -13 28.625 C-15.68795549 31.10723847 -16.0017787 32.64139088 -16.40063477 36.31689453 C-16.42851264 37.79700039 -16.44117986 39.27744414 -16.44140625 40.7578125 C-16.45461411 41.54968964 -16.46782196 42.34156677 -16.48143005 43.15744019 C-16.52225384 45.68832832 -16.54394536 48.21885792 -16.5625 50.75 C-16.85052935 80.92616626 -16.85052935 80.92616626 -25.49609375 91.4453125 C-32.03545411 97.68671639 -40.27808696 99.83869213 -49.125 100.125 C-55.27864874 99.91697044 -59.7915138 98.8913388 -65 95.625 C-65.73605469 95.18542969 -66.47210937 94.74585938 -67.23046875 94.29296875 C-80.03202887 85.58967056 -86.55763363 69.252462 -89.63671875 54.59375 C-91.19190354 41.88471299 -90.7953255 28.01005974 -83.25 17.125 C-77.89989168 10.84736034 -71.82994192 7.05498198 -64 4.625 C-63.34 4.625 -62.68 4.625 -62 4.625 C-59.33333333 15.29166667 -56.66666667 25.95833333 -54 36.625 C-54.55429687 36.95113281 -55.10859375 37.27726562 -55.6796875 37.61328125 C-56.40414062 38.05027344 -57.12859375 38.48726563 -57.875 38.9375 C-58.59429688 39.36675781 -59.31359375 39.79601562 -60.0546875 40.23828125 C-62.26846333 41.64252375 -62.26846333 41.64252375 -64 44.625 C-64.96251805 50.85011672 -63.78791824 57.01557414 -61 62.625 C-58.93190172 65.38137346 -58.93190172 65.38137346 -56 66.625 C-52.33025482 66.7201654 -52.33025482 66.7201654 -49 65.625 C-45.7243643 60.71154645 -45.85092881 55.88511362 -45.7890625 50.12109375 C-45.76096517 48.6425676 -45.73230057 47.16405214 -45.703125 45.68554688 C-45.66217611 43.38436525 -45.62524138 41.08337686 -45.59863281 38.78198242 C-45.27551443 12.99100725 -45.27551443 12.99100725 -36 3.625 C-26.67781173 -3.91208839 -10.79588082 -5.39794041 0 0 Z " fill="#FDFDFD" transform="translate(901,375.375)"/>
<path d="M0 0 C4.96672673 1.19728535 9.44440415 3.58009464 13.98632812 5.86376953 C14.76450897 6.25110764 15.54268982 6.63844574 16.3444519 7.03752136 C18.90874046 8.31527674 21.47006876 9.5988414 24.03125 10.8828125 C25.82747935 11.78025269 27.62382735 12.67745545 29.42028809 13.57443237 C33.18742365 15.45652668 36.9530996 17.34150227 40.71777344 19.22851562 C45.50465962 21.6276196 50.29506263 24.01959953 55.08661652 26.4093647 C58.80136422 28.26309246 62.51416594 30.12069142 66.22642517 31.97939682 C67.98939058 32.86153954 69.75293527 33.74252568 71.5171051 34.62225723 C81.86553378 39.78570583 92.03491184 45.12530862 102 51 C94.52849917 59.92935465 86.39684323 68.0825899 77 75 C76.18015625 74.47148437 75.3603125 73.94296875 74.515625 73.3984375 C73.43796875 72.73070312 72.3603125 72.06296875 71.25 71.375 C70.18265625 70.70210938 69.1153125 70.02921875 68.015625 69.3359375 C65.20012225 67.67243391 65.20012225 67.67243391 63.04589844 68.70800781 C60.87001957 70.0820831 59.1157869 71.56411456 57.25 73.3359375 C56.5590625 73.98820312 55.868125 74.64046875 55.15625 75.3125 C54.4446875 75.993125 53.733125 76.67375 53 77.375 C52.2884375 78.04789062 51.576875 78.72078125 50.84375 79.4140625 C49.47979146 80.70676947 48.1201789 82.00408239 46.765625 83.30664062 C45.35914205 84.65555735 43.93283339 85.98379421 42.5 87.3046875 C40.69628617 88.96598589 40.69628617 88.96598589 41 91.75 C42.05666915 95.18417474 43.51240184 98.00058901 45.35546875 101.0703125 C46 103 46 103 45.24658203 104.91577148 C43.93250062 107.11285589 42.58805798 108.55726679 40.69921875 110.27734375 C40.05146484 110.87353516 39.40371094 111.46972656 38.73632812 112.08398438 C38.06021484 112.69564453 37.38410156 113.30730469 36.6875 113.9375 C35.35732924 115.15413534 34.02788779 116.37156858 32.69921875 117.58984375 C32.06419434 118.16718262 31.42916992 118.74452148 30.77490234 119.33935547 C29.18760284 120.82447393 27.69520774 122.35844145 26.20703125 123.94140625 C24 126 24 126 21 126 C14.38119893 110.83225528 7.81453078 95.64613195 1.4375 80.375 C-3.72170658 68.02069477 -8.95781789 55.70200997 -14.24609375 43.40234375 C-14.68937012 42.36964355 -15.13264648 41.33694336 -15.58935547 40.27294922 C-16.61351241 37.89672077 -17.64390616 35.52375959 -18.68017578 33.15283203 C-18.95829605 32.51293839 -19.23641632 31.87304474 -19.52296448 31.21376038 C-20.30734209 29.40915635 -21.09510813 27.60602623 -21.88305664 25.80297852 C-23 23 -23 23 -23 21 C-21.56640625 19.58984375 -21.56640625 19.58984375 -19.5625 17.9375 C-16.34655816 15.21106436 -13.33121804 12.38140849 -10.375 9.375 C-8.91666667 7.91666667 -7.45833333 6.45833333 -6 5 C-5.44183594 4.42121094 -4.88367188 3.84242188 -4.30859375 3.24609375 C-2.8125 1.8125 -2.8125 1.8125 0 0 Z " fill="#FDFDFD" transform="translate(223,192)"/>
<path d="M0 0 C146.19 0 292.38 0 443 0 C441 6 441 6 436 15 C294.43 15 152.86 15 7 15 C4.69 10.05 2.38 5.1 0 0 Z " fill="#006532" transform="translate(289,629)"/>
<path d="M0 0 C139.59 0 279.18 0 423 0 C431 14 431 14 431 15 C286.46 15 141.92 15 -7 15 C-5 9 -5 9 0 0 Z " fill="#056735" transform="translate(299,382)"/>
<path d="M0 0 C10.56 0 21.12 0 32 0 C32 65.34 32 130.68 32 198 C21.44 198 10.88 198 0 198 C0 132.66 0 67.32 0 0 Z " fill="#FFFFFF" transform="translate(393,422)"/>
<path d="M0 0 C9.57 0 19.14 0 29 0 C29 63.36 29 126.72 29 192 C19.43 192 9.86 192 0 192 C0 128.64 0 65.28 0 0 Z " fill="#0A6938" transform="translate(357,430)"/>
<path d="M0 0 C12.21 0 24.42 0 37 0 C37 48.51 37 97.02 37 147 C24.79 147 12.58 147 0 147 C0 98.49 0 49.98 0 0 Z " fill="#026633" transform="translate(589,476)"/>
<path d="M0 0 C1.32 0 2.64 0 4 0 C4 37.29 4 74.58 4 113 C14.89 113 25.78 113 37 113 C37 75.71 37 38.42 37 0 C43.16428056 0 47.54051763 0.08476885 53.3359375 1.27734375 C53.9819693 1.40814835 54.6280011 1.53895294 55.29360962 1.67372131 C57.32251548 2.08681892 59.34863552 2.51213293 61.375 2.9375 C62.75375092 3.21886119 64.13265646 3.49946583 65.51171875 3.77929688 C75.42817649 5.80939216 75.42817649 5.80939216 79 7 C79 42.64 79 78.28 79 115 C66.46 115 53.92 115 41 115 C41 115.66 41 116.32 41 117 C27.47 117 13.94 117 0 117 C0 78.39 0 39.78 0 0 Z " fill="#056735" transform="translate(495,261)"/>
<path d="M0 0 C5.08709417 1.04315431 9.22714242 3.75284417 13.6875 6.3125 C14.56728516 6.79912109 15.44707031 7.28574219 16.35351562 7.78710938 C17.60745117 8.50543945 17.60745117 8.50543945 18.88671875 9.23828125 C19.65201904 9.67180908 20.41731934 10.10533691 21.20581055 10.55200195 C23 12 23 12 23.87890625 13.93115234 C24.03196514 16.54611409 23.41886546 17.64432551 22.05078125 19.86328125 C21.61443359 20.58580078 21.17808594 21.30832031 20.72851562 22.05273438 C20.26123047 22.79845703 19.79394531 23.54417969 19.3125 24.3125 C18.41243885 25.78756425 17.51269571 27.26282259 16.61328125 28.73828125 C16.1745166 29.44936035 15.73575195 30.16043945 15.28369141 30.89306641 C13.45621533 33.8925184 11.72552305 36.94093454 10 40 C10.71647705 40.26917236 11.4329541 40.53834473 12.17114258 40.81567383 C15.02280793 42.00954874 17.5908623 43.39455543 20.26171875 44.94921875 C21.28579834 45.54283203 22.30987793 46.13644531 23.36499023 46.74804688 C25.00963257 47.70807617 25.00963257 47.70807617 26.6875 48.6875 C28.42831034 49.69863452 30.16912456 50.70976245 31.91017151 51.7204895 C33.11325895 52.41916341 34.31608579 53.11828623 35.5186615 53.81784058 C39.70729948 56.25377614 43.9054084 58.67266032 48.109375 61.08203125 C49.26605866 61.74580299 50.42271588 62.40962078 51.5793457 63.07348633 C53.75402264 64.32105999 55.92958531 65.56709152 58.10620117 66.8112793 C64.85912586 70.69352093 71.46421386 74.76248575 78 79 C76.87224648 82.5990771 75.68949597 85.85287761 73.7578125 89.09375 C73.33113281 89.81433594 72.90445313 90.53492188 72.46484375 91.27734375 C72.02269531 92.01082031 71.58054687 92.74429688 71.125 93.5 C70.69058594 94.23347656 70.25617188 94.96695313 69.80859375 95.72265625 C67.3205976 99.89920234 64.73460504 103.98076654 62 108 C54.79968682 104.52284225 47.88093454 100.69345008 41 96.625 C38.89486879 95.38874796 36.78938694 94.15309285 34.68359375 92.91796875 C33.59546387 92.27907715 32.50733398 91.64018555 31.38623047 90.98193359 C25.62531131 87.61011371 19.84457711 84.27286818 14.0625 80.9375 C12.99193359 80.31891113 11.92136719 79.70032227 10.81835938 79.06298828 C4.90840783 75.6540462 -1.02230926 72.28881642 -7 69 C-7.41362793 69.72179443 -7.82725586 70.44358887 -8.25341797 71.18725586 C-10.12179644 74.44052199 -11.99827614 77.68904157 -13.875 80.9375 C-14.52597656 82.07380859 -15.17695313 83.21011719 -15.84765625 84.38085938 C-16.78544922 86.00024414 -16.78544922 86.00024414 -17.7421875 87.65234375 C-18.3182373 88.65257568 -18.89428711 89.65280762 -19.48779297 90.68334961 C-21 93 -21 93 -23 94 C-25.33837891 92.92016602 -25.33837891 92.92016602 -28.2265625 91.25390625 C-29.2578125 90.66416016 -30.2890625 90.07441406 -31.3515625 89.46679688 C-32.43179688 88.83837891 -33.51203125 88.20996094 -34.625 87.5625 C-35.71296875 86.93794922 -36.8009375 86.31339844 -37.921875 85.66992188 C-40.61878233 84.12038301 -43.31116406 82.5634896 -46 81 C-44.63527177 77.36739655 -43.0019884 74.09038593 -41.05078125 70.73828125 C-40.45773193 69.71524902 -39.86468262 68.6922168 -39.25366211 67.63818359 C-38.61307861 66.54070801 -37.97249512 65.44323242 -37.3125 64.3125 C-36.63840526 63.15205754 -35.96466475 61.99140926 -35.29125977 60.83056641 C-33.89179069 58.41865875 -32.49080029 56.00764414 -31.08886719 53.59716797 C-28.47742683 49.10394997 -25.88496801 44.5998394 -23.29199219 40.09594727 C-15.57941634 26.70047423 -7.80308085 13.34292259 0 0 Z " fill="#FDFDFD" transform="translate(155,263)"/>
<path d="M0 0 C0.9583374 0.04713135 1.9166748 0.0942627 2.90405273 0.14282227 C3.93852539 0.19116211 4.97299805 0.23950195 6.03881836 0.28930664 C7.12743164 0.34538086 8.21604492 0.40145508 9.33764648 0.45922852 C10.43012695 0.51143555 11.52260742 0.56364258 12.64819336 0.61743164 C15.35743724 0.74756999 18.06635442 0.88254906 20.77514648 1.02172852 C20.12779632 16.91357006 18.37867883 32.7116813 16.76067352 48.52648926 C16.11816203 54.82194057 15.48556925 61.11840323 14.85079575 67.41463852 C14.61127118 69.7894038 14.37135476 72.16412924 14.13137817 74.53884888 C12.76898388 88.02975452 11.44460791 101.52412761 10.15014648 115.02172852 C10.00331421 116.54959991 10.00331421 116.54959991 9.85351562 118.1083374 C8.67179707 130.41937183 7.52163652 142.73312154 6.39233398 155.04907227 C6.27743622 156.29991608 6.16253845 157.55075989 6.04415894 158.83950806 C5.48746121 164.90315138 4.93379343 170.96704099 4.38598633 177.03149414 C4.18765951 179.20402732 3.98925856 181.37655373 3.79077148 183.54907227 C3.65830521 185.03418556 3.65830521 185.03418556 3.52316284 186.54930115 C3.43906158 187.46437943 3.35496033 188.3794577 3.26831055 189.32226562 C3.16102631 190.50930336 3.16102631 190.50930336 3.05157471 191.72032166 C2.75509013 194.18870792 2.29210043 196.59077728 1.77514648 199.02172852 C-1.30851771 198.88241713 -4.39168769 198.73413571 -7.47485352 198.58422852 C-8.34754883 198.54491211 -9.22024414 198.5055957 -10.11938477 198.46508789 C-10.9637207 198.42319336 -11.80805664 198.38129883 -12.67797852 198.33813477 C-13.84055176 198.28314819 -13.84055176 198.28314819 -15.02661133 198.22705078 C-17.18513621 198.02543823 -19.13177309 197.56917567 -21.22485352 197.02172852 C-21.33998606 190.23354999 -21.0280093 183.60151351 -20.34204102 176.84985352 C-20.24751144 175.87978363 -20.15298187 174.90971375 -20.05558777 173.9102478 C-19.74145591 170.69695415 -19.4205983 167.48436825 -19.09985352 164.27172852 C-18.87336297 161.96627605 -18.64738244 159.66077344 -18.421875 157.35522461 C-17.94119697 152.44599336 -17.45810658 147.53700779 -16.97338867 142.62817383 C-15.85199494 131.25505446 -14.75753632 119.87933019 -13.65982056 108.50390625 C-13.03447106 102.02793959 -12.40692744 95.5521856 -11.77954102 89.07641602 C-10.77077315 78.66180283 -9.76285988 68.24710742 -8.7557621 57.83233261 C-8.34159077 53.54935255 -7.92733385 49.26638076 -7.51308727 44.98340797 C-7.18240441 41.56432454 -6.8517759 38.14523587 -6.52127075 34.72613525 C-6.15568591 30.94444368 -5.78990009 27.16277159 -5.42407227 23.38110352 C-5.31704987 22.27348663 -5.21002747 21.16586975 -5.09976196 20.02468872 C-4.90194758 17.98055417 -4.70279849 15.93654816 -4.50204468 13.8927002 C-4.31471339 11.9524406 -4.13541549 10.01139115 -3.96353149 8.06970215 C-3.88065887 7.15958374 -3.79778625 6.24946533 -3.71240234 5.31176758 C-3.64201248 4.50676819 -3.57162262 3.7017688 -3.49909973 2.87237549 C-3.09451817 0.14220965 -2.78559471 0.02720486 0 0 Z " fill="#FCFCFC" transform="translate(494.224853515625,419.978271484375)"/>
<path d="M0 0 C16.203125 -0.265625 16.203125 -0.265625 23 2 C23.13210296 9.16400905 22.61676084 16.13655606 21.8984375 23.26171875 C21.78166656 24.45552658 21.66489563 25.64933441 21.54458618 26.87931824 C21.22545548 30.13460557 20.90253233 33.38949023 20.57806396 36.64424896 C20.23353176 40.11096832 19.89429507 43.5782055 19.5546875 47.04541016 C18.98742399 52.83207407 18.41781926 58.6185026 17.84667969 64.40478516 C16.54876075 77.55999667 15.27387549 90.71744109 14 103.875 C13.87878784 105.12511871 13.75757568 106.37523743 13.63269043 107.66323853 C10.68224828 138.10196675 7.83556099 168.55038767 5 199 C3.58669086 199.01192756 2.17335193 199.02034988 0.76000977 199.02734375 C-0.02703842 199.03241943 -0.81408661 199.03749512 -1.62498474 199.04272461 C-5.16612207 198.9790224 -8.55545499 198.50552 -12.0625 198 C-12.73732422 197.90460938 -13.41214844 197.80921875 -14.10742188 197.7109375 C-15.73907649 197.47949713 -17.36966734 197.2405761 -19 197 C-18.00858864 179.95097517 -16.45199526 162.98418552 -14.6875 146 C-14.57917847 144.95710815 -14.47085693 143.91421631 -14.35925293 142.83972168 C-14.24940063 141.78240845 -14.13954834 140.72509521 -14.02636719 139.63574219 C-13.80135833 137.46940872 -13.57642407 135.30306751 -13.3515625 133.13671875 C-13.23880981 132.05065338 -13.12605713 130.96458801 -13.0098877 129.84561157 C-11.80296811 118.17342871 -10.67761569 106.49375518 -9.5625 94.8125 C-9.35997515 92.69579786 -9.15741961 90.57909866 -8.95483398 88.46240234 C-8.53275931 84.04968423 -8.11120058 79.63691713 -7.68994141 75.22412109 C-6.58284563 63.62949073 -5.47359336 52.03507062 -4.35740376 40.44131184 C-3.95617265 36.27297195 -3.5568197 32.10445805 -3.15893269 27.93579769 C-2.85244369 24.73047266 -2.54319495 21.52541367 -2.234375 18.3203125 C-2.12417526 17.16026199 -2.01397552 16.00021149 -1.9004364 14.80500793 C-1.7963295 13.7299852 -1.6922226 12.65496246 -1.58496094 11.54736328 C-1.45102936 10.15047775 -1.45102936 10.15047775 -1.31439209 8.72537231 C-0.97645651 5.79590845 -0.50731986 2.90451143 0 0 Z " fill="#FCFDFC" transform="translate(523,422)"/>
<path d="M0 0 C7.26 0 14.52 0 22 0 C22 66.99 22 133.98 22 203 C14.74 203 7.48 203 0 203 C0 136.01 0 69.02 0 0 Z " fill="#0A6938" transform="translate(630,420)"/>
<path d="M0 0 C7.60559975 2.53519992 14.03359822 5.33161573 21.0625 9 C22.58907227 9.77150391 22.58907227 9.77150391 24.14648438 10.55859375 C26.2890647 11.67054894 28.40182163 12.84143001 30.48486328 14.0612793 C33.03584243 15.55014297 35.57251669 16.6086947 38.33935547 17.63598633 C43.37820353 19.813741 47.24628418 22.11772921 50 27 C52.55426601 37.77796414 51.58082573 49.22797438 51.09863281 60.20465088 C50.90477429 65.08458324 50.83247179 69.96770094 50.73937988 74.8503952 C50.58507404 82.24011534 50.27853157 89.60924213 50 97 C33.5 97 17 97 0 97 C0 64.99 0 32.98 0 0 Z " fill="#056735" transform="translate(603,279)"/>
<path d="M0 0 C0.71291105 0.00262701 1.42582211 0.00525403 2.16033652 0.00796065 C2.91450503 0.0068068 3.66867354 0.00565296 4.44569564 0.00446415 C7.00517879 0.00179037 9.56460064 0.00632585 12.12408069 0.01075396 C13.96460486 0.01031841 15.80512897 0.00944381 17.64565274 0.00816479 C22.72850315 0.00591658 27.8113327 0.00994555 32.89418045 0.01494285 C38.36592496 0.01924252 43.83766821 0.01780128 49.30941394 0.01704058 C58.79796317 0.01651504 68.28650555 0.019665 77.77505305 0.02527842 C91.49407153 0.03338932 105.21308668 0.03600822 118.93210729 0.03726641 C141.18778618 0.03945758 163.44346186 0.04611085 185.69913867 0.05556902 C207.324464 0.06474872 228.94978835 0.07183465 250.57511523 0.07607684 C251.24133264 0.07620836 251.90755005 0.07633989 252.59395587 0.0764754 C259.94802535 0.07792471 267.30209483 0.07931656 274.65616432 0.08068487 C330.12809254 0.0910595 385.6000168 0.10867956 441.07194141 0.13100848 C444.07194141 5.88100848 444.07194141 5.88100848 444.07194141 8.13100848 C294.91194141 8.13100848 145.75194141 8.13100848 -7.92805859 8.13100848 C-5.6105285 0.01965315 -5.6105285 0.01965315 0 0 Z " fill="#116D3D" transform="translate(292.92805859446526,403.8689915239811)"/>
<path d="M0 0 C2.66625588 2.37434431 4.0867174 4.81171229 5.6640625 8 C6.14617188 8.969375 6.62828125 9.93875 7.125 10.9375 C7.62 11.948125 8.115 12.95875 8.625 14 C9.12773438 15.010625 9.63046875 16.02125 10.1484375 17.0625 C13.84512363 24.53537088 13.84512363 24.53537088 15 28 C15.79172607 28.11593506 16.58345215 28.23187012 17.39916992 28.35131836 C20.99547779 28.87870656 24.59149035 29.40808238 28.1875 29.9375 C29.43337891 30.11990234 30.67925781 30.30230469 31.96289062 30.49023438 C33.7659668 30.75610352 33.7659668 30.75610352 35.60546875 31.02734375 C36.71043701 31.18968506 37.81540527 31.35202637 38.95385742 31.51928711 C41.65441673 31.94546338 44.3243202 32.4404803 47 33 C43.80948073 36.8810424 40.58342297 40.47045173 36.87890625 43.8671875 C36.17185547 44.52589844 35.46480469 45.18460938 34.73632812 45.86328125 C33.27616561 47.21455473 31.79914129 48.54781313 30.30664062 49.86328125 C26.4106196 53.41377106 26.4106196 53.41377106 24.69848633 58.20727539 C24.93893411 60.55513246 25.40795003 62.71655469 26 65 C26.26019043 66.46068418 26.51164054 67.92295488 26.75390625 69.38671875 C27.15579143 71.54905708 27.56671872 73.70941773 27.98242188 75.86914062 C28.74231785 79.97557355 29.15208962 83.80100406 29 88 C26.56114459 86.79434249 24.12380746 85.58578916 21.6875 84.375 C20.96143555 84.01543213 20.23537109 83.65586426 19.48730469 83.28540039 C14.28519702 80.69181755 9.22530995 77.91730486 4.234375 74.93359375 C1.4844335 73.78457973 0.79052744 74.06890534 -2 75 C-3.96216765 75.93822987 -5.90153563 76.92471219 -7.82421875 77.94140625 C-8.93474609 78.52470703 -10.04527344 79.10800781 -11.18945312 79.70898438 C-12.92098633 80.62647461 -12.92098633 80.62647461 -14.6875 81.5625 C-16.98215118 82.77388302 -19.27767535 83.98361435 -21.57421875 85.19140625 C-22.59088623 85.72967041 -23.60755371 86.26793457 -24.6550293 86.82250977 C-27 88 -27 88 -28 88 C-27.60084333 79.96181049 -26.63527692 72.23656535 -24.9284668 64.3828125 C-24.20074196 60.8806093 -23.68126079 58.34810849 -25 55 C-27.07108555 52.51442452 -27.07108555 52.51442452 -29.69140625 50.015625 C-30.15610825 49.55516785 -30.62081024 49.09471069 -31.09959412 48.62030029 C-32.58031819 47.15632189 -34.07114519 45.70313959 -35.5625 44.25 C-36.57034664 43.25720551 -37.57751633 42.2637233 -38.58398438 41.26953125 C-41.04819461 38.83833527 -43.52157329 36.41671132 -46 34 C-43.04042609 32.02695072 -41.78937243 31.62942659 -38.39453125 31.1484375 C-37.04198242 30.95507812 -37.04198242 30.95507812 -35.66210938 30.7578125 C-34.72173828 30.63148438 -33.78136719 30.50515625 -32.8125 30.375 C-31.89146484 30.2409375 -30.97042969 30.106875 -30.02148438 29.96875 C-24.62515149 29.21808907 -19.44682515 28.85918901 -14 29 C-13.78472656 28.24332031 -13.56945312 27.48664062 -13.34765625 26.70703125 C-11.45142968 21.4910341 -8.9415512 16.63468438 -6.4375 11.6875 C-5.93025391 10.67365234 -5.42300781 9.65980469 -4.90039062 8.61523438 C-1.14048812 1.14048812 -1.14048812 1.14048812 0 0 Z " fill="#FCFCFB" transform="translate(644,816)"/>
<path d="M0 0 C2.98102909 3.60323766 4.90042348 7.57496317 6.9375 11.75 C7.27201172 12.42804687 7.60652344 13.10609375 7.95117188 13.8046875 C8.28568359 14.48273437 8.62019531 15.16078125 8.96484375 15.859375 C9.31691895 16.53806641 9.66899414 17.21675781 10.03173828 17.91601562 C11 20 11 20 11.57373047 22.19335938 C12.38121009 24.78726158 13.0185891 26.11148058 15 28 C20.32015427 29.76045179 25.70084714 30.36557304 31.25 31 C32.77388155 31.20109019 34.29733117 31.40548298 35.8203125 31.61328125 C39.54296074 32.11389578 43.26868622 32.56892739 47 33 C43.6399758 36.9828026 40.2566667 40.88188987 36.5625 44.5625 C35.80324219 45.33078125 35.04398437 46.0990625 34.26171875 46.890625 C32.2219205 48.79302751 30.1738254 50.25241889 27.875 51.8125 C25.63956917 53.71158129 25.05950902 54.52913488 24.6875 57.47265625 C24.89740759 60.72185082 25.39009999 63.80069996 26 67 C26.25426955 68.38665218 26.50815935 69.77337404 26.76171875 71.16015625 C27.15162706 73.27084069 27.550166 75.37743814 27.98193359 77.47998047 C28.70636139 81.04509195 29.16128846 84.3604909 29 88 C27.30624997 87.15312499 25.61256773 86.30611419 23.91918945 85.45849609 C22.46576717 84.73252107 21.01116194 84.00890981 19.55541992 83.28759766 C16.15300702 81.59820123 12.76977802 79.89410614 9.44140625 78.0625 C8.40886719 77.505625 7.37632812 76.94875 6.3125 76.375 C5.40113281 75.86710938 4.48976563 75.35921875 3.55078125 74.8359375 C-0.37146962 73.55054441 -2.89122547 75.43975147 -6.44775391 77.23681641 C-7.69951416 77.91236572 -7.69951416 77.91236572 -8.9765625 78.6015625 C-9.894375 79.09140625 -10.8121875 79.58125 -11.7578125 80.0859375 C-13.67859342 81.11698339 -15.59785371 82.15086687 -17.515625 83.1875 C-18.43085938 83.67476562 -19.34609375 84.16203125 -20.2890625 84.6640625 C-21.12131348 85.11217285 -21.95356445 85.5602832 -22.81103516 86.02197266 C-25 87 -25 87 -28 87 C-27.55717468 76.10649708 -25.27000497 65.63226791 -23 55 C-23.5662207 54.75975098 -24.13244141 54.51950195 -24.71582031 54.27197266 C-27.47040587 52.73804889 -29.33249671 50.89273982 -31.546875 48.6484375 C-32.39121094 47.79765625 -33.23554688 46.946875 -34.10546875 46.0703125 C-34.97816406 45.18085937 -35.85085938 44.29140625 -36.75 43.375 C-38.08224609 42.02921875 -38.08224609 42.02921875 -39.44140625 40.65625 C-41.63216969 38.44192996 -43.81812763 36.22307565 -46 34 C-42.96924168 31.97949445 -41.64001212 31.61646253 -38.140625 31.1484375 C-37.18929688 31.01953125 -36.23796875 30.890625 -35.2578125 30.7578125 C-34.26523437 30.63148438 -33.27265625 30.50515625 -32.25 30.375 C-31.27289063 30.2409375 -30.29578125 30.106875 -29.2890625 29.96875 C-24.14695364 29.28960355 -19.18579936 28.8406598 -14 29 C-13.78472656 28.24332031 -13.56945312 27.48664062 -13.34765625 26.70703125 C-11.45142968 21.4910341 -8.9415512 16.63468438 -6.4375 11.6875 C-5.93025391 10.67365234 -5.42300781 9.65980469 -4.90039062 8.61523438 C-1.14048812 1.14048812 -1.14048812 1.14048812 0 0 Z " fill="#FCFDFC" transform="translate(376,816)"/>
<path d="M0 0 C2.81353938 1.40676969 3.20278813 3.15649555 4.53125 5.98828125 C5.01207031 7.00470703 5.49289062 8.02113281 5.98828125 9.06835938 C6.48714844 10.13892578 6.98601563 11.20949219 7.5 12.3125 C8.48944195 14.41282703 9.47901994 16.51308997 10.46875 18.61328125 C10.90638672 19.54954346 11.34402344 20.48580566 11.79492188 21.45043945 C12.19259766 22.29179443 12.59027344 23.13314941 13 24 C13.34683838 24.75619629 13.69367676 25.51239258 14.05102539 26.29150391 C14.85043638 28.14463957 14.85043638 28.14463957 16.71484375 28.72265625 C17.44832031 28.83480469 18.18179688 28.94695313 18.9375 29.0625 C19.8140625 29.20816406 20.690625 29.35382812 21.59375 29.50390625 C22.7178125 29.66761719 23.841875 29.83132813 25 30 C27.45002984 30.36446291 29.89934969 30.73289628 32.34790039 31.10717773 C34.05931723 31.36678646 35.77206838 31.61776216 37.48608398 31.85961914 C38.28344971 31.97813232 39.08081543 32.09664551 39.90234375 32.21875 C40.61898193 32.32123047 41.33562012 32.42371094 42.07397461 32.52929688 C44 33 44 33 47 35 C44.05226582 37.99707817 41.09808792 40.98760494 38.13769531 43.97216797 C37.13100272 44.98893399 36.12611034 46.00748562 35.12304688 47.02783203 C33.68305629 48.49201218 32.23676744 49.94970205 30.7890625 51.40625 C29.48509521 52.72592773 29.48509521 52.72592773 28.15478516 54.07226562 C26 56 26 56 24 56 C24.11593506 56.54301758 24.23187012 57.08603516 24.35131836 57.64550781 C26.48913006 67.74375679 28.57964457 77.65925635 29 88 C22.01360607 86.07553423 15.888379 82.25138364 9.61132812 78.72460938 C8.70705078 78.23412109 7.80277344 77.74363281 6.87109375 77.23828125 C6.05568115 76.78493408 5.24026855 76.33158691 4.40014648 75.86450195 C1.39743328 74.7829632 0.02250061 75.02440285 -3 76 C-4.93255933 76.91678395 -6.83239862 77.90426538 -8.703125 78.94140625 C-9.7653125 79.52470703 -10.8275 80.10800781 -11.921875 80.70898438 C-13.56929688 81.62647461 -13.56929688 81.62647461 -15.25 82.5625 C-17.44178131 83.77381432 -19.63444044 84.98354213 -21.828125 86.19140625 C-22.7965332 86.72967041 -23.76494141 87.26793457 -24.76269531 87.82250977 C-27 89 -27 89 -28 89 C-27.5549174 81.75589697 -26.49026958 74.7554412 -25.01635742 67.66015625 C-24.63758955 65.78105584 -24.31740124 63.89043379 -24 62 C-23.82339844 61.00742187 -23.64679688 60.01484375 -23.46484375 58.9921875 C-24.32723128 54.17037109 -27.63886988 51.69187428 -31.125 48.4375 C-31.79015625 47.79103516 -32.4553125 47.14457031 -33.140625 46.47851562 C-36.15986222 43.56879976 -39.22120013 40.78406117 -42.4921875 38.16015625 C-43.31976563 37.44730469 -44.14734375 36.73445312 -45 36 C-45 35.34 -45 34.68 -45 34 C-34.36998463 31.87965119 -23.77091097 30.21745669 -13 29 C-12.72365723 28.12585449 -12.44731445 27.25170898 -12.16259766 26.35107422 C-11.08062401 23.23239084 -9.83322784 20.35249482 -8.3984375 17.3828125 C-7.66367187 15.85527344 -7.66367187 15.85527344 -6.9140625 14.296875 C-6.15222656 12.72679687 -6.15222656 12.72679687 -5.375 11.125 C-4.859375 10.05507813 -4.34375 8.98515625 -3.8125 7.8828125 C-2.54486479 5.25364318 -1.2739434 2.62611698 0 0 Z " fill="#FCFDFC" transform="translate(513,852)"/>
<path d="M0 0 C6.27 0 12.54 0 19 0 C19 60.39 19 120.78 19 183 C12.73 183 6.46 183 0 183 C0 122.61 0 62.22 0 0 Z " fill="#FFFFFF" transform="translate(327,435)"/>
<path d="M0 0 C6.27 0 12.54 0 19 0 C19 60.39 19 120.78 19 183 C12.73 183 6.46 183 0 183 C0 122.61 0 62.22 0 0 Z " fill="#FFFFFF" transform="translate(294,435)"/>
<path d="M0 0 C16.5 0 33 0 50 0 C50.25318367 7.40626156 50.47182274 14.79744028 50.60424805 22.20458984 C50.65944654 24.7210585 50.73442737 27.23717622 50.82983398 29.75244141 C51.59810384 50.53270307 51.59810384 50.53270307 47.90014648 56.24194336 C45.01612459 58.38739625 42.33458489 59.67635989 39 61 C37.11544774 62.10363534 35.24399617 63.22996378 33.38671875 64.37890625 C31.4915154 65.4481844 29.59168075 66.50929195 27.6875 67.5625 C26.69145752 68.11897217 25.69541504 68.67544434 24.66918945 69.2487793 C3.50738956 81 3.50738956 81 0 81 C0 54.27 0 27.54 0 0 Z " fill="#056735" transform="translate(603,672)"/>
<path d="M0 0 C138.27 0 276.54 0 419 0 C417 5 417 5 415 8 C412.11625898 8.37259549 412.11625898 8.37259549 408.33516502 8.36914349 C407.63893575 8.37260502 406.94270648 8.37606655 406.22537935 8.37963298 C403.86882234 8.38763748 401.51286791 8.37406299 399.15634155 8.36076355 C397.45932102 8.36207055 395.76230107 8.36469501 394.06528437 8.36853105 C389.38367949 8.37526879 384.70227882 8.36319839 380.02069998 8.34819686 C374.97910644 8.33528793 369.9375252 8.3396223 364.8959198 8.34190369 C356.15492379 8.34347969 347.41399476 8.3340364 338.67301559 8.31719017 C326.03490779 8.29284892 313.39683249 8.2849999 300.75870378 8.2812262 C280.25610966 8.27465404 259.75355127 8.25467219 239.25097656 8.22631836 C219.33007995 8.19879754 199.40919303 8.17755429 179.48828125 8.16479492 C178.26115151 8.16400675 177.03402178 8.16321858 175.76970629 8.16240653 C169.61379434 8.15849152 163.45788231 8.15470037 157.30197024 8.15097082 C106.2012888 8.11985113 55.10064614 8.06699458 4 8 C2.68 5.36 1.36 2.72 0 0 Z " fill="#146C3B" transform="translate(301,651)"/>
<path d="M0 0 C0 31.35 0 62.7 0 95 C-12.21 95 -24.42 95 -37 95 C-37.64174095 76.43407781 -37.64174095 76.43407781 -37.78125 68.47265625 C-37.87665043 63.05422964 -37.9890048 57.64015784 -38.20703125 52.22509766 C-38.38188951 47.85445413 -38.47672644 43.48847737 -38.51803589 39.11460495 C-38.54743431 37.45305193 -38.60486475 35.79173451 -38.69168091 34.1321907 C-39.22124534 23.58220133 -39.22124534 23.58220133 -37 19 C-32.61762359 14.29341136 -26.74026893 11.68071135 -21 9 C-19.19703634 8.02704736 -17.39729417 7.04800339 -15.60546875 6.0546875 C-14.13695147 5.31979533 -12.66447907 4.59273416 -11.1875 3.875 C-10.42630859 3.49085938 -9.66511719 3.10671875 -8.88085938 2.7109375 C-3.3960519 0 -3.3960519 0 0 0 Z " fill="#006533" transform="translate(416,280)"/>
<path d="M0 0 C-0.49925862 13.74069673 -1.50995106 27.34942602 -2.98425293 41.01879883 C-3.55537789 46.3146076 -4.10805321 51.61233544 -4.66015625 56.91015625 C-4.77277802 57.98818512 -4.88539978 59.06621399 -5.00143433 60.1769104 C-5.78641537 67.75761479 -6.50633469 75.34254064 -7.18359375 82.93359375 C-7.27510208 83.95912857 -7.36661041 84.98466339 -7.46089172 86.04127502 C-7.89600119 90.94493293 -8.32302693 95.84920953 -8.7434082 100.75415039 C-8.89660478 102.50277064 -9.04984137 104.25138738 -9.203125 106 C-9.26958725 106.80171127 -9.3360495 107.60342255 -9.40452576 108.4294281 C-9.88702314 113.88702314 -9.88702314 113.88702314 -11 115 C-20.03229773 115.43253257 -30.32325129 115.89224957 -39 113 C-37.53973447 96.87323684 -36.05673768 80.74864858 -34.5625 64.625 C-34.39967026 62.86697052 -34.39967026 62.86697052 -34.23355103 61.07342529 C-32.50216211 42.38104685 -30.76106014 23.68960711 -29 5 C-23.04756625 2.79217864 -17.43794319 1.42688465 -11.125 0.8125 C-10.00738281 0.6897168 -10.00738281 0.6897168 -8.8671875 0.56445312 C-5.89739072 0.24664214 -2.98852219 0 0 0 Z " fill="#036634" transform="translate(488,261)"/>
<path d="M0 0 C-1.33262793 18.50023115 -2.98869238 36.96005658 -4.80212402 55.41864014 C-5.06734743 58.1246224 -5.33002527 60.83084919 -5.59265137 63.53708458 C-6.99956913 78.03140069 -8.44006563 92.52128561 -10 107 C-19.51738004 107.25706237 -28.60105918 106.33589007 -38 105 C-38.21365132 96.745861 -37.3826148 88.63966096 -36.5390625 80.44140625 C-36.38654791 78.92801008 -36.23440471 77.41457644 -36.08261108 75.90110779 C-35.68297167 71.92761473 -35.27783097 67.95470077 -34.87164307 63.98187256 C-34.54575683 60.78518748 -34.22384977 57.58810782 -33.90213394 54.39100075 C-32.34505791 38.91902811 -30.78240395 23.44796868 -29 8 C-27.74703003 7.52856433 -26.49390727 7.05753473 -25.24072266 6.58666992 C-24.5429068 6.32432053 -23.84509094 6.06197113 -23.12612915 5.79167175 C-19.88986299 4.58663653 -16.64005552 3.43803156 -13.375 2.3125 C-12.7459375 2.08755859 -12.116875 1.86261719 -11.46875 1.63085938 C-7.48271699 0.27048089 -4.18334988 -0.09308597 0 0 Z " fill="#036634" transform="translate(456,267)"/>
<path d="M0 0 C9.46576558 -0.36799953 18.63873691 0.77085408 28 2 C28.09990447 8.47864095 27.73968654 14.75292436 27.046875 21.19140625 C26.89647011 22.64299133 26.89647011 22.64299133 26.74302673 24.12390137 C26.41616192 27.27054883 26.0830579 30.4165026 25.75 33.5625 C25.52267149 35.74205175 25.29587028 37.92165856 25.06958008 40.10131836 C24.72345458 43.4347385 24.37701354 46.76812203 24.02888489 50.10133362 C22.88215847 61.08512914 21.78061786 72.07326062 20.6875 83.0625 C20.51469926 84.79565936 20.34184923 86.52881382 20.16894531 88.26196289 C19.77871356 92.17458405 19.38912779 96.0872689 19 100 C12.91921471 98.72148974 6.95561445 97.20737837 1 95.4375 C0.23816406 95.21642578 -0.52367187 94.99535156 -1.30859375 94.76757812 C-6.87437777 93.12562223 -6.87437777 93.12562223 -8 92 C-8.74339979 82.61543645 -7.40000632 73.07017284 -6.50390625 63.73046875 C-6.34897676 62.07908154 -6.19443768 60.42765766 -6.04026794 58.77619934 C-5.71804913 55.3359283 -5.39247984 51.89599757 -5.06420898 48.45629883 C-4.64451019 44.05773297 -4.2312319 39.65859407 -3.82019138 35.25921154 C-3.50200759 31.85749776 -3.18148394 28.45600788 -2.86015129 25.05459023 C-2.70698394 23.43239134 -2.55429433 21.81014728 -2.40210152 20.18785667 C-2.18898286 17.92214006 -1.97296784 15.6567182 -1.75610352 13.39135742 C-1.63396988 12.1054924 -1.51183624 10.81962738 -1.38600159 9.49479675 C-1.03334608 6.30191008 -0.56398086 3.16162677 0 0 Z " fill="#036634" transform="translate(437,665)"/>
<path d="M0 0 C13.86 0 27.72 0 42 0 C42 68.31 42 136.62 42 207 C28.14 207 14.28 207 0 207 C0 138.69 0 70.38 0 0 Z M5 5 C5 70.34 5 135.68 5 203 C15.56 203 26.12 203 37 203 C37 137.66 37 72.32 37 5 C26.44 5 15.88 5 5 5 Z " fill="#297649" transform="translate(388,417)"/>
<path d="M0 0 C7 1 7 1 22 7 C22 39.67 22 72.34 22 106 C14.74 106 7.48 106 0 106 C0 71.02 0 36.04 0 0 Z " fill="#0A6938" transform="translate(578,270)"/>
<path d="M0 0 C2.64 1.98 5.28 3.96 8 6 C8.81984375 6.61101562 9.6396875 7.22203125 10.484375 7.8515625 C24.38944363 18.73587484 37.34478584 31.92534749 48 46 C48.33 46.33 48.66 46.66 49 47 C49 53.93 49 60.86 49 68 C32.83 68 16.66 68 0 68 C0 45.56 0 23.12 0 0 Z " fill="#016533" transform="translate(655,308)"/>
<path d="M0 0 C1.32 0 2.64 0 4 0 C4 59.07 4 118.14 4 179 C-0.70898517 171.93652224 -2.90198693 163.52585213 -5 155.375 C-5.25491211 154.3864502 -5.50982422 153.39790039 -5.77246094 152.37939453 C-13.81896107 120.18832057 -15.92217873 87.6702761 -12.1875 54.75 C-12.06347809 53.64117462 -12.06347809 53.64117462 -11.93695068 52.50994873 C-10.87358052 43.18371202 -9.33283099 34.10418939 -7 25 C-6.74081787 23.96665527 -6.48163574 22.93331055 -6.21459961 21.86865234 C-5.44905824 18.84601404 -4.66530112 15.82874974 -3.875 12.8125 C-3.61074219 11.79091797 -3.34648437 10.76933594 -3.07421875 9.71679688 C-2.82027344 8.74419922 -2.56632812 7.77160156 -2.3046875 6.76953125 C-1.9641333 5.46399292 -1.9641333 5.46399292 -1.61669922 4.13208008 C-1 2 -1 2 0 0 Z " fill="#046634" transform="translate(277,430)"/>
<path d="M0 0 C5.68099225 3.83136687 9.55028675 8.28595632 11.6875 14.8125 C13.39203749 25.8730544 9.78515826 37.65639486 3.6875 46.8125 C2.82125 48.17375 2.82125 48.17375 1.9375 49.5625 C-2.40028423 53.90028423 -7.53120786 57.03689846 -13.75 57.5 C-19.43669828 57.14084011 -23.98685605 54.3757103 -28.3125 50.8125 C-33.88111877 43.8663808 -33.83701242 36.31913782 -33.3125 27.8125 C-31.51590354 17.00462836 -26.83269331 7.80342785 -18.3125 0.8125 C-12.96330204 -2.51267711 -5.75293701 -2.06237365 0 0 Z " fill="#0A5C2D" transform="translate(618.3125,127.1875)"/>
<path d="M0 0 C5.24313125 3.20510349 8.64731669 6.96154526 10.2890625 12.9375 C11.84076761 23.07771247 7.64249977 31.1463663 1.98193359 39.25610352 C-2.35844244 45.14961048 -7.87034918 50.14255813 -14.7109375 52.9375 C-20.86809341 53.86419206 -26.31276462 53.73190733 -31.7109375 50.4375 C-36.82453979 46.44684848 -39.13038947 42.56464079 -40.15234375 36.1796875 C-40.81588208 25.3654245 -36.11267245 17.37998868 -29.1484375 9.4375 C-20.99009973 0.71200506 -12.19464746 -4.77945837 0 0 Z " fill="#095B2C" transform="translate(736.7109375,185.0625)"/>
<path d="M0 0 C17.49 0 34.98 0 53 0 C53 66.99 53 133.98 53 203 C35.51 203 18.02 203 0 203 C0 136.01 0 69.02 0 0 Z M4 4 C4 68.35 4 132.7 4 199 C18.85 199 33.7 199 49 199 C49 134.65 49 70.3 49 4 C34.15 4 19.3 4 4 4 Z " fill="#046634" transform="translate(654,422)"/>
<path d="M0 0 C12.21 0 24.42 0 37 0 C37 20.46 37 40.92 37 62 C29.11524385 57.49442506 29.11524385 57.49442506 26.23828125 55.15234375 C25.59971191 54.63454346 24.96114258 54.11674316 24.30322266 53.58325195 C23.64628418 53.04015381 22.9893457 52.49705566 22.3125 51.9375 C21.6220459 51.37184326 20.9315918 50.80618652 20.22021484 50.22338867 C13.22235848 44.44300743 6.4201874 38.4201874 0 32 C-0.17480681 29.56360661 -0.23191424 27.23971163 -0.1953125 24.8046875 C-0.19031738 23.51030762 -0.18532227 22.21592773 -0.18017578 20.88232422 C-0.16196777 19.22990723 -0.14375977 17.57749023 -0.125 15.875 C-0.08375 10.63625 -0.0425 5.3975 0 0 Z " fill="#016533" transform="translate(338,667)"/>
<path d="M0 0 C16.17 0 32.34 0 49 0 C45.38580274 18.07098631 15.76341385 40.89998856 1 51 C0.67 51 0.34 51 0 51 C0 34.17 0 17.34 0 0 Z " fill="#016533" transform="translate(655,672)"/>
<path d="M0 0 C8.58 0 17.16 0 26 0 C26 29.37 26 58.74 26 89 C23.525 89.495 23.525 89.495 21 90 C21 61.95 21 33.9 21 5 C15.72 5 10.44 5 5 5 C5 35.03 5 65.06 5 96 C2.03 96.495 2.03 96.495 -1 97 C-1.17853041 64.65578262 -0.65445557 32.33711728 0 0 Z " fill="#2E784B" transform="translate(576,665)"/>
<path d="M0 0 C13.53 0 27.06 0 41 0 C41 28.71 41 57.42 41 87 C39.68 86.67 38.36 86.34 37 86 C37 58.94 37 31.88 37 4 C26.11 4 15.22 4 4 4 C4 25.12 4 46.24 4 68 C2.68 67.34 1.36 66.68 0 66 C0 44.22 0 22.44 0 0 Z " fill="#006532" transform="translate(377,665)"/>
<path d="M0 0 C3.12513913 1.90823958 4.56387344 4.40718996 5.5390625 7.96875 C5.77395972 10.23072319 5.65339562 11.82055286 5 14 C0.98330801 18.80043677 -4.07906918 21.2341868 -9.625 23.9375 C-10.27025635 24.25662354 -10.9155127 24.57574707 -11.58032227 24.90454102 C-14.31483603 26.16318486 -16.71238218 26.98019275 -19.72265625 27.1875 C-23.45123532 25.24326666 -24.33001828 21.84888267 -25.8125 18.0625 C-26.12380859 17.32064453 -26.43511719 16.57878906 -26.75585938 15.81445312 C-29 10.37426168 -29 10.37426168 -29 8 C-26.05495737 6.63586569 -23.09232868 5.31486421 -20.125 4 C-19.30257813 3.6184375 -18.48015625 3.236875 -17.6328125 2.84375 C-11.82441349 0.30257543 -6.35951522 -1.14517779 0 0 Z " fill="#0B5D2D" transform="translate(362,142)"/>
<path d="M0 0 C0.66 0 1.32 0 2 0 C2 25.08 2 50.16 2 76 C-11.53 76 -25.06 76 -39 76 C-39.09177176 69.93031765 -39.17142686 63.86303601 -39.21972656 57.79321289 C-39.23985731 55.72802582 -39.26716445 53.66289584 -39.30175781 51.59790039 C-39.35021162 48.63152999 -39.37295385 45.66591228 -39.390625 42.69921875 C-39.41127014 41.7741301 -39.43191528 40.84904144 -39.45318604 39.8959198 C-39.45348816 39.03525406 -39.45379028 38.17458832 -39.45410156 37.2878418 C-39.46298401 36.53061325 -39.47186646 35.7733847 -39.48101807 34.99320984 C-39 33 -39 33 -35 30 C-35 43.86 -35 57.72 -35 72 C-24.11 72 -13.22 72 -2 72 C-2.02320313 66.97007812 -2.04640625 61.94015625 -2.0703125 56.7578125 C-2.08052803 53.57681778 -2.0901557 50.3958432 -2.09765625 47.21484375 C-2.10962546 42.16255509 -2.12380553 37.11033871 -2.15087891 32.05810547 C-2.17256303 27.98622723 -2.18455923 23.91442647 -2.18975449 19.84249496 C-2.19345824 18.28670913 -2.20069046 16.73092768 -2.21146011 15.17517471 C-2.22591638 13.00096626 -2.22798044 10.82708058 -2.22705078 8.65283203 C-2.231492 7.41373077 -2.23593323 6.17462952 -2.24050903 4.89797974 C-2 2 -2 2 0 0 Z " fill="#056735" transform="translate(375,301)"/>
<path d="M0 0 C1.03705078 -0.03738281 2.07410156 -0.07476562 3.14257812 -0.11328125 C10.7554934 -0.20129183 10.7554934 -0.20129183 14.74609375 2.6484375 C16.96113357 5.97337899 17.32342686 7.5739691 17.03125 11.4453125 C16.15829723 15.03896809 14.57735627 16.32489773 11.5625 18.375 C3.18625284 21.5619785 -6.6750211 20.51408697 -15.4375 20.375 C-15.4375 14.105 -15.4375 7.835 -15.4375 1.375 C-10.24908054 0.07789514 -5.32824872 0.07258295 0 0 Z " fill="#0B5D2D" transform="translate(487.4375,148.625)"/>
<path d="M0 0 C0.33 0 0.66 0 1 0 C1 12.21 1 24.42 1 37 C-8.24 37 -17.48 37 -27 37 C-25.25092095 32.62730239 -23.28627553 29.25321329 -20.5625 25.5 C-20.12728027 24.89486572 -19.69206055 24.28973145 -19.24365234 23.66625977 C-15.232973 18.16958877 -10.9009372 12.97845953 -6.4453125 7.83984375 C-4.83617577 5.97108591 -3.26660338 4.06739357 -1.7421875 2.12890625 C-1.16726563 1.42636719 -0.59234375 0.72382813 0 0 Z " fill="#036634" transform="translate(332,338)"/>
<path d="M0 0 C13.53 0 27.06 0 41 0 C41 13.86 41 27.72 41 42 C40.01 42 39.02 42 38 42 C38 29.46 38 16.92 38 4 C27.11 4 16.22 4 5 4 C5 18.85 5 33.7 5 49 C3.35 49 1.7 49 0 49 C0 32.83 0 16.66 0 0 Z " fill="#156E3E" transform="translate(534,721)"/>
<path d="M0 0 C3.91707941 -0.08085714 7.83249359 -0.14043614 11.75 -0.1875 C12.86117188 -0.21263672 13.97234375 -0.23777344 15.1171875 -0.26367188 C16.18710937 -0.27333984 17.25703125 -0.28300781 18.359375 -0.29296875 C19.34389648 -0.3086792 20.32841797 -0.32438965 21.34277344 -0.34057617 C24.42451893 0.0544105 25.7714335 0.87192159 28 3 C28.69388769 5.70998658 28.47111651 8.25373548 28 11 C26.06862805 14.04953465 23.38185218 14.95406634 20 16 C16.5586593 16.24241539 13.13514149 16.18834889 9.6875 16.125 C8.75615234 16.11597656 7.82480469 16.10695312 6.86523438 16.09765625 C4.57671177 16.07418422 2.28832221 16.03831609 0 16 C0 10.72 0 5.44 0 0 Z " fill="#0C5D2D" transform="translate(470,113)"/>
<path d="M0 0 C9.7584614 5.51826708 19.40841176 11.19668611 29 17 C26.52148274 20.20326226 24.0166676 23.10810463 21 25.8125 C20.34 26.41707031 19.68 27.02164062 19 27.64453125 C17 29 17 29 13 29 C11.14361774 25.19380871 9.2923437 21.38518959 7.44580078 17.57421875 C6.81667289 16.27763717 6.18614459 14.98173413 5.55419922 13.68652344 C4.64703828 11.82662989 3.74491197 9.96436859 2.84375 8.1015625 C2.29912109 6.98088379 1.75449219 5.86020508 1.19335938 4.70556641 C0 2 0 2 0 0 Z " fill="#105E2F" transform="translate(237,229)"/>
<path d="M0 0 C1.86486195 2.79729293 3.50272475 5.61967702 5.125 8.5625 C5.66382813 9.53316406 6.20265625 10.50382812 6.7578125 11.50390625 C8 14 8 14 8 16 C2.72 16 -2.56 16 -8 16 C-6.49947591 11.49842772 -5.29497484 8.51800301 -2.875 4.625 C-2.06675781 3.31402344 -2.06675781 3.31402344 -1.2421875 1.9765625 C-0.83226562 1.32429687 -0.42234375 0.67203125 0 0 Z " fill="#FFFFFF" transform="translate(144,1021)"/>
<path d="M0 0 C4.29 0 8.58 0 13 0 C13 4.95 13 9.9 13 15 C9.78986213 11.78986213 6.69806812 8.62909341 3.6875 5.25 C2.99011719 4.47140625 2.29273438 3.6928125 1.57421875 2.890625 C0 1 0 1 0 0 Z " fill="#076736" transform="translate(320,678)"/>
<path d="M0 0 C5.66831683 5.66831683 5.66831683 5.66831683 7.8125 9.1875 C8.23144531 9.86167969 8.65039062 10.53585937 9.08203125 11.23046875 C10 13 10 13 10 15 C6.7 15 3.4 15 0 15 C0 10.05 0 5.1 0 0 Z " fill="#076735" transform="translate(707,361)"/>
<path d="M0 0 C1.37562854 1.28965176 2.70766393 2.62689293 4 4 C4 4.66 4 5.32 4 6 C-1.28 6 -6.56 6 -12 6 C-11.34 4.35 -10.68 2.7 -10 1 C-6.7 1.33 -3.4 1.66 0 2 C0 1.34 0 0.68 0 0 Z " fill="#FFFFFF" transform="translate(884,1031)"/>
<path d="M0 0 C1.65 0 3.3 0 5 0 C3.68 2.31 2.36 4.62 1 7 C0.67 7 0.34 7 0 7 C0 4.69 0 2.38 0 0 Z " fill="#297546" transform="translate(707,664)"/>
</svg>
