<?xml version="1.0" standalone="no"?>
<!DOCTYPE svg PUBLIC "-//W3C//DTD SVG 20010904//EN"
 "http://www.w3.org/TR/2001/REC-SVG-20010904/DTD/svg10.dtd">
<svg version="1.0" xmlns="http://www.w3.org/2000/svg"
 width="1018.000000pt" height="1037.000000pt" viewBox="0 0 1018.000000 1037.000000"
 preserveAspectRatio="xMidYMid meet">

<g transform="translate(0.000000,1037.000000) scale(0.100000,-0.100000)"
fill="#000000" stroke="none">
<path d="M4860 10349 c-1007 -38 -1992 -391 -2809 -1004 -685 -515 -1240
-1201 -1591 -1965 -210 -456 -339 -884 -427 -1415 l-28 -170 0 -615 c0 -687 1
-694 81 -1084 295 -1417 1165 -2644 2404 -3391 179 -108 537 -285 726 -359
407 -160 813 -262 1279 -323 205 -26 955 -26 1160 0 602 79 1100 224 1610 471
1155 560 2069 1545 2538 2736 276 700 391 1380 365 2150 -35 1062 -408 2109
-1049 2950 -203 266 -462 545 -714 767 -770 680 -1745 1111 -2775 1227 -121
14 -200 19 -490 29 -47 2 -173 0 -280 -4z m590 -90 c934 -67 1821 -400 2595
-974 369 -273 746 -650 1028 -1027 819 -1097 1164 -2467 966 -3843 -140 -974
-569 -1898 -1231 -2652 -120 -137 -401 -410 -538 -524 -788 -655 -1700 -1040
-2715 -1145 -236 -25 -724 -25 -960 0 -1365 141 -2568 802 -3433 1884 -668
836 -1062 1905 -1101 2987 -47 1320 370 2537 1213 3540 140 166 435 460 596
594 644 538 1374 897 2164 1065 465 100 927 131 1416 95z"/>
<path d="M4735 9834 c-525 -54 -898 -139 -1305 -301 -606 -240 -1112 -573
-1575 -1037 -793 -795 -1266 -1828 -1356 -2959 -15 -197 -7 -717 15 -897 115
-944 469 -1771 1064 -2490 112 -135 438 -464 567 -572 622 -519 1343 -861
2115 -1002 1339 -244 2685 116 3745 1002 129 108 455 437 567 572 595 719 949
1546 1064 2490 22 180 30 700 15 897 -71 889 -385 1734 -906 2438 -195 264
-480 570 -720 775 -689 588 -1515 951 -2425 1066 -119 15 -762 28 -865 18z
m397 -354 c66 -24 129 -86 148 -146 33 -98 6 -217 -60 -266 -37 -27 -37 -33
-2 -46 46 -16 103 -73 128 -127 19 -39 24 -67 24 -131 0 -108 -36 -186 -115
-245 -97 -73 -129 -79 -510 -99 -187 -10 -340 -18 -341 -17 -2 6 -54 1070 -52
1072 8 7 575 33 643 30 50 -2 103 -12 137 -25z m1046 -106 c117 -24 215 -75
293 -153 106 -105 149 -214 149 -371 -1 -253 -140 -475 -351 -561 -39 -16 -83
-23 -159 -26 -120 -6 -193 9 -300 59 -82 39 -195 150 -233 228 -117 241 -35
575 180 737 122 91 260 120 421 87z m-2375 -144 c147 -69 219 -292 137 -425
l-21 -33 33 -7 c85 -18 163 -95 228 -225 18 -36 47 -86 65 -111 l33 -46 -77
-33 c-42 -18 -111 -48 -153 -66 l-77 -33 -39 62 c-22 34 -53 87 -70 117 -47
85 -74 105 -135 104 -39 0 -73 -10 -134 -40 l-82 -39 69 -160 c39 -88 70 -165
70 -171 0 -13 -292 -144 -301 -135 -7 6 -418 956 -422 973 -2 10 575 263 648
284 67 19 169 12 228 -16z m3536 -415 c142 -34 298 -149 373 -276 123 -208 73
-481 -124 -680 -227 -229 -564 -216 -791 30 -97 105 -137 206 -137 346 0 159
62 299 189 425 146 145 311 197 490 155z m-4592 -617 c276 -139 503 -256 503
-259 0 -7 -135 -140 -206 -202 l-40 -36 -67 40 -68 40 -119 -112 c-66 -61
-120 -116 -120 -120 0 -5 15 -38 33 -75 l32 -66 -120 -113 c-66 -63 -122 -114
-125 -115 -6 0 -442 1025 -444 1044 -1 13 216 226 231 226 5 1 234 -113 510
-252z m2751 -7 c464 -71 883 -241 1266 -513 598 -426 1032 -1078 1197 -1798
59 -258 73 -389 73 -690 1 -299 -7 -396 -54 -630 -121 -605 -404 -1135 -840
-1570 -415 -415 -920 -690 -1478 -805 -377 -78 -797 -78 -1174 0 -558 115
-1063 390 -1478 805 -436 435 -719 965 -840 1570 -47 234 -55 331 -54 630 0
301 14 432 73 690 165 720 599 1372 1197 1798 400 284 874 470 1334 521 52 6
111 13 130 15 19 2 143 3 275 1 177 -3 275 -9 373 -24z m2896 -295 c48 -69 89
-131 91 -138 4 -9 -46 -49 -141 -113 l-147 -100 44 -6 c24 -3 128 -12 231 -19
l188 -13 114 -166 c62 -91 108 -167 102 -169 -6 -1 -133 15 -281 38 -148 22
-269 39 -270 37 -1 -1 -59 -153 -130 -337 -70 -184 -134 -350 -141 -369 l-14
-34 -115 168 c-63 93 -115 174 -115 180 0 6 42 109 94 228 104 238 103 220 14
232 -47 6 -49 5 -180 -84 l-131 -91 -94 137 c-51 75 -89 141 -85 145 14 14
867 597 874 598 4 0 45 -56 92 -124z m-6727 -212 c54 -32 106 -62 115 -68 15
-11 9 -25 -58 -141 -41 -70 -73 -129 -72 -130 2 -1 149 -87 328 -190 179 -103
332 -193 341 -199 14 -10 7 -27 -61 -144 -42 -73 -81 -137 -87 -143 -5 -5
-132 63 -338 182 -182 106 -337 193 -345 195 -10 3 -35 -32 -80 -111 -36 -64
-68 -121 -72 -127 -4 -8 -47 12 -125 57 -65 37 -119 69 -121 70 -6 5 461 805
469 805 4 0 52 -25 106 -56z m7330 -1070 c144 -70 246 -274 246 -489 0 -112
-26 -185 -86 -248 -44 -45 -146 -103 -158 -90 -4 5 -25 73 -47 153 l-39 145
26 11 c65 27 69 151 7 222 -25 28 -57 28 -82 1 -17 -19 -20 -44 -25 -243 -7
-250 -15 -286 -79 -359 -78 -88 -234 -122 -354 -77 -82 31 -162 113 -215 222
-120 243 -106 504 34 627 38 33 125 81 147 81 9 0 27 -51 52 -142 21 -79 41
-151 43 -160 4 -12 -5 -21 -31 -32 -54 -23 -79 -69 -71 -135 11 -104 72 -174
133 -153 15 4 32 19 39 33 6 13 15 118 20 239 11 234 21 281 81 343 80 85 243
108 359 51z m-7757 -192 c0 -16 -32 -170 -55 -269 -4 -18 -12 -23 -38 -23 -59
0 -109 -69 -110 -151 -1 -34 5 -54 18 -69 46 -51 86 -14 179 168 87 169 129
230 188 272 85 62 201 66 313 11 125 -62 176 -156 183 -336 5 -137 -13 -230
-68 -343 -74 -155 -180 -233 -325 -239 -44 -2 -85 0 -92 4 -9 7 -7 29 7 93 10
47 26 119 35 160 l16 75 49 0 c64 0 104 36 126 114 20 68 13 119 -21 149 -61
52 -94 23 -205 -182 -120 -220 -193 -287 -314 -288 -252 0 -391 232 -316 528
41 160 110 262 212 313 53 27 72 31 140 31 69 0 78 -2 78 -18z m2825 -4519
c83 -12 154 -22 160 -22 5 -1 -43 -54 -108 -119 l-117 -118 26 -152 c15 -84
24 -155 22 -158 -3 -2 -68 29 -144 70 l-139 74 -143 -75 c-79 -41 -145 -73
-147 -71 -1 1 10 74 25 160 l27 157 -114 112 c-63 61 -112 113 -110 116 3 2
65 13 138 24 74 11 144 22 156 24 16 4 39 40 93 153 l72 147 76 -150 77 -150
150 -22z m2680 0 c83 -12 154 -22 160 -22 5 -1 -43 -54 -107 -118 l-116 -118
24 -140 c13 -77 24 -148 24 -158 0 -16 -25 -6 -143 56 l-142 74 -140 -73 c-77
-41 -142 -74 -145 -74 -3 0 6 71 21 158 l28 157 -117 118 c-64 64 -112 117
-107 118 6 0 78 10 160 22 l150 22 75 147 75 147 75 -147 75 -147 150 -22z
m-1534 -195 c39 -79 73 -145 74 -146 2 -2 70 -13 152 -24 81 -12 151 -24 155
-27 4 -4 -43 -57 -105 -119 l-114 -113 28 -157 c15 -86 26 -158 24 -160 -1 -2
-67 31 -145 73 l-142 75 -144 -75 c-79 -42 -144 -71 -144 -64 0 6 11 79 26
162 l25 151 -116 110 c-81 76 -113 111 -103 116 7 4 67 15 133 24 66 9 133 19
148 22 25 5 37 24 100 150 39 79 73 144 74 144 2 0 35 -64 74 -142z"/>
<path d="M4717 9233 c-15 -4 -17 -14 -15 -76 l3 -72 109 2 c90 1 113 4 135 21
35 26 41 82 12 111 -19 19 -32 21 -123 20 -57 -1 -111 -3 -121 -6z"/>
<path d="M4743 8873 c-22 -4 -23 -9 -23 -86 0 -45 4 -88 9 -96 7 -11 30 -12
112 -6 57 3 119 11 137 17 65 20 80 114 25 158 -22 17 -39 20 -132 19 -58 -1
-116 -4 -128 -6z"/>
<path d="M6025 9091 c-74 -33 -127 -112 -160 -236 -28 -108 -16 -191 37 -251
42 -48 83 -67 143 -67 58 0 97 18 141 65 90 95 134 300 86 395 -51 98 -153
137 -247 94z"/>
<path d="M3438 8908 c-54 -22 -98 -45 -98 -50 0 -17 73 -178 81 -178 4 0 51
19 104 41 135 59 168 105 130 179 -32 63 -83 65 -217 8z"/>
<path d="M7182 8508 c-87 -42 -195 -194 -208 -292 -10 -67 3 -113 43 -157 88
-97 196 -92 310 14 103 96 161 237 133 322 -16 47 -66 104 -107 121 -47 20
-121 16 -171 -8z"/>
<path d="M2380 8063 c0 -15 134 -283 141 -281 4 2 36 31 72 64 l65 61 -97 57
c-53 30 -115 67 -138 81 -24 15 -43 23 -43 18z"/>
<path d="M4875 8170 c-958 -75 -1800 -604 -2297 -1442 -278 -469 -420 -993
-421 -1548 -1 -300 32 -547 107 -820 105 -384 306 -780 552 -1089 102 -127
354 -378 479 -477 412 -325 872 -521 1410 -601 169 -24 571 -24 740 0 537 80
999 277 1410 601 125 99 377 350 479 477 188 237 381 583 481 864 307 857 217
1816 -243 2593 -469 791 -1261 1317 -2148 1426 -156 19 -411 27 -549 16z m529
-225 c1017 -127 1893 -853 2230 -1848 200 -592 202 -1238 6 -1827 -139 -419
-364 -783 -675 -1096 -419 -421 -946 -687 -1530 -770 -181 -26 -539 -26 -720
0 -584 83 -1111 349 -1530 770 -311 313 -536 677 -675 1096 -193 578 -194
1221 -3 1798 283 859 962 1530 1806 1786 186 57 366 88 627 110 78 7 349 -4
464 -19z"/>
<path d="M4968 7762 c-17 -3 -18 -39 -18 -588 l0 -584 205 0 205 0 0 585 c0
578 0 585 -20 585 -20 0 -20 -7 -20 -565 l0 -565 -165 0 -165 0 -2 568 c-3
534 -4 567 -20 564z"/>
<path d="M4840 7755 c-8 -2 -66 -11 -127 -21 -62 -9 -113 -19 -114 -23 0 -3
-24 -247 -52 -541 l-53 -535 36 -7 c19 -3 81 -9 137 -13 l101 -7 6 43 c8 51
106 1072 106 1094 0 14 -8 16 -40 10z"/>
<path d="M5370 7181 l0 -571 185 0 185 0 0 535 0 535 -23 9 c-32 12 -220 49
-289 57 l-58 7 0 -572z"/>
<path d="M4505 7693 c-89 -22 -235 -76 -235 -88 0 -8 -20 -224 -46 -481 -25
-256 -43 -468 -41 -471 6 -6 266 -27 271 -22 2 2 24 225 50 494 26 270 49 509
52 533 7 45 2 48 -51 35z"/>
<path d="M5780 7140 l0 -530 105 0 105 0 -2 496 -3 496 -75 28 c-41 15 -87 30
-102 34 l-28 6 0 -530z"/>
<path d="M6040 7095 l0 -485 245 0 245 0 0 348 0 347 -93 61 c-97 65 -244 146
-339 188 l-58 26 0 -485z"/>
<path d="M4040 7517 c-58 -29 -138 -72 -177 -96 l-73 -43 0 -379 0 -379 185 0
185 0 0 475 c0 261 -3 475 -7 475 -5 0 -55 -24 -113 -53z"/>
<path d="M3748 7349 c-17 -9 -18 -37 -18 -359 l0 -350 -165 0 -165 0 0 212 c0
210 0 211 -20 193 -19 -17 -20 -31 -20 -232 l0 -213 205 0 205 0 0 380 c0 209
-1 380 -2 380 -2 0 -11 -5 -20 -11z"/>
<path d="M6550 6945 l0 -335 245 0 245 0 0 100 0 100 -88 102 c-49 57 -126
139 -173 182 -88 83 -212 186 -223 186 -3 0 -6 -151 -6 -335z"/>
<path d="M3248 6894 c-75 -88 -197 -253 -198 -266 0 -5 63 -8 140 -8 l140 0 0
180 c0 99 -2 180 -5 180 -3 0 -37 -39 -77 -86z"/>
<path d="M7070 6687 l0 -77 50 0 c28 0 50 4 50 8 0 7 -80 125 -94 140 -3 3 -6
-29 -6 -71z"/>
<path d="M2988 6528 c-9 -13 -27 -47 -42 -75 l-26 -53 2185 0 c1202 0 2185 3
2185 6 0 4 -17 38 -37 75 l-37 69 -2107 0 -2107 0 -14 -22z"/>
<path d="M2867 6295 l-17 -35 2255 0 c1240 0 2255 2 2255 5 0 4 -7 19 -15 35
l-16 30 -2222 0 -2223 0 -17 -35z"/>
<path d="M4876 6189 c-3 -13 -46 -451 -96 -974 -50 -522 -92 -954 -95 -960 -2
-5 -4 423 -4 953 l-1 962 -185 0 -185 0 0 -1011 0 -1011 243 2 c215 2 386 -5
668 -26 l87 -7 5 29 c3 16 43 420 89 898 l83 869 3 -887 2 -886 185 0 185 0 0
1015 0 1015 -177 0 c-98 0 -245 6 -328 13 -82 8 -163 14 -180 14 -16 0 -89 3
-162 8 l-132 8 -5 -24z m274 -43 c-1 -40 -190 -1960 -194 -1963 -5 -5 -227 14
-231 19 -3 4 185 1950 189 1963 5 14 236 -5 236 -19z m313 -31 c-1 -11 -43
-454 -94 -985 -51 -531 -94 -967 -95 -969 -4 -5 -224 16 -231 22 -4 4 168
1827 183 1932 l6 40 116 -10 c108 -9 117 -12 115 -30z"/>
<path d="M3880 5160 l0 -1030 205 0 205 0 0 1030 0 1030 -205 0 -205 0 0
-1030z m370 0 l0 -990 -165 0 -165 0 0 990 0 990 165 0 165 0 0 -990z"/>
<path d="M6310 5155 l0 -1015 105 0 105 0 -2 1013 -3 1012 -102 3 -103 3 0
-1016z"/>
<path d="M6540 5135 l0 -1015 265 0 265 0 0 1015 0 1015 -265 0 -265 0 0
-1015z m490 0 l0 -975 -225 0 -225 0 0 975 0 975 225 0 225 0 0 -975z"/>
<path d="M7117 6123 c-4 -3 -7 -451 -7 -995 l0 -988 120 0 120 0 26 58 c14 31
45 116 69 187 137 410 170 864 94 1290 -25 137 -40 200 -85 343 l-36 112 -147
0 c-81 0 -151 -3 -154 -7z"/>
<path d="M2860 5131 c0 -539 3 -986 6 -995 5 -14 45 -16 340 -16 l334 0 0 995
0 995 -340 0 -340 0 0 -979z m270 -21 l0 -920 -95 0 -95 0 0 920 0 920 95 0
95 0 0 -920z m330 0 l0 -920 -95 0 -95 0 0 920 0 920 95 0 95 0 0 -920z"/>
<path d="M2777 6063 c-12 -21 -58 -181 -80 -283 -57 -255 -75 -596 -48 -850
21 -188 85 -464 140 -605 l20 -50 1 898 c0 774 -2 897 -14 897 -8 0 -17 -3
-19 -7z"/>
<path d="M3580 5110 l0 -960 135 0 135 0 0 960 0 960 -135 0 -135 0 0 -960z"/>
<path d="M5890 4875 l0 -735 185 0 185 0 0 735 0 735 -185 0 -185 0 0 -735z"/>
<path d="M2927 4008 l39 -73 2140 -2 2139 -3 38 69 c20 38 37 72 37 75 0 3
-997 6 -2216 6 l-2216 0 39 -72z"/>
<path d="M3020 3853 c0 -5 9 -23 20 -40 l20 -33 2048 0 2048 0 23 40 22 40
-2090 0 c-1150 0 -2091 -3 -2091 -7z"/>
<path d="M7070 3698 l1 -33 19 24 c25 30 25 41 0 41 -16 0 -20 -7 -20 -32z"/>
<path d="M3770 3390 c0 -319 1 -330 20 -340 20 -11 20 -8 20 310 l0 320 165 0
165 0 0 -409 c0 -364 2 -410 16 -415 9 -3 18 -6 20 -6 2 0 4 196 4 435 l0 435
-205 0 -205 0 0 -330z"/>
<path d="M4370 3701 c0 -11 -18 -204 -40 -430 -22 -225 -40 -423 -40 -440 0
-29 3 -31 95 -60 128 -41 175 -49 175 -27 0 9 20 226 45 482 25 257 44 468 43
470 -5 4 -204 24 -244 24 -27 0 -34 -4 -34 -19z"/>
<path d="M5760 3435 l0 -275 -205 0 -205 0 0 -246 c0 -228 1 -245 18 -242 15
3 17 23 20 226 l2 222 165 0 165 0 0 -190 c0 -104 4 -190 9 -190 4 0 22 5 40
11 l31 11 0 454 0 454 85 0 85 0 0 -424 c0 -419 0 -424 20 -419 20 5 20 14 20
444 l0 439 -125 0 -125 0 0 -275z"/>
<path d="M3380 3541 l0 -159 83 -74 c96 -87 176 -153 241 -197 l46 -32 0 311
0 310 -185 0 -185 0 0 -159z"/>
<path d="M4686 3659 c-6 -41 -81 -816 -88 -903 -3 -37 0 -40 27 -48 39 -10
237 -40 241 -36 1 2 23 217 49 478 25 261 47 480 50 485 2 6 4 -212 4 -482 l1
-493 139 0 c76 0 159 3 185 6 l46 7 0 509 0 510 -232 -3 c-128 -1 -274 1 -325
6 l-91 7 -6 -43z"/>
<path d="M6040 3250 c0 -220 2 -400 4 -400 2 0 38 16 79 35 96 43 219 112 325
183 l82 54 0 264 0 264 -245 0 -245 0 0 -400z"/>
<path d="M6550 3394 l0 -255 62 48 c143 111 428 408 428 447 0 14 -25 16 -245
16 l-245 0 0 -256z"/>
<path d="M3226 3558 c15 -18 44 -53 65 -77 l39 -44 0 77 0 76 -66 0 -66 0 28
-32z"/>
</g>
</svg>
